<svg width="273" height="45" viewBox="0 0 273 45" fill="none" xmlns="http://www.w3.org/2000/svg">
<path d="M32.4375 7.6897C32.4375 8.23657 32.2734 8.60116 31.9453 8.78345C31.6536 8.92928 31.2708 9.0022 30.7969 9.0022C30.724 8.74699 30.6146 8.58293 30.4688 8.51001C30.3229 8.43709 30.25 8.2548 30.25 7.96313C30.25 7.63501 30.3594 7.36157 30.5781 7.14282C30.8333 6.88761 31.125 6.76001 31.4531 6.76001C31.7083 6.76001 31.9271 6.85116 32.1094 7.03345C32.3281 7.21574 32.4375 7.43449 32.4375 7.6897ZM29.3203 5.17407L29.2656 5.9397C29.0469 6.08553 28.8646 6.19491 28.7187 6.26782C28.6094 6.34074 28.4818 6.46834 28.3359 6.65063C27.9714 6.54126 27.6797 6.39543 27.4609 6.21313C27.388 6.0673 27.2969 5.9397 27.1875 5.83032C27.1146 5.68449 27.0781 5.52043 27.0781 5.33813C27.0781 5.26522 27.1146 5.15584 27.1875 5.01001C27.3698 4.82772 27.5703 4.68188 27.7891 4.57251C28.0078 4.46313 28.263 4.40845 28.5547 4.40845H28.9922C28.9922 4.70011 29.0286 4.84595 29.1016 4.84595C29.1745 4.84595 29.2474 4.95532 29.3203 5.17407ZM25.8203 2.65845C25.7109 2.95011 25.638 3.20532 25.6016 3.42407C25.5651 3.64282 25.401 3.84334 25.1094 4.02563L24.125 4.02563C24.0156 3.8798 23.9245 3.73397 23.8516 3.58813C23.8151 3.4423 23.7422 3.3147 23.6328 3.20532C23.7057 2.84074 23.7786 2.58553 23.8516 2.4397L24.0156 1.94751C24.1979 1.91105 24.3255 1.89282 24.3984 1.89282C24.4714 1.89282 24.599 1.89282 24.7812 1.89282C25.0365 1.89282 25.2188 1.98397 25.3281 2.16626C25.474 2.31209 25.638 2.47616 25.8203 2.65845ZM21.2266 1.83813C21.2266 2.16626 21.1172 2.4397 20.8984 2.65845C20.7161 2.8772 20.4609 2.98657 20.1328 2.98657C19.8411 2.98657 19.5859 2.91366 19.3672 2.76782C19.1849 2.58553 19.0938 2.34855 19.0938 2.05688C19.0938 1.72876 19.2578 1.47355 19.5859 1.29126C19.9141 1.07251 20.224 0.963135 20.5156 0.963135H20.8984C20.9714 1.10897 21.0443 1.2548 21.1172 1.40063C21.1901 1.51001 21.2266 1.65584 21.2266 1.83813ZM16.3594 2.0022C16.25 2.14803 16.1953 2.23918 16.1953 2.27563C16.2318 2.27563 16.25 2.36678 16.25 2.54907C16.25 2.76782 16.1771 2.95011 16.0312 3.09595C15.9219 3.20532 15.8307 3.35116 15.7578 3.53345C15.5755 3.46053 15.375 3.4423 15.1562 3.47876C14.9375 3.51522 14.737 3.47876 14.5547 3.36938C14.4453 3.15063 14.3359 3.0048 14.2266 2.93188C14.1172 2.85897 14.0625 2.67668 14.0625 2.38501C14.0625 1.91105 14.2812 1.60116 14.7188 1.45532C15.1562 1.30949 15.5573 1.21834 15.9219 1.18188C15.9219 1.47355 15.9401 1.63761 15.9766 1.67407C16.0495 1.71053 16.1771 1.81991 16.3594 2.0022ZM11.1094 4.46313C11.0365 4.64543 10.8906 4.86418 10.6719 5.11938C10.4531 5.37459 10.2344 5.5022 10.0156 5.5022C9.94271 5.5022 9.77865 5.46574 9.52344 5.39282C9.30469 5.31991 9.15885 5.26522 9.08594 5.22876C9.01302 5.08293 8.92187 4.95532 8.8125 4.84595C8.73958 4.70011 8.70312 4.53605 8.70312 4.35376C8.73958 4.28084 8.79427 4.15324 8.86719 3.97095C8.9401 3.7522 9.01302 3.60636 9.08594 3.53345C9.23177 3.42407 9.34115 3.36938 9.41406 3.36938C9.48698 3.36938 9.52344 3.26001 9.52344 3.04126C9.74219 3.07772 9.96094 3.15063 10.1797 3.26001C10.3984 3.36938 10.6172 3.42407 10.8359 3.42407C10.8724 3.60636 10.8906 3.80688 10.8906 4.02563C10.9271 4.20793 11 4.35376 11.1094 4.46313ZM7.11719 7.96313C6.97135 8.2548 6.80729 8.51001 6.625 8.72876C6.47917 8.94751 6.26042 9.11157 5.96875 9.22095C5.78646 9.14803 5.60417 9.09334 5.42187 9.05688C5.27604 9.02043 5.13021 8.92928 4.98437 8.78345C4.83854 8.41886 4.76562 8.14543 4.76562 7.96313C4.76562 7.67147 4.85677 7.47095 5.03906 7.36157C5.25781 7.2522 5.4401 7.08813 5.58594 6.86938C6.20573 7.08813 6.71615 7.45272 7.11719 7.96313ZM32.7109 36.9475C32.7109 37.1663 32.6562 37.385 32.5469 37.6038C32.3646 37.7131 32.2005 37.8407 32.0547 37.9866C31.9089 38.0959 31.7266 38.1506 31.5078 38.1506C31.2161 38.1506 30.9609 38.023 30.7422 37.7678C30.5234 37.5126 30.4141 37.2392 30.4141 36.9475C30.4141 36.5829 30.487 36.3459 30.6328 36.2366C30.8151 36.1272 31.0339 35.9814 31.2891 35.7991C31.5443 35.8355 31.7448 35.8538 31.8906 35.8538C32.0729 35.8173 32.3099 35.8538 32.6016 35.9631C32.6016 36.1454 32.6198 36.3095 32.6562 36.4553C32.6927 36.6012 32.7109 36.7652 32.7109 36.9475ZM4.65625 12.4475C4.65625 12.7756 4.52865 13.0491 4.27344 13.2678C4.05469 13.4501 3.78125 13.5413 3.45312 13.5413C2.79687 13.5413 2.46875 13.2131 2.46875 12.5569C2.46875 12.3746 2.48698 12.1741 2.52344 11.9553C2.59635 11.7366 2.66927 11.5361 2.74219 11.3538H3.28906C3.65365 11.3538 3.96354 11.4449 4.21875 11.6272C4.51042 11.773 4.65625 12.0465 4.65625 12.4475ZM29.1562 40.2834C29.1562 40.4657 29.1016 40.6298 28.9922 40.7756C28.9193 40.9215 28.8464 41.0855 28.7734 41.2678C28.5911 41.2678 28.4271 41.2861 28.2812 41.3225C28.1719 41.359 28.026 41.3772 27.8437 41.3772C27.5521 41.3772 27.3151 41.2861 27.1328 41.1038C26.987 40.9215 26.9141 40.6845 26.9141 40.3928C26.9141 40.1012 26.987 39.8459 27.1328 39.6272C27.3151 39.4084 27.5521 39.2991 27.8437 39.2991C28.1354 39.2991 28.4271 39.3902 28.7187 39.5725C29.0104 39.7548 29.1562 39.9918 29.1562 40.2834ZM2.41406 16.9866C2.41406 17.3512 2.26823 17.7157 1.97656 18.0803C1.79427 18.1532 1.59375 18.2079 1.375 18.2444C1.15625 18.2808 0.9375 18.3538 0.71875 18.4631C0.609375 18.1715 0.481771 17.9345 0.335937 17.7522C0.190104 17.5334 0.117187 17.2782 0.117187 16.9866C0.226562 16.8772 0.408854 16.6949 0.664062 16.4397C0.955729 16.1845 1.19271 16.0569 1.375 16.0569C1.44792 16.0569 1.52083 16.0751 1.59375 16.1116C1.70312 16.1116 1.79427 16.1116 1.86719 16.1116L2.41406 16.9866ZM24.7812 42.4163V42.9084C24.6354 43.0178 24.4714 43.1272 24.2891 43.2366C24.1432 43.3459 23.9792 43.4006 23.7969 43.4006C23.5052 43.4006 23.2682 43.3095 23.0859 43.1272C22.9036 42.9449 22.7396 42.7262 22.5937 42.4709C22.5937 42.1793 22.6302 42.0334 22.7031 42.0334C22.8125 41.997 22.8307 41.8329 22.7578 41.5413C22.9766 41.4683 23.1042 41.4137 23.1406 41.3772C23.2135 41.3043 23.3411 41.1767 23.5234 40.9944C23.7057 41.0673 23.888 41.1584 24.0703 41.2678C24.2526 41.3772 24.4531 41.4319 24.6719 41.4319C24.7083 41.6142 24.7266 41.7782 24.7266 41.9241C24.763 42.0699 24.7812 42.234 24.7812 42.4163ZM2.30469 22.6741C2.30469 22.8564 2.26823 23.1298 2.19531 23.4944C1.97656 23.6767 1.79427 23.8043 1.64844 23.8772C1.5026 23.9501 1.28385 23.9866 0.992187 23.9866C0.372396 23.9866 0.0625 23.6767 0.0625 23.0569C0.0625 22.7288 0.153646 22.4371 0.335937 22.1819C0.518229 21.8902 0.791667 21.7444 1.15625 21.7444C1.44792 21.7444 1.70312 21.8355 1.92187 22.0178C2.17708 22.1637 2.30469 22.3824 2.30469 22.6741ZM19.2031 43.3459L18.9297 43.7288H18.6016C18.4922 43.7288 18.3828 43.7288 18.2734 43.7288C18.2005 43.7652 18.1094 43.7834 18 43.7834C17.8542 43.6376 17.7266 43.4918 17.6172 43.3459C17.5078 43.2001 17.3802 43.0361 17.2344 42.8538C17.3073 42.5986 17.3984 42.3616 17.5078 42.1428C17.6536 41.9241 17.8177 41.7236 18 41.5413C18.1823 41.5413 18.3281 41.5595 18.4375 41.5959C18.5833 41.5959 18.7474 41.5959 18.9297 41.5959C19.112 41.8876 19.3125 42.1246 19.5312 42.3069C19.4583 42.5256 19.4219 42.6715 19.4219 42.7444C19.4219 43.0361 19.3854 43.2183 19.3125 43.2913C19.276 43.3277 19.2396 43.3459 19.2031 43.3459ZM3.28906 27.8694C3.28906 28.1611 3.23437 28.3798 3.125 28.5256C3.05208 28.6715 2.96094 28.872 2.85156 29.1272C2.70573 29.2001 2.57812 29.2548 2.46875 29.2913C2.35937 29.3277 2.23177 29.3459 2.08594 29.3459C1.83073 29.3459 1.59375 29.2548 1.375 29.0725C1.19271 28.8902 1.02865 28.7079 0.882812 28.5256C0.955729 28.3433 0.992187 28.1428 0.992187 27.9241C0.992187 27.7782 1.02865 27.6324 1.10156 27.4866C1.28385 27.4137 1.48437 27.3407 1.70312 27.2678C1.92187 27.1584 2.10417 27.1038 2.25 27.1038C2.32292 27.1038 2.48698 27.2131 2.74219 27.4319C3.03385 27.6506 3.21615 27.7965 3.28906 27.8694ZM14.2266 41.8694C14.1536 42.0517 14.0807 42.1975 14.0078 42.3069C13.9714 42.3798 13.9714 42.5074 14.0078 42.6897C13.8255 42.7991 13.625 42.9084 13.4062 43.0178C13.1875 43.1272 12.9687 43.1819 12.75 43.1819C12.4948 43.1819 12.2578 43.0907 12.0391 42.9084C11.8203 42.7262 11.7109 42.5074 11.7109 42.2522C11.7109 42.0334 11.8203 41.7782 12.0391 41.4866C12.2578 41.1949 12.4766 41.0126 12.6953 40.9397C12.7682 41.0126 12.8411 41.0491 12.9141 41.0491C12.987 41.0126 13.0781 40.9944 13.1875 40.9944H13.5156C13.625 41.2131 13.7161 41.3772 13.7891 41.4866C13.8984 41.5595 14.0443 41.6871 14.2266 41.8694ZM5.09375 33.9397C5.02083 34.3043 4.89323 34.6142 4.71094 34.8694C4.52865 35.1246 4.23698 35.2522 3.83594 35.2522H3.39844C3.32552 35.1064 3.23437 34.9788 3.125 34.8694C3.01562 34.7236 2.94271 34.5777 2.90625 34.4319C2.83333 34.2131 2.79687 34.0855 2.79687 34.0491C2.79687 33.9397 2.8151 33.8486 2.85156 33.7756C2.88802 33.6663 2.92448 33.5751 2.96094 33.5022C3.32552 33.247 3.6901 33.1194 4.05469 33.1194C4.16406 33.1194 4.32812 33.1558 4.54687 33.2288C4.61979 33.3746 4.69271 33.5022 4.76562 33.6116C4.83854 33.7209 4.94792 33.8303 5.09375 33.9397ZM9.63281 39.2444C9.52344 39.4996 9.39583 39.7183 9.25 39.9006C9.14062 40.0465 8.9401 40.1741 8.64844 40.2834C8.42969 40.2105 8.15625 40.1194 7.82812 40.01C7.53646 39.8642 7.39062 39.6454 7.39062 39.3538C7.39062 39.135 7.46354 38.9163 7.60937 38.6975C7.79167 38.5881 7.95573 38.497 8.10156 38.4241C8.28385 38.3147 8.46615 38.26 8.64844 38.26C8.9401 38.26 9.14062 38.3694 9.25 38.5881C9.39583 38.8069 9.52344 39.0256 9.63281 39.2444ZM73.4947 9.60376C73.3124 9.89543 73.1483 10.1324 73.0025 10.3147C72.8931 10.4605 72.7108 10.6611 72.4556 10.9163H72.1275C71.9817 10.9163 71.8541 10.9163 71.7447 10.9163C71.6353 10.8798 71.5259 10.8798 71.4166 10.9163C71.3436 10.6975 71.216 10.5334 71.0337 10.4241C70.8515 10.2782 70.7603 10.0777 70.7603 9.82251C70.7603 9.42147 70.8515 9.18449 71.0337 9.11157C71.2525 9.03866 71.5077 8.96574 71.7994 8.89282C72.0181 8.81991 72.2004 8.78345 72.3462 8.78345C72.4192 8.78345 72.5832 8.91105 72.8384 9.16626C73.1301 9.38501 73.3489 9.53084 73.4947 9.60376ZM69.2291 5.9397C69.2291 6.15845 69.1379 6.3772 68.9556 6.59595C68.8098 6.77824 68.7004 6.97876 68.6275 7.19751C68.2629 7.12459 67.8801 7.05168 67.4791 6.97876C67.078 6.86938 66.8775 6.55949 66.8775 6.04907C66.8775 5.90324 66.8957 5.77563 66.9322 5.66626C67.0051 5.52043 67.0416 5.37459 67.0416 5.22876C67.4061 4.97355 67.7707 4.84595 68.1353 4.84595C68.3176 4.84595 68.4817 4.90063 68.6275 5.01001C68.8098 5.08293 68.9921 5.17407 69.1744 5.28345C69.1744 5.39282 69.1744 5.5022 69.1744 5.61157C69.2108 5.72095 69.2291 5.83032 69.2291 5.9397ZM64.5259 2.49438C64.4895 2.67668 64.4348 2.85897 64.3619 3.04126C64.3254 3.22355 64.1978 3.35116 63.9791 3.42407C63.9791 3.93449 63.7239 4.1897 63.2134 4.1897C62.9947 4.1897 62.7577 4.13501 62.5025 4.02563C62.4296 3.84334 62.3384 3.67928 62.2291 3.53345C62.1197 3.35116 62.065 3.16886 62.065 2.98657C62.065 2.84074 62.1015 2.69491 62.1744 2.54907L62.7759 2.05688H63.1041C63.3593 2.05688 63.6327 2.16626 63.9244 2.38501L64.5259 2.49438ZM76.065 15.8928C75.8462 16.2939 75.4999 16.4944 75.0259 16.4944C74.7343 16.4944 74.4973 16.4579 74.315 16.385C74.1692 16.2756 73.9869 16.1298 73.7681 15.9475V15.2366C73.7681 15.0543 73.7864 14.9084 73.8228 14.7991C74.0051 14.6897 74.1692 14.5803 74.315 14.4709C74.4973 14.3251 74.6978 14.2522 74.9166 14.2522C74.9895 14.2522 75.1353 14.2887 75.3541 14.3616C75.6457 14.7262 75.7916 14.9814 75.7916 15.1272C75.7916 15.273 75.8827 15.5282 76.065 15.8928ZM58.2369 2.33032C58.2369 2.65845 58.0546 2.89543 57.69 3.04126C57.3619 3.15063 57.0702 3.22355 56.815 3.26001C56.5962 3.07772 56.414 2.93188 56.2681 2.82251C56.1587 2.71313 55.9582 2.62199 55.6666 2.54907C55.7395 2.4397 55.7942 2.33032 55.8306 2.22095C55.9035 2.07511 55.94 1.94751 55.94 1.83813C55.94 1.65584 56.1041 1.47355 56.4322 1.29126C56.7968 1.10897 57.0337 0.926676 57.1431 0.744385C57.3254 0.926676 57.4895 1.09074 57.6353 1.23657C57.7811 1.34595 57.9452 1.45532 58.1275 1.5647C58.1275 1.71053 58.1457 1.83813 58.1822 1.94751C58.2186 2.05688 58.2369 2.18449 58.2369 2.33032ZM77.1041 21.7991C76.8124 22.3459 76.3567 22.6194 75.7369 22.6194C75.664 22.6194 75.5728 22.6194 75.4634 22.6194C75.3541 22.5829 75.2629 22.5647 75.19 22.5647C75.0806 22.3824 74.9712 22.2001 74.8619 22.0178C74.7525 21.8355 74.6978 21.6532 74.6978 21.4709C74.6978 21.2522 74.7707 20.997 74.9166 20.7053C75.0989 20.5595 75.2994 20.4866 75.5181 20.4866C75.7369 20.4866 75.9374 20.4319 76.1197 20.3225C76.302 20.5048 76.5754 20.6324 76.94 20.7053L77.1041 21.7991ZM76.5572 28.4163C76.5572 28.5256 76.5207 28.6897 76.4478 28.9084C76.1561 29.2001 75.8098 29.3459 75.4087 29.3459C75.2629 29.3459 75.1171 29.3277 74.9712 29.2913C74.8619 29.2548 74.7343 29.2183 74.5884 29.1819C74.5155 29.0361 74.4426 28.9084 74.3697 28.7991C74.3332 28.6532 74.315 28.4892 74.315 28.3069C74.315 28.1975 74.315 28.1064 74.315 28.0334C74.3515 27.9241 74.3697 27.8147 74.3697 27.7053C74.4791 27.6324 74.5884 27.5777 74.6978 27.5413C74.8436 27.5048 74.9348 27.3954 74.9712 27.2131C75.1171 27.1402 75.2629 27.1038 75.4087 27.1038C75.591 27.1038 75.7369 27.1584 75.8462 27.2678C75.9556 27.3772 76.1015 27.4501 76.2837 27.4866C76.3567 27.6324 76.4114 27.7782 76.4478 27.9241C76.5207 28.0699 76.5572 28.234 76.5572 28.4163ZM51.7291 4.6272C51.4739 4.77303 51.2551 4.91886 51.0728 5.0647C50.927 5.21053 50.7082 5.28345 50.4166 5.28345H50.0884C49.9791 5.17407 49.8697 5.0647 49.7603 4.95532C49.6509 4.84595 49.5598 4.71834 49.4869 4.57251C49.4504 4.42668 49.414 4.3173 49.3775 4.24438C49.3775 4.13501 49.3775 4.04386 49.3775 3.97095C49.3775 3.82511 49.414 3.71574 49.4869 3.64282C49.5598 3.53345 49.5962 3.40584 49.5962 3.26001C49.8879 3.11418 50.1249 3.04126 50.3072 3.04126C50.5624 3.04126 50.7811 3.09595 50.9634 3.20532C51.1822 3.3147 51.3827 3.42407 51.565 3.53345V3.86157C51.565 4.00741 51.5832 4.15324 51.6197 4.29907C51.6561 4.40845 51.6926 4.51782 51.7291 4.6272ZM73.6041 34.6506C73.4947 35.4527 73.0754 35.8538 72.3462 35.8538C71.9817 35.8538 71.7447 35.7626 71.6353 35.5803C71.5259 35.3616 71.3983 35.1246 71.2525 34.8694C71.3254 34.5777 71.453 34.3043 71.6353 34.0491C71.8541 33.7939 72.1275 33.6663 72.4556 33.6663C72.6379 33.6663 72.8749 33.7392 73.1666 33.885C73.1666 34.1038 73.203 34.2496 73.2759 34.3225C73.3853 34.359 73.4947 34.4683 73.6041 34.6506ZM46.2056 7.63501C46.2056 8.03605 46.0598 8.34595 45.7681 8.5647C45.4765 8.78345 45.1483 8.89282 44.7837 8.89282C44.565 8.89282 44.3462 8.76522 44.1275 8.51001C43.9087 8.2548 43.7994 8.03605 43.7994 7.85376C43.7994 7.59855 43.8541 7.3798 43.9634 7.19751C44.1093 7.01522 44.2733 6.85116 44.4556 6.70532L44.8931 6.65063C45.1848 6.72355 45.4765 6.83293 45.7681 6.97876C46.0598 7.08813 46.2056 7.30688 46.2056 7.63501ZM68.7916 40.01V40.5569C68.6093 40.6298 68.4087 40.6845 68.19 40.7209C68.0077 40.7574 67.8072 40.7756 67.5884 40.7756C67.3332 40.7756 67.0962 40.7027 66.8775 40.5569C66.6952 40.4111 66.5129 40.2652 66.3306 40.1194C66.4765 39.7913 66.6405 39.4814 66.8228 39.1897C67.0416 38.898 67.3515 38.7522 67.7525 38.7522C68.0442 38.7522 68.2811 38.898 68.4634 39.1897C68.6822 39.4814 68.7916 39.7548 68.7916 40.01ZM42.3228 13.4866C42.3228 13.5959 42.3046 13.7053 42.2681 13.8147C42.2681 13.9241 42.2681 14.0334 42.2681 14.1428C42.0858 14.2522 41.8853 14.3616 41.6666 14.4709C41.4478 14.5439 41.2291 14.5803 41.0103 14.5803C40.828 14.5803 40.6275 14.5439 40.4087 14.4709C40.3358 14.2887 40.2629 14.1611 40.19 14.0881C40.1171 14.0152 40.0259 13.8876 39.9166 13.7053C39.9895 13.2678 40.1171 12.9032 40.2994 12.6116C40.4817 12.5387 40.664 12.484 40.8462 12.4475C41.0285 12.4111 41.2108 12.3928 41.3931 12.3928H41.8853C41.9947 12.5751 42.0858 12.7574 42.1587 12.9397C42.2681 13.0855 42.3228 13.2678 42.3228 13.4866ZM40.6822 19.7209C40.6822 20.2678 40.5728 20.7236 40.3541 21.0881C40.1718 21.4527 39.7707 21.635 39.1509 21.635C39.0051 21.4892 38.8228 21.3616 38.6041 21.2522C38.4218 21.1064 38.3306 20.9241 38.3306 20.7053C38.3306 20.5595 38.3489 20.4319 38.3853 20.3225C38.4218 20.2131 38.44 20.1038 38.44 19.9944C38.6223 19.885 38.8046 19.7392 38.9869 19.5569C39.1692 19.3746 39.3515 19.2834 39.5337 19.2834C39.716 19.2834 39.8619 19.3564 39.9712 19.5022C40.0806 19.648 40.3176 19.7209 40.6822 19.7209ZM62.065 42.7991C62.065 43.0543 62.0285 43.2366 61.9556 43.3459C61.8098 43.5282 61.6275 43.6376 61.4087 43.6741C61.2265 43.747 61.0442 43.8199 60.8619 43.8928C60.6796 43.747 60.5155 43.6376 60.3697 43.5647C60.2603 43.5282 60.1145 43.4736 59.9322 43.4006C59.9322 43.2913 59.914 43.1819 59.8775 43.0725C59.8775 42.9996 59.8775 42.9084 59.8775 42.7991C59.8775 42.6897 59.914 42.5256 59.9869 42.3069C60.0598 42.1975 60.1874 42.0699 60.3697 41.9241C60.552 41.7418 60.716 41.6506 60.8619 41.6506C61.1535 41.6506 61.3176 41.6871 61.3541 41.76C61.427 41.8329 61.5728 41.8876 61.7916 41.9241C61.9739 42.2157 62.065 42.5074 62.065 42.7991ZM40.9009 27.5959V27.8147C40.7186 28.0699 40.5728 28.2887 40.4634 28.4709C40.3905 28.6532 40.1718 28.7444 39.8072 28.7444C39.3697 28.7444 38.9869 28.5803 38.6587 28.2522C38.5858 27.9605 38.5494 27.7053 38.5494 27.4866C38.5494 27.2678 38.6041 27.0855 38.7134 26.9397C38.8593 26.7939 38.9869 26.6298 39.0962 26.4475C39.2421 26.5204 39.3697 26.5387 39.4791 26.5022C39.6249 26.4657 39.789 26.4657 39.9712 26.5022C40.1535 26.7209 40.3541 26.8486 40.5728 26.885C40.7916 26.885 40.9009 27.122 40.9009 27.5959ZM55.3931 43.0725C55.3931 43.3642 55.2837 43.6012 55.065 43.7834C54.8462 44.0022 54.591 44.1116 54.2994 44.1116C53.9712 44.1116 53.7343 44.0387 53.5884 43.8928C53.4426 43.7834 53.3332 43.6376 53.2603 43.4553C53.1874 43.273 53.1327 43.0725 53.0962 42.8538C53.0598 42.635 52.9686 42.4345 52.8228 42.2522C53.0416 42.2157 53.2056 42.1793 53.315 42.1428C53.4244 42.1064 53.5155 42.0699 53.5884 42.0334C53.6614 41.997 53.716 41.9605 53.7525 41.9241C53.8254 41.8512 53.953 41.7782 54.1353 41.7053C54.4634 41.7782 54.7551 41.9423 55.0103 42.1975C55.2655 42.4163 55.3931 42.7079 55.3931 43.0725ZM43.3619 34.5959C43.3619 34.7782 43.3254 34.9241 43.2525 35.0334C43.1796 35.1428 43.1067 35.2704 43.0337 35.4163C42.9608 35.4527 42.815 35.5074 42.5962 35.5803C42.414 35.6532 42.2864 35.6897 42.2134 35.6897C42.1041 35.6897 41.9947 35.6715 41.8853 35.635C41.8124 35.5621 41.7212 35.5256 41.6119 35.5256C41.539 35.5256 41.4843 35.5439 41.4478 35.5803C41.4114 35.5803 41.3567 35.5803 41.2837 35.5803C41.1744 35.3251 41.1015 35.1611 41.065 35.0881C41.065 34.9788 41.065 34.7782 41.065 34.4866L40.9556 34.2678L41.5572 33.3928C41.5936 33.4293 41.6848 33.484 41.8306 33.5569C41.9035 33.5569 41.9765 33.5569 42.0494 33.5569C42.1223 33.5204 42.1952 33.5022 42.2681 33.5022C42.3775 33.5022 42.5416 33.5751 42.7603 33.7209C43.0155 33.8668 43.1796 33.9762 43.2525 34.0491C43.3254 34.3407 43.3619 34.523 43.3619 34.5959ZM48.6119 39.7366C48.6119 39.9553 48.539 40.1194 48.3931 40.2288C48.2473 40.3381 48.1379 40.484 48.065 40.6663C47.9192 40.7392 47.7916 40.7939 47.6822 40.8303C47.5728 40.8668 47.4452 40.885 47.2994 40.885C47.0806 40.885 46.8619 40.7756 46.6431 40.5569C46.4608 40.3381 46.2603 40.1923 46.0416 40.1194C46.1145 39.8277 46.1874 39.5543 46.2603 39.2991C46.3697 39.0439 46.5337 38.8069 46.7525 38.5881C47.0806 38.5881 47.4634 38.6793 47.9009 38.8616C48.3749 39.0439 48.6119 39.3355 48.6119 39.7366ZM119.857 2.82251L119.255 3.69751C119.036 3.77043 118.854 3.80688 118.708 3.80688C118.562 3.80688 118.416 3.78866 118.271 3.7522C118.125 3.71574 117.961 3.69751 117.778 3.69751C117.778 3.62459 117.724 3.42407 117.614 3.09595C117.505 2.76782 117.45 2.58553 117.45 2.54907C117.45 2.33032 117.523 2.18449 117.669 2.11157C117.815 2.0022 117.942 1.87459 118.052 1.72876C118.161 1.6923 118.252 1.67407 118.325 1.67407C118.435 1.63761 118.544 1.61938 118.653 1.61938C118.836 1.61938 119.036 1.65584 119.255 1.72876L119.857 2.82251ZM119.857 8.34595C119.82 8.49178 119.802 8.71053 119.802 9.0022C119.802 9.40324 119.62 9.69491 119.255 9.8772C118.927 10.023 118.599 10.1324 118.271 10.2053C118.052 10.1324 117.906 10.0413 117.833 9.93188C117.797 9.82251 117.687 9.69491 117.505 9.54907C117.505 9.36678 117.469 9.22095 117.396 9.11157C117.359 8.96574 117.341 8.80168 117.341 8.61938C117.669 8.29126 117.906 7.92668 118.052 7.52563C118.125 7.59855 118.179 7.65324 118.216 7.6897C118.252 7.72616 118.325 7.78084 118.435 7.85376C118.617 7.85376 118.799 7.79907 118.982 7.6897L119.857 8.34595ZM119.911 15.51C119.838 15.8017 119.729 16.0933 119.583 16.385C119.437 16.6767 119.164 16.8225 118.763 16.8225C118.508 16.8225 118.289 16.7496 118.107 16.6038C117.924 16.4215 117.724 16.2574 117.505 16.1116C117.578 15.8564 117.596 15.6741 117.56 15.5647C117.523 15.4553 117.578 15.2366 117.724 14.9084C117.979 14.872 118.107 14.7808 118.107 14.635C118.143 14.4527 118.307 14.3798 118.599 14.4163C118.635 14.4163 118.672 14.4345 118.708 14.4709C118.745 14.4709 118.799 14.4709 118.872 14.4709C118.982 14.4709 119.073 14.4345 119.146 14.3616L119.692 14.6897C119.692 14.7626 119.656 14.872 119.583 15.0178C119.62 15.0907 119.674 15.1819 119.747 15.2913C119.82 15.3642 119.875 15.4371 119.911 15.51ZM119.857 21.5256C119.857 21.5986 119.857 21.6715 119.857 21.7444C119.893 21.8173 119.911 21.8902 119.911 21.9631C119.729 22.2183 119.565 22.4371 119.419 22.6194C119.31 22.7652 119.219 22.9293 119.146 23.1116C119.036 23.148 118.872 23.1663 118.653 23.1663C118.216 23.1663 117.906 23.0204 117.724 22.7288C117.578 22.4006 117.45 22.0725 117.341 21.7444C117.523 21.5621 117.706 21.3616 117.888 21.1428C118.07 20.9241 118.307 20.8147 118.599 20.8147C118.745 20.8147 118.963 20.8512 119.255 20.9241C119.401 20.9605 119.528 20.997 119.638 21.0334C119.711 21.0699 119.784 21.1246 119.857 21.1975C120.002 21.3433 120.002 21.4527 119.857 21.5256ZM119.857 28.635C119.784 28.8173 119.656 28.9449 119.474 29.0178C119.328 29.0907 119.219 29.2183 119.146 29.4006H118.489C118.125 29.4006 117.87 29.3095 117.724 29.1272C117.614 28.9084 117.469 28.6532 117.286 28.3616C117.396 28.1064 117.56 27.8512 117.778 27.5959C118.034 27.3407 118.307 27.2131 118.599 27.2131C118.781 27.2131 118.963 27.2678 119.146 27.3772L119.364 27.3225C119.437 27.5413 119.528 27.76 119.638 27.9788C119.747 28.1611 119.82 28.3798 119.857 28.635ZM119.802 34.7053C119.802 34.8512 119.784 34.9788 119.747 35.0881C119.747 35.1975 119.765 35.3251 119.802 35.4709C119.62 35.5439 119.437 35.6532 119.255 35.7991C119.073 35.9449 118.89 36.0178 118.708 36.0178C118.344 36.0178 118.07 35.9449 117.888 35.7991C117.706 35.6532 117.505 35.4527 117.286 35.1975V34.9788C117.286 34.76 117.268 34.6142 117.232 34.5413C117.232 34.4683 117.232 34.4137 117.232 34.3772C117.268 34.3043 117.341 34.2496 117.45 34.2131C117.56 34.1402 117.742 34.0308 117.997 33.885C118.07 33.8486 118.143 33.8121 118.216 33.7756C118.325 33.7392 118.416 33.7209 118.489 33.7209C118.927 33.7209 119.328 33.9032 119.692 34.2678C119.765 34.4866 119.802 34.6324 119.802 34.7053ZM91.1456 7.08813C91.1456 7.3798 91.0362 7.61678 90.8175 7.79907C90.6352 7.94491 90.4894 8.1272 90.38 8.34595C89.979 8.23657 89.5961 8.18188 89.2316 8.18188C88.9034 7.78084 88.7394 7.43449 88.7394 7.14282C88.7394 6.96053 88.7758 6.79647 88.8487 6.65063C88.9581 6.5048 89.0675 6.3772 89.1769 6.26782C89.3592 6.23136 89.5232 6.19491 89.6691 6.15845C89.8149 6.08553 89.979 6.04907 90.1612 6.04907C90.3435 6.04907 90.4894 6.10376 90.5987 6.21313C90.7446 6.28605 90.8904 6.35897 91.0362 6.43188C91.0362 6.54126 91.0545 6.65063 91.0909 6.76001C91.1274 6.86938 91.1456 6.97876 91.1456 7.08813ZM94.8097 10.9709C94.7732 11.1897 94.755 11.3902 94.755 11.5725C94.7915 11.7548 94.7185 11.9189 94.5362 12.0647C94.354 12.1376 94.1717 12.1923 93.9894 12.2288C93.8435 12.2652 93.6795 12.3199 93.4972 12.3928L92.6769 12.2288C92.6404 12.0829 92.5857 11.9371 92.5128 11.7913C92.4399 11.6454 92.4034 11.4996 92.4034 11.3538C92.4034 11.135 92.4581 10.9345 92.5675 10.7522C92.7133 10.5699 92.8409 10.3876 92.9503 10.2053C93.0597 10.1689 93.1691 10.1324 93.2784 10.0959C93.4243 10.0595 93.5519 10.0413 93.6612 10.0413C93.7706 10.0413 93.8618 10.0595 93.9347 10.0959C94.0441 10.1324 94.1534 10.1689 94.2628 10.2053C94.3357 10.3147 94.4086 10.4423 94.4816 10.5881C94.5909 10.734 94.7003 10.8616 94.8097 10.9709ZM87.0441 2.98657C86.9711 3.20532 86.8618 3.42407 86.7159 3.64282C86.6066 3.82511 86.5519 4.04386 86.5519 4.29907C86.2602 4.48136 85.9868 4.57251 85.7316 4.57251C85.5857 4.57251 85.4399 4.55428 85.2941 4.51782C85.1482 4.48136 85.0024 4.44491 84.8566 4.40845C84.7836 4.22616 84.6925 4.04386 84.5831 3.86157C84.4737 3.67928 84.4008 3.47876 84.3644 3.26001C84.4373 3.07772 84.5284 2.93188 84.6378 2.82251C84.7836 2.71313 84.9295 2.5673 85.0753 2.38501H85.8956C86.1144 2.38501 86.3149 2.47616 86.4972 2.65845C86.6795 2.80428 86.8618 2.91366 87.0441 2.98657ZM98.3097 15.4006C98.2368 15.7288 98.1639 15.984 98.0909 16.1663C98.0545 16.3486 97.9269 16.5673 97.7081 16.8225H97.2706C97.1977 16.8225 97.143 16.8407 97.1066 16.8772C97.0701 16.8772 97.0154 16.8772 96.9425 16.8772C96.7237 16.8772 96.5597 16.8407 96.4503 16.7678C96.3774 16.6949 96.3045 16.6038 96.2316 16.4944C96.1951 16.385 96.1404 16.2756 96.0675 16.1663C96.031 16.0204 95.9399 15.9111 95.7941 15.8381C95.867 15.6194 95.9581 15.4189 96.0675 15.2366C96.2133 15.0178 96.3592 14.8173 96.505 14.635C96.6144 14.5986 96.7237 14.5621 96.8331 14.5256C96.9425 14.4892 97.0519 14.4709 97.1612 14.4709C97.3071 14.4709 97.4529 14.5074 97.5987 14.5803C97.7446 14.6168 97.8904 14.6532 98.0362 14.6897C98.0362 14.9814 98.1274 15.2183 98.3097 15.4006ZM101.864 20.3772C101.864 20.5959 101.7 20.8329 101.372 21.0881C101.044 21.3069 100.789 21.4163 100.607 21.4163C100.388 21.4163 100.169 21.3616 99.9503 21.2522C99.768 21.1064 99.5857 20.997 99.4034 20.9241C99.4034 20.3407 99.604 19.7574 100.005 19.1741C100.442 19.1741 100.734 19.1012 100.88 18.9553C101.062 19.1376 101.263 19.3564 101.482 19.6116C101.737 19.8303 101.864 20.0855 101.864 20.3772ZM105.419 25.1897C105.346 25.372 105.219 25.4996 105.036 25.5725C104.89 25.6454 104.781 25.773 104.708 25.9553H104.216C104.034 25.9553 103.888 25.9371 103.778 25.9006C103.669 25.8277 103.541 25.7548 103.396 25.6819C103.323 25.5725 103.25 25.4814 103.177 25.4084C103.14 25.2991 103.049 25.2079 102.903 25.135V24.8069C103.049 24.5517 103.232 24.3147 103.45 24.0959C103.669 23.8407 103.924 23.7131 104.216 23.7131C104.362 23.7131 104.471 23.7496 104.544 23.8225C104.617 23.8954 104.745 23.8954 104.927 23.8225C105.219 24.26 105.383 24.7157 105.419 25.1897ZM108.591 28.7991C108.664 28.9449 108.7 29.0725 108.7 29.1819C108.7 29.3642 108.591 29.6194 108.372 29.9475C108.153 30.2756 107.935 30.4215 107.716 30.385L107.388 30.3303C107.023 30.148 106.75 29.984 106.567 29.8381C106.422 29.6558 106.349 29.3824 106.349 29.0178C106.531 28.7262 106.677 28.4892 106.786 28.3069C106.896 28.1246 107.133 27.997 107.497 27.9241C107.679 27.997 107.916 28.0881 108.208 28.1975C108.536 28.3069 108.664 28.5074 108.591 28.7991ZM112.146 33.01C112.036 33.3017 111.982 33.5933 111.982 33.885C111.799 33.9579 111.635 34.0855 111.489 34.2678C111.344 34.4501 111.143 34.5413 110.888 34.5413C110.706 34.5413 110.56 34.5048 110.45 34.4319C110.341 34.359 110.195 34.2861 110.013 34.2131C109.94 34.0308 109.849 33.885 109.739 33.7756C109.666 33.6298 109.557 33.4657 109.411 33.2834C109.557 33.1741 109.685 33.0647 109.794 32.9553C109.94 32.8095 110.104 32.7183 110.286 32.6819C110.578 32.4996 110.851 32.4084 111.107 32.4084C111.362 32.4084 111.544 32.4814 111.653 32.6272C111.799 32.7366 111.963 32.8642 112.146 33.01ZM119.528 41.4319C119.528 41.6142 119.474 41.7782 119.364 41.9241C119.291 42.0699 119.237 42.234 119.2 42.4163C119.054 42.4892 118.909 42.5621 118.763 42.635C118.617 42.7444 118.453 42.7991 118.271 42.7991C117.505 42.7991 117.122 42.3433 117.122 41.4319C117.122 40.9579 117.323 40.7027 117.724 40.6663C118.161 40.5933 118.544 40.5204 118.872 40.4475C118.982 40.6298 119.109 40.7756 119.255 40.885C119.437 40.9944 119.528 41.1767 119.528 41.4319ZM115.427 37.6584C115.427 37.8407 115.409 38.0048 115.372 38.1506C115.336 38.2965 115.299 38.4605 115.263 38.6428C115.044 38.6428 114.898 38.6975 114.825 38.8069C114.752 38.8798 114.625 38.9163 114.442 38.9163C114.297 38.9163 114.114 38.8798 113.896 38.8069C113.677 38.734 113.495 38.6611 113.349 38.5881C113.239 38.3329 113.185 38.0413 113.185 37.7131C113.185 37.3486 113.312 37.0933 113.567 36.9475C113.859 36.7652 114.151 36.6741 114.442 36.6741C114.588 36.6741 114.771 36.7105 114.989 36.7834L115.427 37.2209V37.6584ZM87.0441 10.0959C86.8253 10.2782 86.6066 10.4605 86.3878 10.6428C86.1691 10.8251 85.9139 10.9163 85.6222 10.9163C85.4399 10.9163 85.2758 10.8616 85.13 10.7522C85.0206 10.6428 84.8748 10.5699 84.6925 10.5334C84.6925 10.3512 84.6743 10.2053 84.6378 10.0959C84.6014 9.95011 84.5649 9.78605 84.5284 9.60376L84.9112 8.78345C85.0935 8.78345 85.2758 8.76522 85.4581 8.72876C85.6404 8.6923 85.8227 8.67407 86.005 8.67407H86.2237C86.3331 8.78345 86.4425 8.89282 86.5519 9.0022C86.6977 9.07511 86.8253 9.16626 86.9347 9.27563C86.9347 9.34855 86.9165 9.4397 86.88 9.54907C86.88 9.65845 86.88 9.74959 86.88 9.82251C86.9165 9.89543 86.9347 9.95011 86.9347 9.98657C86.9711 9.98657 87.0076 10.023 87.0441 10.0959ZM87.1534 16.7678C87.0076 16.8407 86.88 16.9137 86.7706 16.9866C86.6977 17.0595 86.643 17.1871 86.6066 17.3694H86.0597H85.0753C85.0024 17.2965 84.9295 17.1689 84.8566 16.9866C84.8201 16.8043 84.7654 16.7131 84.6925 16.7131C84.656 16.7131 84.6743 16.5673 84.7472 16.2756C84.7836 16.1298 84.8383 15.984 84.9112 15.8381C84.8748 15.7288 84.893 15.6012 84.9659 15.4553C85.0389 15.3459 85.1118 15.2548 85.1847 15.1819C85.2941 15.0725 85.4764 15.0178 85.7316 15.0178C85.8774 15.0178 86.005 15.0361 86.1144 15.0725C86.2237 15.0725 86.3514 15.0725 86.4972 15.0725C86.6066 15.1819 86.6795 15.3095 86.7159 15.4553C86.7524 15.6012 86.8435 15.6923 86.9894 15.7288C87.0987 16.0569 87.1534 16.4032 87.1534 16.7678ZM87.0441 21.5256C87.0076 21.8173 86.9529 22.1272 86.88 22.4553C86.8435 22.747 86.7342 23.0387 86.5519 23.3303C86.406 23.3303 86.2602 23.3486 86.1144 23.385C85.9685 23.385 85.8227 23.385 85.6769 23.385C85.3123 23.385 85.0024 23.2756 84.7472 23.0569C84.7472 22.9111 84.729 22.7652 84.6925 22.6194C84.656 22.4736 84.6378 22.3095 84.6378 22.1272C84.6378 21.8355 84.7654 21.5803 85.0206 21.3616C85.3123 21.1428 85.604 21.0334 85.8956 21.0334C86.1873 21.0334 86.3878 21.1064 86.4972 21.2522C86.643 21.3616 86.8253 21.4527 87.0441 21.5256ZM87.2081 28.5803C87.2081 28.9814 87.1352 29.273 86.9894 29.4553C86.8435 29.6012 86.6248 29.8199 86.3331 30.1116C86.2237 30.1116 86.1144 30.1116 86.005 30.1116C85.9321 30.0751 85.8409 30.0387 85.7316 30.0022C85.6951 30.0022 85.604 30.0387 85.4581 30.1116C85.3487 30.0022 85.2211 29.8746 85.0753 29.7288C84.9295 29.5465 84.8383 29.3642 84.8019 29.1819C84.8019 29.109 84.7836 29.0361 84.7472 28.9631C84.7472 28.8902 84.7472 28.7991 84.7472 28.6897C84.7472 28.5439 84.7654 28.4163 84.8019 28.3069C84.8748 28.1975 84.9112 28.0699 84.9112 27.9241C85.13 27.8876 85.3305 27.8512 85.5128 27.8147C85.7316 27.7782 85.9321 27.76 86.1144 27.76C86.2967 27.76 86.4972 27.7965 86.7159 27.8694C86.7889 27.9788 86.8618 28.1064 86.9347 28.2522C87.0076 28.3616 87.0987 28.4709 87.2081 28.5803ZM87.1534 35.4163V35.8538C86.8982 36.1819 86.6612 36.3824 86.4425 36.4553C86.2237 36.4918 85.9139 36.51 85.5128 36.51C85.4034 36.51 85.2941 36.4918 85.1847 36.4553C85.1118 36.4189 85.0389 36.3824 84.9659 36.3459V35.7991C84.893 35.6532 84.8566 35.5621 84.8566 35.5256C85.0389 35.1246 85.1847 34.8147 85.2941 34.5959C85.4034 34.3772 85.7133 34.2678 86.2237 34.2678C86.5154 34.2678 86.7342 34.3954 86.88 34.6506C87.0623 34.8694 87.1534 35.1246 87.1534 35.4163ZM87.2628 42.0881C87.1534 42.2704 87.0623 42.4527 86.9894 42.635C86.9529 42.8173 86.8982 42.9996 86.8253 43.1819C86.6795 43.2183 86.5519 43.2366 86.4425 43.2366C86.3331 43.273 86.2055 43.2913 86.0597 43.2913C85.9139 43.2913 85.768 43.273 85.6222 43.2366C85.5128 43.2366 85.3852 43.2366 85.2394 43.2366C85.1665 43.0543 85.0753 42.8538 84.9659 42.635C84.8566 42.4163 84.8019 42.1975 84.8019 41.9788C84.8019 41.9058 84.8019 41.8694 84.8019 41.8694C84.8383 41.8329 84.8566 41.7782 84.8566 41.7053C84.9659 41.523 85.1482 41.359 85.4034 41.2131C85.6951 41.0308 85.9321 40.9397 86.1144 40.9397C86.3696 40.9397 86.6248 41.0673 86.88 41.3225C87.1352 41.5413 87.2628 41.7965 87.2628 42.0881ZM159.929 2.8772C159.929 2.98657 159.893 3.15063 159.82 3.36938L159.218 3.91626H158.89C158.744 3.91626 158.599 3.91626 158.453 3.91626C158.343 3.8798 158.198 3.86157 158.015 3.86157C157.906 3.67928 157.797 3.49699 157.687 3.3147C157.614 3.13241 157.578 2.93188 157.578 2.71313C157.942 2.1298 158.343 1.83813 158.781 1.83813C158.89 1.83813 159 1.85636 159.109 1.89282C159.218 1.89282 159.31 1.89282 159.382 1.89282C159.528 2.03866 159.656 2.20272 159.765 2.38501C159.875 2.53084 159.929 2.69491 159.929 2.8772ZM154.625 2.8772C154.625 3.09595 154.57 3.29647 154.461 3.47876C154.351 3.62459 154.242 3.78866 154.132 3.97095C153.95 3.97095 153.786 3.98918 153.64 4.02563C153.531 4.02563 153.403 4.02563 153.257 4.02563C153.112 4.02563 152.929 3.98918 152.711 3.91626L152.054 3.20532C152.2 3.05949 152.255 2.96834 152.218 2.93188C152.218 2.89543 152.218 2.78605 152.218 2.60376C152.218 2.49438 152.237 2.40324 152.273 2.33032L152.82 1.78345C153.039 1.78345 153.239 1.78345 153.422 1.78345C153.64 1.78345 153.859 1.80168 154.078 1.83813C154.151 1.98397 154.224 2.1298 154.297 2.27563C154.406 2.38501 154.515 2.49438 154.625 2.60376V2.8772ZM149.375 2.82251C149.338 3.22355 149.192 3.53345 148.937 3.7522C148.682 3.93449 148.354 4.02563 147.953 4.02563C147.88 4.02563 147.698 3.98918 147.406 3.91626C147.369 3.8798 147.242 3.7522 147.023 3.53345C146.841 3.27824 146.786 3.11418 146.859 3.04126C146.896 3.0048 146.914 2.93188 146.914 2.82251C146.914 2.5673 147.023 2.33032 147.242 2.11157C147.497 1.85636 147.752 1.72876 148.007 1.72876C148.19 1.72876 148.336 1.76522 148.445 1.83813C148.554 1.91105 148.7 1.96574 148.882 2.0022C148.992 2.14803 149.065 2.29386 149.101 2.4397C149.174 2.58553 149.265 2.71313 149.375 2.82251ZM143.742 3.26001C143.596 3.40584 143.468 3.49699 143.359 3.53345V3.80688C143.213 3.8798 143.049 3.93449 142.867 3.97095C142.721 4.00741 142.557 4.08032 142.375 4.1897C142.192 4.08032 142.01 3.97095 141.828 3.86157C141.646 3.71574 141.445 3.58813 141.226 3.47876C141.226 3.29647 141.208 3.11418 141.172 2.93188C141.172 2.74959 141.172 2.5673 141.172 2.38501C141.39 2.27563 141.591 2.14803 141.773 2.0022C141.992 1.85636 142.211 1.71053 142.429 1.5647L143.304 1.94751C143.377 2.20272 143.468 2.42147 143.578 2.60376C143.687 2.78605 143.742 3.0048 143.742 3.26001ZM138.382 2.98657C138.382 3.20532 138.328 3.33293 138.218 3.36938C138.146 3.55168 138.073 3.67928 138 3.7522C137.927 3.78866 137.854 3.89803 137.781 4.08032H137.234C136.614 4.08032 136.231 3.97095 136.086 3.7522C135.976 3.53345 135.885 3.16886 135.812 2.65845C135.849 2.47616 135.903 2.34855 135.976 2.27563C136.086 2.20272 136.159 2.07511 136.195 1.89282C136.377 1.81991 136.523 1.76522 136.632 1.72876C136.778 1.6923 136.942 1.67407 137.125 1.67407C137.307 1.67407 137.453 1.71053 137.562 1.78345C137.708 1.81991 137.854 1.85636 138 1.89282C138 2.14803 138.054 2.34855 138.164 2.49438C138.31 2.60376 138.382 2.76782 138.382 2.98657ZM143.906 9.16626C143.724 9.45793 143.56 9.73136 143.414 9.98657C143.268 10.2053 143.013 10.3876 142.648 10.5334C142.466 10.4605 142.338 10.4423 142.265 10.4788C142.229 10.4788 142.119 10.4788 141.937 10.4788L141.718 10.3694C141.573 10.1871 141.463 10.023 141.39 9.8772C141.317 9.73136 141.208 9.5673 141.062 9.38501C141.281 9.16626 141.39 8.91105 141.39 8.61938C141.755 8.36418 142.119 8.23657 142.484 8.23657C142.593 8.23657 142.685 8.2548 142.757 8.29126C142.867 8.29126 142.976 8.30949 143.086 8.34595C143.195 8.45532 143.25 8.5647 143.25 8.67407C143.286 8.74699 143.323 8.81991 143.359 8.89282C143.396 8.96574 143.45 9.02043 143.523 9.05688C143.596 9.09334 143.724 9.1298 143.906 9.16626ZM132.804 3.36938C132.513 3.66105 132.257 3.84334 132.039 3.91626C131.82 3.95272 131.51 3.97095 131.109 3.97095C130.744 3.97095 130.507 3.80688 130.398 3.47876C130.289 3.11418 130.234 2.78605 130.234 2.49438C130.453 2.31209 130.653 2.1298 130.836 1.94751C131.054 1.76522 131.31 1.6923 131.601 1.72876L131.875 1.5647C132.021 1.78345 132.148 1.94751 132.257 2.05688C132.367 2.16626 132.458 2.27563 132.531 2.38501C132.604 2.49438 132.659 2.62199 132.695 2.76782C132.731 2.91366 132.768 3.11418 132.804 3.36938ZM143.906 15.9475C143.833 16.0204 143.76 16.148 143.687 16.3303C143.614 16.5126 143.56 16.6402 143.523 16.7131C143.414 16.7861 143.286 16.859 143.14 16.9319C143.031 17.0048 142.922 17.0959 142.812 17.2053C142.63 17.0959 142.484 17.0413 142.375 17.0413C142.265 17.0413 142.119 17.023 141.937 16.9866C141.791 16.8043 141.682 16.6949 141.609 16.6584C141.573 16.622 141.445 16.5855 141.226 16.5491C141.299 16.1845 141.39 15.7834 141.5 15.3459C141.609 14.872 141.919 14.635 142.429 14.635C142.867 14.635 143.159 14.7808 143.304 15.0725C143.487 15.3642 143.687 15.6558 143.906 15.9475ZM127.062 2.98657C127.062 3.24178 126.953 3.51522 126.734 3.80688C126.588 3.8798 126.442 3.93449 126.297 3.97095C126.187 4.00741 126.041 4.02563 125.859 4.02563C125.531 4.02563 125.294 3.93449 125.148 3.7522C125.002 3.53345 124.838 3.29647 124.656 3.04126C124.729 2.67668 124.765 2.40324 124.765 2.22095C124.948 2.11157 125.148 2.02043 125.367 1.94751C125.586 1.83813 125.804 1.78345 126.023 1.78345C126.132 1.78345 126.242 1.80168 126.351 1.83813C126.497 1.87459 126.625 1.89282 126.734 1.89282C126.807 2.07511 126.88 2.25741 126.953 2.4397C127.026 2.62199 127.062 2.80428 127.062 2.98657ZM143.797 22.4006C143.651 22.6923 143.505 22.9657 143.359 23.2209C143.25 23.4762 142.994 23.6038 142.593 23.6038C142.411 23.6038 142.265 23.5855 142.156 23.5491C142.047 23.4762 141.919 23.4397 141.773 23.4397C141.627 23.2939 141.536 23.148 141.5 23.0022C141.463 22.8564 141.354 22.747 141.172 22.6741C141.172 22.3824 141.208 22.1637 141.281 22.0178C141.354 21.872 141.481 21.6897 141.664 21.4709L142.648 21.1428C142.83 21.3251 142.94 21.4345 142.976 21.4709C143.049 21.5074 143.231 21.5621 143.523 21.635C143.523 21.8902 143.523 22.0361 143.523 22.0725C143.56 22.109 143.651 22.2183 143.797 22.4006ZM143.742 28.8538C143.742 29.109 143.687 29.2366 143.578 29.2366C143.505 29.2366 143.505 29.3642 143.578 29.6194C143.396 29.7288 143.213 29.8381 143.031 29.9475C142.885 30.0569 142.703 30.1116 142.484 30.1116C142.375 30.1116 142.265 30.0933 142.156 30.0569C142.047 30.0204 141.919 29.984 141.773 29.9475C141.737 29.8746 141.627 29.7288 141.445 29.51C141.263 29.2548 141.172 29.0907 141.172 29.0178C141.172 28.7262 141.317 28.4527 141.609 28.1975C141.937 27.9423 142.247 27.8147 142.539 27.8147C142.685 27.8147 142.867 27.9423 143.086 28.1975C143.341 28.4163 143.56 28.5803 143.742 28.6897V28.8538ZM143.523 35.7444C143.45 35.9267 143.359 36.0725 143.25 36.1819C143.14 36.2913 143.049 36.4371 142.976 36.6194L141.664 36.51C141.554 36.2548 141.409 36.0907 141.226 36.0178C141.08 35.9084 140.989 35.7079 140.953 35.4163C141.135 35.1246 141.299 34.8694 141.445 34.6506C141.591 34.3954 141.864 34.2678 142.265 34.2678C142.703 34.2678 143.067 34.4501 143.359 34.8147L143.523 35.7444ZM143.742 42.0334C143.742 42.1064 143.705 42.2522 143.632 42.4709C143.523 42.5803 143.359 42.7079 143.14 42.8538C142.958 43.0361 142.776 43.1272 142.593 43.1272C142.411 43.1272 142.284 43.0907 142.211 43.0178C142.174 42.9449 142.047 42.9267 141.828 42.9631C141.682 42.7808 141.536 42.6168 141.39 42.4709C141.281 42.2887 141.226 42.0699 141.226 41.8147C141.226 41.5595 141.317 41.3772 141.5 41.2678C141.682 41.122 141.828 40.9579 141.937 40.7756H142.375C142.557 40.7756 142.83 40.8121 143.195 40.885C143.268 41.0673 143.377 41.2496 143.523 41.4319C143.669 41.5777 143.742 41.7782 143.742 42.0334ZM181.299 2.49438C181.299 2.78605 181.244 3.02303 181.135 3.20532C181.026 3.38761 180.934 3.62459 180.862 3.91626H179.987C179.768 3.77043 179.567 3.67928 179.385 3.64282C179.203 3.60636 179.112 3.42407 179.112 3.09595C179.112 2.95011 179.13 2.82251 179.166 2.71313C179.203 2.5673 179.221 2.4397 179.221 2.33032C179.44 2.0022 179.75 1.83813 180.151 1.83813C180.296 1.83813 180.515 1.87459 180.807 1.94751C180.88 2.09334 180.934 2.20272 180.971 2.27563C181.007 2.34855 181.117 2.42147 181.299 2.49438ZM184.362 7.79907C184.289 7.94491 184.161 8.1272 183.979 8.34595C183.796 8.52824 183.687 8.67407 183.651 8.78345L183.377 8.89282C183.086 8.89282 182.849 8.83813 182.666 8.72876C182.484 8.61938 182.265 8.47355 182.01 8.29126C182.083 7.99959 182.156 7.6897 182.229 7.36157C182.338 6.99699 182.593 6.8147 182.994 6.8147C183.359 6.8147 183.651 6.88761 183.869 7.03345C184.125 7.14282 184.289 7.39803 184.362 7.79907ZM186.877 14.8538L186.221 15.6194C186.002 15.6923 185.856 15.7288 185.783 15.7288C185.601 15.7288 185.419 15.6923 185.237 15.6194C185.091 15.5465 184.927 15.4736 184.744 15.4006C184.708 15.2913 184.671 15.1819 184.635 15.0725C184.599 14.9631 184.58 14.8355 184.58 14.6897C184.58 14.6532 184.617 14.5256 184.69 14.3069C185.054 13.9423 185.528 13.76 186.112 13.76C186.403 14.0517 186.658 14.4163 186.877 14.8538ZM178.674 8.83813C178.674 9.1298 178.546 9.38501 178.291 9.60376C178.036 9.78605 177.763 9.8772 177.471 9.8772C177.325 9.8772 177.179 9.84074 177.033 9.76782C176.961 9.80428 176.888 9.84074 176.815 9.8772C176.742 9.8772 176.669 9.89543 176.596 9.93188C176.559 9.71313 176.505 9.49438 176.432 9.27563C176.395 9.02043 176.377 8.78345 176.377 8.5647C176.377 8.34595 176.432 8.20011 176.541 8.1272C176.687 8.01782 176.833 7.87199 176.979 7.6897C177.161 7.6897 177.362 7.70793 177.58 7.74438C177.799 7.74438 178 7.74438 178.182 7.74438C178.255 7.92668 178.346 8.10897 178.455 8.29126C178.601 8.43709 178.674 8.61938 178.674 8.83813ZM189.447 20.7053C189.447 20.8512 189.411 20.997 189.338 21.1428C189.302 21.2887 189.283 21.4345 189.283 21.5803C189.101 21.6168 188.937 21.6897 188.791 21.7991C188.645 21.872 188.481 21.9084 188.299 21.9084C188.117 21.9084 187.934 21.8538 187.752 21.7444C187.57 21.5986 187.388 21.5074 187.205 21.4709C187.205 21.398 187.224 21.3433 187.26 21.3069C187.296 21.234 187.315 21.1611 187.315 21.0881C187.315 21.0152 187.296 20.9423 187.26 20.8694C187.224 20.76 187.187 20.6689 187.151 20.5959C187.333 20.3772 187.533 20.1767 187.752 19.9944C187.971 19.7756 188.226 19.6663 188.518 19.6663C188.773 19.6663 188.992 19.7756 189.174 19.9944C189.356 20.2131 189.447 20.4501 189.447 20.7053ZM191.143 26.8303C191.143 27.3043 190.997 27.5777 190.705 27.6506C190.45 27.6871 190.158 27.7965 189.83 27.9788C189.684 27.8329 189.539 27.7236 189.393 27.6506C189.247 27.5777 189.119 27.4501 189.01 27.2678C188.974 27.0855 188.937 26.9032 188.901 26.7209C188.864 26.5022 188.809 26.3017 188.737 26.1194C188.955 26.01 189.174 25.9189 189.393 25.8459C189.648 25.7366 189.921 25.6819 190.213 25.6819C190.578 25.6819 190.815 25.7913 190.924 26.01C191.07 26.2288 191.143 26.5022 191.143 26.8303ZM193.494 31.2053C193.494 31.497 193.44 31.8069 193.33 32.135C193.148 32.2079 192.966 32.2808 192.783 32.3538C192.601 32.3902 192.419 32.4084 192.237 32.4084C191.617 32.4084 191.307 32.0986 191.307 31.4788C191.307 31.3694 191.307 31.2782 191.307 31.2053C191.343 31.0959 191.362 31.0048 191.362 30.9319L191.908 30.2756C192.091 30.3486 192.255 30.385 192.401 30.385C192.583 30.385 192.765 30.4032 192.947 30.4397C193.203 30.6949 193.385 30.9501 193.494 31.2053ZM175.776 14.9084C175.557 15.1272 175.302 15.3277 175.01 15.51C174.755 15.6923 174.463 15.7834 174.135 15.7834C173.953 15.7834 173.752 15.6741 173.533 15.4553C173.424 15.2001 173.369 14.9267 173.369 14.635C173.369 14.5256 173.388 14.4163 173.424 14.3069C173.461 14.1975 173.479 14.0881 173.479 13.9788C173.625 13.9058 173.752 13.8329 173.862 13.76C174.007 13.6506 174.171 13.5959 174.354 13.5959C174.5 13.5959 174.627 13.6506 174.737 13.76C174.882 13.76 175.01 13.7782 175.119 13.8147C175.229 13.8512 175.338 13.8694 175.447 13.8694C175.52 14.0881 175.557 14.2704 175.557 14.4163C175.593 14.5621 175.666 14.7262 175.776 14.9084ZM185.783 27.9241C185.783 28.2887 185.619 28.5803 185.291 28.7991C185 28.8355 184.653 28.9449 184.252 29.1272L183.377 28.5256C183.45 28.3798 183.468 28.2522 183.432 28.1428C183.432 27.997 183.432 27.8329 183.432 27.6506C183.614 27.3225 183.76 27.1038 183.869 26.9944C183.979 26.885 184.07 26.8303 184.143 26.8303C184.252 26.7939 184.343 26.7756 184.416 26.7756C184.526 26.7392 184.635 26.6663 184.744 26.5569L185.565 26.9944V27.2678C185.565 27.3772 185.601 27.4866 185.674 27.5959C185.747 27.6689 185.783 27.7782 185.783 27.9241ZM195.135 37.1116C195.026 37.5126 194.843 37.8225 194.588 38.0413C194.369 38.2236 194.059 38.3694 193.658 38.4788C193.476 38.2965 193.294 38.1506 193.112 38.0413C192.966 37.8954 192.82 37.7314 192.674 37.5491C192.711 37.4032 192.747 37.2756 192.783 37.1663C192.82 37.0204 192.838 36.8564 192.838 36.6741C193.02 36.6012 193.148 36.51 193.221 36.4006C193.294 36.2913 193.403 36.1819 193.549 36.0725C193.768 36.1454 193.987 36.2001 194.205 36.2366C194.424 36.273 194.643 36.3459 194.862 36.4553C194.862 36.6376 194.88 36.7652 194.916 36.8381L195.135 37.1116ZM197.049 42.635C196.976 42.7808 196.867 42.9084 196.721 43.0178C196.612 43.1272 196.502 43.2183 196.393 43.2913C196.101 43.2183 195.846 43.1819 195.627 43.1819C195.408 43.1819 195.208 43.1637 195.026 43.1272C194.989 42.9449 194.934 42.7626 194.862 42.5803C194.825 42.398 194.807 42.2157 194.807 42.0334C194.807 41.8147 194.934 41.6324 195.19 41.4866C195.445 41.3407 195.682 41.2678 195.901 41.2678C196.192 41.2678 196.502 41.3225 196.83 41.4319C196.903 41.6142 196.94 41.8147 196.94 42.0334C196.976 42.2157 197.013 42.4163 197.049 42.635ZM181.026 27.5959C181.026 27.7782 181.007 27.9423 180.971 28.0881C180.971 28.234 180.971 28.398 180.971 28.5803L180.697 28.7444C180.296 28.8902 179.859 28.9631 179.385 28.9631C179.093 28.6715 178.947 28.4345 178.947 28.2522C178.947 28.0334 178.911 27.7418 178.838 27.3772C179.239 26.9762 179.677 26.7756 180.151 26.7756H180.533C180.606 26.9215 180.679 27.0673 180.752 27.2131C180.825 27.359 180.916 27.4866 181.026 27.5959ZM172.877 21.7444C172.695 21.8538 172.494 21.9814 172.276 22.1272C172.093 22.2366 171.893 22.2913 171.674 22.2913C171.382 22.109 171.145 21.9449 170.963 21.7991C170.781 21.6532 170.69 21.4163 170.69 21.0881L170.58 20.76C170.981 20.5048 171.255 20.3772 171.401 20.3772C171.583 20.3772 171.875 20.359 172.276 20.3225L172.494 20.4319C172.677 20.6142 172.768 20.8329 172.768 21.0881C172.768 21.3069 172.804 21.5256 172.877 21.7444ZM176.268 28.0881L175.666 28.8538C175.52 28.9267 175.375 28.9631 175.229 28.9631C175.083 28.9631 174.937 28.9449 174.791 28.9084C174.682 28.872 174.554 28.8355 174.408 28.7991C174.336 28.6532 174.281 28.5256 174.244 28.4163C174.208 28.2704 174.099 28.1611 173.916 28.0881C173.989 27.76 174.099 27.523 174.244 27.3772C174.39 27.1949 174.591 26.9944 174.846 26.7756C175.028 26.8486 175.211 26.885 175.393 26.885C175.575 26.885 175.757 26.9032 175.94 26.9397C176.013 27.122 176.049 27.3225 176.049 27.5413C176.086 27.7236 176.158 27.9058 176.268 28.0881ZM170.526 27.1584C170.38 27.3772 170.234 27.5959 170.088 27.8147C169.942 28.0334 169.724 28.1428 169.432 28.1428C169.177 28.1428 168.903 28.0334 168.612 27.8147C168.356 27.5959 168.229 27.359 168.229 27.1038C168.229 26.885 168.32 26.648 168.502 26.3928C168.684 26.1012 168.903 25.9553 169.158 25.9553C169.341 25.9553 169.487 25.9918 169.596 26.0647C169.742 26.1376 169.906 26.1923 170.088 26.2288C170.234 26.3746 170.307 26.5204 170.307 26.6663C170.343 26.8121 170.416 26.9762 170.526 27.1584ZM168.119 32.4084C168.119 32.7366 167.974 33.01 167.682 33.2288C167.39 33.4111 167.099 33.5387 166.807 33.6116C166.552 33.3928 166.242 33.2288 165.877 33.1194C165.877 32.9736 165.859 32.8642 165.822 32.7913C165.786 32.6819 165.768 32.5543 165.768 32.4084C165.768 32.2262 165.841 32.0439 165.987 31.8616C166.132 31.6793 166.26 31.5334 166.369 31.4241C166.88 31.4241 167.336 31.497 167.737 31.6428C167.809 31.7887 167.864 31.9163 167.901 32.0256C167.937 32.135 167.992 32.2626 168.065 32.4084H168.119ZM165.822 37.9866C165.822 38.2053 165.713 38.4241 165.494 38.6428C165.276 38.8251 165.057 38.9163 164.838 38.9163C164.692 38.9163 164.546 38.8433 164.401 38.6975C164.218 38.6246 164.054 38.5152 163.908 38.3694C163.763 38.2236 163.69 38.0595 163.69 37.8772V37.4944C163.799 37.385 163.89 37.3121 163.963 37.2756C164.072 37.2027 164.145 37.0751 164.182 36.8928H164.674C164.856 36.8928 165.02 36.9293 165.166 37.0022C165.312 37.0387 165.458 37.0933 165.604 37.1663C165.75 37.5308 165.822 37.8043 165.822 37.9866ZM164.237 42.2522C164.237 42.3616 164.2 42.5256 164.127 42.7444C164.018 42.8538 163.908 42.9084 163.799 42.9084C163.69 42.9084 163.635 42.9996 163.635 43.1819H163.033C162.742 43.1819 162.468 43.0907 162.213 42.9084C161.994 42.7262 161.885 42.4892 161.885 42.1975C161.885 41.76 162.104 41.359 162.541 40.9944C162.614 41.0308 162.705 41.0673 162.815 41.1038C162.924 41.1402 163.015 41.1584 163.088 41.1584C163.161 41.1584 163.216 41.1584 163.252 41.1584C163.289 41.122 163.343 41.1038 163.416 41.1038C163.599 41.1038 163.744 41.1584 163.854 41.2678C163.963 41.3407 164.072 41.4137 164.182 41.4866C164.182 41.6324 164.182 41.7782 164.182 41.9241C164.218 42.0334 164.237 42.1428 164.237 42.2522ZM233.895 7.6897C233.895 8.23657 233.731 8.60116 233.403 8.78345C233.111 8.92928 232.729 9.0022 232.255 9.0022C232.182 8.74699 232.072 8.58293 231.927 8.51001C231.781 8.43709 231.708 8.2548 231.708 7.96313C231.708 7.63501 231.817 7.36157 232.036 7.14282C232.291 6.88761 232.583 6.76001 232.911 6.76001C233.166 6.76001 233.385 6.85116 233.567 7.03345C233.786 7.21574 233.895 7.43449 233.895 7.6897ZM230.778 5.17407L230.723 5.9397C230.505 6.08553 230.322 6.19491 230.177 6.26782C230.067 6.34074 229.94 6.46834 229.794 6.65063C229.429 6.54126 229.137 6.39543 228.919 6.21313C228.846 6.0673 228.755 5.9397 228.645 5.83032C228.572 5.68449 228.536 5.52043 228.536 5.33813C228.536 5.26522 228.572 5.15584 228.645 5.01001C228.828 4.82772 229.028 4.68188 229.247 4.57251C229.466 4.46313 229.721 4.40845 230.012 4.40845H230.45C230.45 4.70011 230.486 4.84595 230.559 4.84595C230.632 4.84595 230.705 4.95532 230.778 5.17407ZM227.278 2.65845C227.169 2.95011 227.096 3.20532 227.059 3.42407C227.023 3.64282 226.859 3.84334 226.567 4.02563H225.583C225.473 3.8798 225.382 3.73397 225.309 3.58813C225.273 3.4423 225.2 3.3147 225.091 3.20532C225.164 2.84074 225.236 2.58553 225.309 2.4397L225.473 1.94751C225.656 1.91105 225.783 1.89282 225.856 1.89282C225.929 1.89282 226.057 1.89282 226.239 1.89282C226.494 1.89282 226.677 1.98397 226.786 2.16626C226.932 2.31209 227.096 2.47616 227.278 2.65845ZM222.684 1.83813C222.684 2.16626 222.575 2.4397 222.356 2.65845C222.174 2.8772 221.919 2.98657 221.591 2.98657C221.299 2.98657 221.044 2.91366 220.825 2.76782C220.643 2.58553 220.552 2.34855 220.552 2.05688C220.552 1.72876 220.716 1.47355 221.044 1.29126C221.372 1.07251 221.682 0.963135 221.973 0.963135H222.356C222.429 1.10897 222.502 1.2548 222.575 1.40063C222.648 1.51001 222.684 1.65584 222.684 1.83813ZM217.817 2.0022C217.708 2.14803 217.653 2.23918 217.653 2.27563C217.69 2.27563 217.708 2.36678 217.708 2.54907C217.708 2.76782 217.635 2.95011 217.489 3.09595C217.38 3.20532 217.289 3.35116 217.216 3.53345C217.033 3.46053 216.833 3.4423 216.614 3.47876C216.395 3.51522 216.195 3.47876 216.012 3.36938C215.903 3.15063 215.794 3.0048 215.684 2.93188C215.575 2.85897 215.52 2.67668 215.52 2.38501C215.52 1.91105 215.739 1.60116 216.177 1.45532C216.614 1.30949 217.015 1.21834 217.38 1.18188C217.38 1.47355 217.398 1.63761 217.434 1.67407C217.507 1.71053 217.635 1.81991 217.817 2.0022ZM212.567 4.46313C212.494 4.64543 212.348 4.86418 212.13 5.11938C211.911 5.37459 211.692 5.5022 211.473 5.5022C211.401 5.5022 211.236 5.46574 210.981 5.39282C210.762 5.31991 210.617 5.26522 210.544 5.22876C210.471 5.08293 210.38 4.95532 210.27 4.84595C210.197 4.70011 210.161 4.53605 210.161 4.35376C210.197 4.28084 210.252 4.15324 210.325 3.97095C210.398 3.7522 210.471 3.60636 210.544 3.53345C210.69 3.42407 210.799 3.36938 210.872 3.36938C210.945 3.36938 210.981 3.26001 210.981 3.04126C211.2 3.07772 211.419 3.15063 211.637 3.26001C211.856 3.36938 212.075 3.42407 212.294 3.42407C212.33 3.60636 212.348 3.80688 212.348 4.02563C212.385 4.20793 212.458 4.35376 212.567 4.46313ZM208.575 7.96313C208.429 8.2548 208.265 8.51001 208.083 8.72876C207.937 8.94751 207.718 9.11157 207.427 9.22095C207.244 9.14803 207.062 9.09334 206.88 9.05688C206.734 9.02043 206.588 8.92928 206.442 8.78345C206.296 8.41886 206.223 8.14543 206.223 7.96313C206.223 7.67147 206.315 7.47095 206.497 7.36157C206.716 7.2522 206.898 7.08813 207.044 6.86938C207.664 7.08813 208.174 7.45272 208.575 7.96313ZM234.169 36.9475C234.169 37.1663 234.114 37.385 234.005 37.6038C233.822 37.7131 233.658 37.8407 233.512 37.9866C233.367 38.0959 233.184 38.1506 232.966 38.1506C232.674 38.1506 232.419 38.023 232.2 37.7678C231.981 37.5126 231.872 37.2392 231.872 36.9475C231.872 36.5829 231.945 36.3459 232.091 36.2366C232.273 36.1272 232.492 35.9814 232.747 35.7991C233.002 35.8355 233.203 35.8538 233.348 35.8538C233.531 35.8173 233.768 35.8538 234.059 35.9631C234.059 36.1454 234.078 36.3095 234.114 36.4553C234.151 36.6012 234.169 36.7652 234.169 36.9475ZM206.114 12.4475C206.114 12.7756 205.986 13.0491 205.731 13.2678C205.512 13.4501 205.239 13.5413 204.911 13.5413C204.255 13.5413 203.927 13.2131 203.927 12.5569C203.927 12.3746 203.945 12.1741 203.981 11.9553C204.054 11.7366 204.127 11.5361 204.2 11.3538H204.747C205.111 11.3538 205.421 11.4449 205.677 11.6272C205.968 11.773 206.114 12.0465 206.114 12.4475ZM230.614 40.2834C230.614 40.4657 230.559 40.6298 230.45 40.7756C230.377 40.9215 230.304 41.0855 230.231 41.2678C230.049 41.2678 229.885 41.2861 229.739 41.3225C229.63 41.359 229.484 41.3772 229.302 41.3772C229.01 41.3772 228.773 41.2861 228.591 41.1038C228.445 40.9215 228.372 40.6845 228.372 40.3928C228.372 40.1012 228.445 39.8459 228.591 39.6272C228.773 39.4084 229.01 39.2991 229.302 39.2991C229.593 39.2991 229.885 39.3902 230.177 39.5725C230.468 39.7548 230.614 39.9918 230.614 40.2834ZM203.872 16.9866C203.872 17.3512 203.726 17.7157 203.434 18.0803C203.252 18.1532 203.052 18.2079 202.833 18.2444C202.614 18.2808 202.395 18.3538 202.177 18.4631C202.067 18.1715 201.94 17.9345 201.794 17.7522C201.648 17.5334 201.575 17.2782 201.575 16.9866C201.684 16.8772 201.867 16.6949 202.122 16.4397C202.414 16.1845 202.651 16.0569 202.833 16.0569C202.906 16.0569 202.979 16.0751 203.052 16.1116C203.161 16.1116 203.252 16.1116 203.325 16.1116L203.872 16.9866ZM226.239 42.4163V42.9084C226.093 43.0178 225.929 43.1272 225.747 43.2366C225.601 43.3459 225.437 43.4006 225.255 43.4006C224.963 43.4006 224.726 43.3095 224.544 43.1272C224.361 42.9449 224.197 42.7262 224.052 42.4709C224.052 42.1793 224.088 42.0334 224.161 42.0334C224.27 41.997 224.289 41.8329 224.216 41.5413C224.434 41.4683 224.562 41.4137 224.598 41.3772C224.671 41.3043 224.799 41.1767 224.981 40.9944C225.164 41.0673 225.346 41.1584 225.528 41.2678C225.71 41.3772 225.911 41.4319 226.13 41.4319C226.166 41.6142 226.184 41.7782 226.184 41.9241C226.221 42.0699 226.239 42.234 226.239 42.4163ZM203.762 22.6741C203.762 22.8564 203.726 23.1298 203.653 23.4944C203.434 23.6767 203.252 23.8043 203.106 23.8772C202.96 23.9501 202.742 23.9866 202.45 23.9866C201.83 23.9866 201.52 23.6767 201.52 23.0569C201.52 22.7288 201.611 22.4371 201.794 22.1819C201.976 21.8902 202.249 21.7444 202.614 21.7444C202.906 21.7444 203.161 21.8355 203.38 22.0178C203.635 22.1637 203.762 22.3824 203.762 22.6741ZM220.661 43.3459L220.387 43.7288H220.059C219.95 43.7288 219.841 43.7288 219.731 43.7288C219.658 43.7652 219.567 43.7834 219.458 43.7834C219.312 43.6376 219.184 43.4918 219.075 43.3459C218.966 43.2001 218.838 43.0361 218.692 42.8538C218.765 42.5986 218.856 42.3616 218.966 42.1428C219.111 41.9241 219.276 41.7236 219.458 41.5413C219.64 41.5413 219.786 41.5595 219.895 41.5959C220.041 41.5959 220.205 41.5959 220.387 41.5959C220.57 41.8876 220.77 42.1246 220.989 42.3069C220.916 42.5256 220.88 42.6715 220.88 42.7444C220.88 43.0361 220.843 43.2183 220.77 43.2913C220.734 43.3277 220.697 43.3459 220.661 43.3459ZM204.747 27.8694C204.747 28.1611 204.692 28.3798 204.583 28.5256C204.51 28.6715 204.419 28.872 204.309 29.1272C204.164 29.2001 204.036 29.2548 203.927 29.2913C203.817 29.3277 203.69 29.3459 203.544 29.3459C203.289 29.3459 203.052 29.2548 202.833 29.0725C202.651 28.8902 202.486 28.7079 202.341 28.5256C202.414 28.3433 202.45 28.1428 202.45 27.9241C202.45 27.7782 202.486 27.6324 202.559 27.4866C202.742 27.4137 202.942 27.3407 203.161 27.2678C203.38 27.1584 203.562 27.1038 203.708 27.1038C203.781 27.1038 203.945 27.2131 204.2 27.4319C204.492 27.6506 204.674 27.7965 204.747 27.8694ZM215.684 41.8694C215.611 42.0517 215.539 42.1975 215.466 42.3069C215.429 42.3798 215.429 42.5074 215.466 42.6897C215.283 42.7991 215.083 42.9084 214.864 43.0178C214.645 43.1272 214.427 43.1819 214.208 43.1819C213.953 43.1819 213.716 43.0907 213.497 42.9084C213.278 42.7262 213.169 42.5074 213.169 42.2522C213.169 42.0334 213.278 41.7782 213.497 41.4866C213.716 41.1949 213.934 41.0126 214.153 40.9397C214.226 41.0126 214.299 41.0491 214.372 41.0491C214.445 41.0126 214.536 40.9944 214.645 40.9944H214.973C215.083 41.2131 215.174 41.3772 215.247 41.4866C215.356 41.5595 215.502 41.6871 215.684 41.8694ZM206.552 33.9397C206.479 34.3043 206.351 34.6142 206.169 34.8694C205.986 35.1246 205.695 35.2522 205.294 35.2522H204.856C204.783 35.1064 204.692 34.9788 204.583 34.8694C204.473 34.7236 204.401 34.5777 204.364 34.4319C204.291 34.2131 204.255 34.0855 204.255 34.0491C204.255 33.9397 204.273 33.8486 204.309 33.7756C204.346 33.6663 204.382 33.5751 204.419 33.5022C204.783 33.247 205.148 33.1194 205.512 33.1194C205.622 33.1194 205.786 33.1558 206.005 33.2288C206.078 33.3746 206.151 33.5022 206.223 33.6116C206.296 33.7209 206.406 33.8303 206.552 33.9397ZM211.091 39.2444C210.981 39.4996 210.854 39.7183 210.708 39.9006C210.598 40.0465 210.398 40.1741 210.106 40.2834C209.887 40.2105 209.614 40.1194 209.286 40.01C208.994 39.8642 208.848 39.6454 208.848 39.3538C208.848 39.135 208.921 38.9163 209.067 38.6975C209.249 38.5881 209.414 38.497 209.559 38.4241C209.742 38.3147 209.924 38.26 210.106 38.26C210.398 38.26 210.598 38.3694 210.708 38.5881C210.854 38.8069 210.981 39.0256 211.091 39.2444ZM272.546 2.8772C272.546 2.98657 272.51 3.15063 272.437 3.36938L271.835 3.91626H271.507C271.361 3.91626 271.216 3.91626 271.07 3.91626C270.96 3.8798 270.814 3.86157 270.632 3.86157C270.523 3.67928 270.413 3.49699 270.304 3.3147C270.231 3.13241 270.195 2.93188 270.195 2.71313C270.559 2.1298 270.96 1.83813 271.398 1.83813C271.507 1.83813 271.617 1.85636 271.726 1.89282C271.835 1.89282 271.926 1.89282 271.999 1.89282C272.145 2.03866 272.273 2.20272 272.382 2.38501C272.492 2.53084 272.546 2.69491 272.546 2.8772ZM267.242 2.8772C267.242 3.09595 267.187 3.29647 267.077 3.47876C266.968 3.62459 266.859 3.78866 266.749 3.97095C266.567 3.97095 266.403 3.98918 266.257 4.02563C266.148 4.02563 266.02 4.02563 265.874 4.02563C265.729 4.02563 265.546 3.98918 265.327 3.91626L264.671 3.20532C264.817 3.05949 264.872 2.96834 264.835 2.93188C264.835 2.89543 264.835 2.78605 264.835 2.60376C264.835 2.49438 264.854 2.40324 264.89 2.33032L265.437 1.78345C265.656 1.78345 265.856 1.78345 266.038 1.78345C266.257 1.78345 266.476 1.80168 266.695 1.83813C266.768 1.98397 266.841 2.1298 266.913 2.27563C267.023 2.38501 267.132 2.49438 267.242 2.60376V2.8772ZM261.992 2.82251C261.955 3.22355 261.809 3.53345 261.554 3.7522C261.299 3.93449 260.971 4.02563 260.57 4.02563C260.497 4.02563 260.314 3.98918 260.023 3.91626C259.986 3.8798 259.859 3.7522 259.64 3.53345C259.458 3.27824 259.403 3.11418 259.476 3.04126C259.512 3.0048 259.531 2.93188 259.531 2.82251C259.531 2.5673 259.64 2.33032 259.859 2.11157C260.114 1.85636 260.369 1.72876 260.624 1.72876C260.807 1.72876 260.952 1.76522 261.062 1.83813C261.171 1.91105 261.317 1.96574 261.499 2.0022C261.609 2.14803 261.682 2.29386 261.718 2.4397C261.791 2.58553 261.882 2.71313 261.992 2.82251ZM256.359 3.26001C256.213 3.40584 256.085 3.49699 255.976 3.53345V3.80688C255.83 3.8798 255.666 3.93449 255.484 3.97095C255.338 4.00741 255.174 4.08032 254.992 4.1897C254.809 4.08032 254.627 3.97095 254.445 3.86157C254.262 3.71574 254.062 3.58813 253.843 3.47876C253.843 3.29647 253.825 3.11418 253.788 2.93188C253.788 2.74959 253.788 2.5673 253.788 2.38501C254.007 2.27563 254.208 2.14803 254.39 2.0022C254.609 1.85636 254.827 1.71053 255.046 1.5647L255.921 1.94751C255.994 2.20272 256.085 2.42147 256.195 2.60376C256.304 2.78605 256.359 3.0048 256.359 3.26001ZM250.999 2.98657C250.999 3.20532 250.945 3.33293 250.835 3.36938C250.762 3.55168 250.689 3.67928 250.617 3.7522C250.544 3.78866 250.471 3.89803 250.398 4.08032H249.851C249.231 4.08032 248.848 3.97095 248.702 3.7522C248.593 3.53345 248.502 3.16886 248.429 2.65845C248.466 2.47616 248.52 2.34855 248.593 2.27563C248.702 2.20272 248.775 2.07511 248.812 1.89282C248.994 1.81991 249.14 1.76522 249.249 1.72876C249.395 1.6923 249.559 1.67407 249.742 1.67407C249.924 1.67407 250.07 1.71053 250.179 1.78345C250.325 1.81991 250.471 1.85636 250.617 1.89282C250.617 2.14803 250.671 2.34855 250.781 2.49438C250.926 2.60376 250.999 2.76782 250.999 2.98657ZM256.523 9.16626C256.341 9.45793 256.176 9.73136 256.031 9.98657C255.885 10.2053 255.63 10.3876 255.265 10.5334C255.083 10.4605 254.955 10.4423 254.882 10.4788C254.846 10.4788 254.736 10.4788 254.554 10.4788L254.335 10.3694C254.189 10.1871 254.08 10.023 254.007 9.8772C253.934 9.73136 253.825 9.5673 253.679 9.38501C253.898 9.16626 254.007 8.91105 254.007 8.61938C254.372 8.36418 254.736 8.23657 255.101 8.23657C255.21 8.23657 255.301 8.2548 255.374 8.29126C255.484 8.29126 255.593 8.30949 255.702 8.34595C255.812 8.45532 255.867 8.5647 255.867 8.67407C255.903 8.74699 255.939 8.81991 255.976 8.89282C256.012 8.96574 256.067 9.02043 256.14 9.05688C256.213 9.09334 256.341 9.1298 256.523 9.16626ZM245.421 3.36938C245.13 3.66105 244.874 3.84334 244.656 3.91626C244.437 3.95272 244.127 3.97095 243.726 3.97095C243.361 3.97095 243.124 3.80688 243.015 3.47876C242.906 3.11418 242.851 2.78605 242.851 2.49438C243.07 2.31209 243.27 2.1298 243.452 1.94751C243.671 1.76522 243.926 1.6923 244.218 1.72876L244.492 1.5647C244.637 1.78345 244.765 1.94751 244.874 2.05688C244.984 2.16626 245.075 2.27563 245.148 2.38501C245.221 2.49438 245.275 2.62199 245.312 2.76782C245.348 2.91366 245.385 3.11418 245.421 3.36938ZM256.523 15.9475C256.45 16.0204 256.377 16.148 256.304 16.3303C256.231 16.5126 256.176 16.6402 256.14 16.7131C256.031 16.7861 255.903 16.859 255.757 16.9319C255.648 17.0048 255.538 17.0959 255.429 17.2053C255.247 17.0959 255.101 17.0413 254.992 17.0413C254.882 17.0413 254.736 17.023 254.554 16.9866C254.408 16.8043 254.299 16.6949 254.226 16.6584C254.189 16.622 254.062 16.5855 253.843 16.5491C253.916 16.1845 254.007 15.7834 254.117 15.3459C254.226 14.872 254.536 14.635 255.046 14.635C255.484 14.635 255.775 14.7808 255.921 15.0725C256.104 15.3642 256.304 15.6558 256.523 15.9475ZM239.679 2.98657C239.679 3.24178 239.57 3.51522 239.351 3.80688C239.205 3.8798 239.059 3.93449 238.913 3.97095C238.804 4.00741 238.658 4.02563 238.476 4.02563C238.148 4.02563 237.911 3.93449 237.765 3.7522C237.619 3.53345 237.455 3.29647 237.273 3.04126C237.346 2.67668 237.382 2.40324 237.382 2.22095C237.564 2.11157 237.765 2.02043 237.984 1.94751C238.202 1.83813 238.421 1.78345 238.64 1.78345C238.749 1.78345 238.859 1.80168 238.968 1.83813C239.114 1.87459 239.242 1.89282 239.351 1.89282C239.424 2.07511 239.497 2.25741 239.57 2.4397C239.643 2.62199 239.679 2.80428 239.679 2.98657ZM256.413 22.4006C256.268 22.6923 256.122 22.9657 255.976 23.2209C255.867 23.4762 255.611 23.6038 255.21 23.6038C255.028 23.6038 254.882 23.5855 254.773 23.5491C254.663 23.4762 254.536 23.4397 254.39 23.4397C254.244 23.2939 254.153 23.148 254.117 23.0022C254.08 22.8564 253.971 22.747 253.788 22.6741C253.788 22.3824 253.825 22.1637 253.898 22.0178C253.971 21.872 254.098 21.6897 254.281 21.4709L255.265 21.1428C255.447 21.3251 255.557 21.4345 255.593 21.4709C255.666 21.5074 255.848 21.5621 256.14 21.635C256.14 21.8902 256.14 22.0361 256.14 22.0725C256.176 22.109 256.268 22.2183 256.413 22.4006ZM256.359 28.8538C256.359 29.109 256.304 29.2366 256.195 29.2366C256.122 29.2366 256.122 29.3642 256.195 29.6194C256.012 29.7288 255.83 29.8381 255.648 29.9475C255.502 30.0569 255.32 30.1116 255.101 30.1116C254.992 30.1116 254.882 30.0933 254.773 30.0569C254.663 30.0204 254.536 29.984 254.39 29.9475C254.354 29.8746 254.244 29.7288 254.062 29.51C253.88 29.2548 253.788 29.0907 253.788 29.0178C253.788 28.7262 253.934 28.4527 254.226 28.1975C254.554 27.9423 254.864 27.8147 255.156 27.8147C255.301 27.8147 255.484 27.9423 255.702 28.1975C255.958 28.4163 256.176 28.5803 256.359 28.6897V28.8538ZM256.14 35.7444C256.067 35.9267 255.976 36.0725 255.867 36.1819C255.757 36.2913 255.666 36.4371 255.593 36.6194L254.281 36.51C254.171 36.2548 254.025 36.0907 253.843 36.0178C253.697 35.9084 253.606 35.7079 253.57 35.4163C253.752 35.1246 253.916 34.8694 254.062 34.6506C254.208 34.3954 254.481 34.2678 254.882 34.2678C255.32 34.2678 255.684 34.4501 255.976 34.8147L256.14 35.7444ZM256.359 42.0334C256.359 42.1064 256.322 42.2522 256.249 42.4709C256.14 42.5803 255.976 42.7079 255.757 42.8538C255.575 43.0361 255.393 43.1272 255.21 43.1272C255.028 43.1272 254.9 43.0907 254.827 43.0178C254.791 42.9449 254.663 42.9267 254.445 42.9631C254.299 42.7808 254.153 42.6168 254.007 42.4709C253.898 42.2887 253.843 42.0699 253.843 41.8147C253.843 41.5595 253.934 41.3772 254.117 41.2678C254.299 41.122 254.445 40.9579 254.554 40.7756H254.992C255.174 40.7756 255.447 40.8121 255.812 40.885C255.885 41.0673 255.994 41.2496 256.14 41.4319C256.286 41.5777 256.359 41.7782 256.359 42.0334Z" fill="#00FF85"/>
</svg>
