<svg width="128" height="44" viewBox="0 0 128 44" fill="none" xmlns="http://www.w3.org/2000/svg">
<path d="M3.32812 1.89551C3.32812 2.04134 3.3099 2.16895 3.27344 2.27832C3.27344 2.3877 3.27344 2.5153 3.27344 2.66113C3.05469 2.73405 2.81771 2.80697 2.5625 2.87988C2.34375 2.9528 2.125 2.98926 1.90625 2.98926C1.6875 2.87988 1.48698 2.75228 1.30469 2.60645C1.1224 2.42415 1.03125 2.2054 1.03125 1.9502C1.03125 1.73145 1.08594 1.54915 1.19531 1.40332C1.30469 1.25749 1.39583 1.09342 1.46875 0.911133C1.6875 0.838216 1.85156 0.801758 1.96094 0.801758C2.2526 0.801758 2.50781 0.892904 2.72656 1.0752C2.94531 1.22103 3.14583 1.38509 3.32812 1.56738V1.89551ZM3.54687 6.37988C3.47396 6.56217 3.41927 6.72624 3.38281 6.87207C3.34635 6.98145 3.32812 7.12728 3.32812 7.30957C3.14583 7.41895 2.96354 7.52832 2.78125 7.6377C2.59896 7.71061 2.39844 7.74707 2.17969 7.74707C1.88802 7.74707 1.66927 7.69238 1.52344 7.58301C1.3776 7.43717 1.26823 7.27311 1.19531 7.09082C1.15885 6.90853 1.1224 6.72624 1.08594 6.54395C1.08594 6.3252 1.06771 6.12467 1.03125 5.94238C1.25 5.86947 1.43229 5.77832 1.57812 5.66895C1.76042 5.55957 1.96094 5.50488 2.17969 5.50488C2.4349 5.65072 2.67187 5.77832 2.89062 5.8877C3.14583 5.96061 3.36458 6.12467 3.54687 6.37988ZM3.27344 11.7939C3.27344 12.1221 3.16406 12.3955 2.94531 12.6143C2.65365 12.7236 2.38021 12.7783 2.125 12.7783H1.79687C1.61458 12.6325 1.45052 12.4867 1.30469 12.3408C1.15885 12.195 1.08594 12.0127 1.08594 11.7939C1.08594 11.721 1.10417 11.6299 1.14062 11.5205C1.17708 11.4111 1.21354 11.32 1.25 11.2471C1.43229 11.1742 1.61458 11.1012 1.79687 11.0283C1.97917 10.9189 2.16146 10.8643 2.34375 10.8643C2.52604 10.8643 2.67187 10.9189 2.78125 11.0283C2.92708 11.1377 3.09115 11.2288 3.27344 11.3018L3.27344 11.7939ZM3.16406 16.3877C3.16406 16.7887 3.1276 17.0986 3.05469 17.3174C3.01823 17.5361 2.90885 17.8096 2.72656 18.1377C2.4349 18.1012 2.19792 18.1012 2.01562 18.1377C1.83333 18.1377 1.59635 18.083 1.30469 17.9736C1.30469 17.7549 1.26823 17.5544 1.19531 17.3721C1.1224 17.1533 1.08594 16.9528 1.08594 16.7705V16.3877C1.23177 16.3148 1.3776 16.2419 1.52344 16.1689C1.66927 16.096 1.8151 16.0596 1.96094 16.0596C2.21615 16.0596 2.41667 16.1143 2.5625 16.2236C2.74479 16.333 2.94531 16.3877 3.16406 16.3877ZM3.16406 22.2393C3.16406 22.4215 3.09115 22.5856 2.94531 22.7314C2.83594 22.8773 2.74479 23.0413 2.67187 23.2236C2.38021 23.2965 2.14323 23.333 1.96094 23.333C1.66927 23.333 1.41406 23.2236 1.19531 23.0049C0.976562 22.7497 0.867187 22.4762 0.867187 22.1846C0.867187 22.0023 0.921875 21.8564 1.03125 21.7471C1.14062 21.6012 1.26823 21.4919 1.41406 21.4189C1.5599 21.3096 1.74219 21.2549 1.96094 21.2549C2.21615 21.2549 2.48958 21.346 2.78125 21.5283C2.81771 21.6742 2.89062 21.7835 3 21.8564C3.10937 21.9294 3.16406 22.057 3.16406 22.2393ZM3.21875 27.2158C3.21875 27.5439 3.09115 27.8721 2.83594 28.2002C2.61719 28.3096 2.38021 28.3643 2.125 28.3643C1.72396 28.3643 1.39583 28.2367 1.14062 27.9814C1.06771 27.8356 1.03125 27.6169 1.03125 27.3252C1.03125 27.1429 1.08594 26.9242 1.19531 26.6689C1.34115 26.3773 1.54167 26.2314 1.79687 26.2314C1.86979 26.2314 1.92448 26.2497 1.96094 26.2861C1.9974 26.2861 2.03385 26.2861 2.07031 26.2861L2.23437 26.0674C2.41667 26.2497 2.54427 26.3773 2.61719 26.4502C2.72656 26.5231 2.89062 26.596 3.10937 26.6689C3.18229 26.8877 3.21875 27.07 3.21875 27.2158ZM3.49219 32.6846C3.23698 32.8304 3 32.958 2.78125 33.0674C2.5625 33.1768 2.30729 33.2314 2.01562 33.2314H1.52344C1.34115 33.0856 1.17708 32.9398 1.03125 32.7939C0.885417 32.6481 0.776042 32.484 0.703125 32.3018C0.848958 32.0465 0.994792 31.8278 1.14062 31.6455C1.32292 31.4632 1.48698 31.2627 1.63281 31.0439C1.66927 31.0804 1.76042 31.1351 1.90625 31.208C1.97917 31.208 2.03385 31.208 2.07031 31.208C2.14323 31.1715 2.21615 31.1533 2.28906 31.1533C2.39844 31.1533 2.48958 31.1715 2.5625 31.208C2.67187 31.4997 2.8724 31.6637 3.16406 31.7002C3.16406 31.9554 3.18229 32.1377 3.21875 32.2471C3.32812 32.32 3.41927 32.4658 3.49219 32.6846ZM3.16406 37.3877C3.16406 37.6429 3.01823 37.8252 2.72656 37.9346C2.47135 38.0439 2.2526 38.0986 2.07031 38.0986C1.88802 38.0986 1.72396 38.0986 1.57812 38.0986C1.46875 38.0622 1.34115 38.0439 1.19531 38.0439C1.15885 37.8617 1.10417 37.6976 1.03125 37.5518C0.958333 37.4059 0.921875 37.2419 0.921875 37.0596C1.10417 36.7314 1.25 36.5309 1.35937 36.458C1.46875 36.3851 1.63281 36.2393 1.85156 36.0205C1.9974 36.0934 2.125 36.1663 2.23437 36.2393C2.34375 36.2757 2.48958 36.2939 2.67187 36.2939C2.74479 36.4762 2.83594 36.6585 2.94531 36.8408C3.09115 37.0231 3.16406 37.2054 3.16406 37.3877ZM3.27344 41.8721C3.20052 42.0179 3.09115 42.1455 2.94531 42.2549C2.79948 42.4007 2.72656 42.5648 2.72656 42.7471C2.4349 42.82 2.21615 42.8564 2.07031 42.8564C1.77865 42.8564 1.52344 42.7653 1.30469 42.583C1.1224 42.4372 0.958333 42.2549 0.8125 42.0361C0.885417 41.8538 0.921875 41.708 0.921875 41.5986C0.921875 41.4528 0.921875 41.307 0.921875 41.1611C1.10417 41.0882 1.28646 40.9971 1.46875 40.8877C1.65104 40.7783 1.83333 40.7236 2.01562 40.7236C2.16146 40.7236 2.28906 40.7783 2.39844 40.8877C2.50781 40.9606 2.61719 41.0153 2.72656 41.0518C2.83594 41.234 2.89062 41.3981 2.89062 41.5439C2.92708 41.6898 3.05469 41.7992 3.27344 41.8721ZM47.94 2.44238L47.3384 3.31738C47.1197 3.3903 46.9374 3.42676 46.7916 3.42676C46.6457 3.42676 46.4999 3.40853 46.3541 3.37207C46.2082 3.33561 46.0442 3.31738 45.8619 3.31738C45.8619 3.24447 45.8072 3.04395 45.6978 2.71582C45.5884 2.3877 45.5337 2.2054 45.5337 2.16895C45.5337 1.9502 45.6067 1.80436 45.7525 1.73145C45.8983 1.62207 46.0259 1.49447 46.1353 1.34863C46.2447 1.31217 46.3358 1.29395 46.4087 1.29395C46.5181 1.25749 46.6275 1.23926 46.7369 1.23926C46.9192 1.23926 47.1197 1.27572 47.3384 1.34863L47.94 2.44238ZM47.94 7.96582C47.9035 8.11165 47.8853 8.3304 47.8853 8.62207C47.8853 9.02311 47.703 9.31478 47.3384 9.49707C47.0103 9.6429 46.6822 9.75228 46.3541 9.8252C46.1353 9.75228 45.9895 9.66113 45.9166 9.55176C45.8801 9.44238 45.7707 9.31478 45.5884 9.16895C45.5884 8.98665 45.552 8.84082 45.4791 8.73145C45.4426 8.58561 45.4244 8.42155 45.4244 8.23926C45.7525 7.91113 45.9895 7.54655 46.1353 7.14551C46.2082 7.21842 46.2629 7.27311 46.2994 7.30957C46.3358 7.34603 46.4087 7.40072 46.5181 7.47363C46.7004 7.47363 46.8827 7.41895 47.065 7.30957L47.94 7.96582ZM47.9947 15.1299C47.9218 15.4215 47.8124 15.7132 47.6666 16.0049C47.5207 16.2965 47.2473 16.4424 46.8462 16.4424C46.591 16.4424 46.3723 16.3695 46.19 16.2236C46.0077 16.0413 45.8072 15.8773 45.5884 15.7314C45.6614 15.4762 45.6796 15.2939 45.6431 15.1846C45.6067 15.0752 45.6614 14.8564 45.8072 14.5283C46.0624 14.4919 46.19 14.4007 46.19 14.2549C46.2265 14.0726 46.3905 13.9997 46.6822 14.0361C46.7186 14.0361 46.7551 14.0544 46.7916 14.0908C46.828 14.0908 46.8827 14.0908 46.9556 14.0908C47.065 14.0908 47.1561 14.0544 47.2291 13.9814L47.7759 14.3096C47.7759 14.3825 47.7395 14.4919 47.6666 14.6377C47.703 14.7106 47.7577 14.8018 47.8306 14.9111C47.9035 14.984 47.9582 15.057 47.9947 15.1299ZM47.94 21.1455C47.94 21.2184 47.94 21.2913 47.94 21.3643C47.9765 21.4372 47.9947 21.5101 47.9947 21.583C47.8124 21.8382 47.6483 22.057 47.5025 22.2393C47.3931 22.3851 47.302 22.5492 47.2291 22.7314C47.1197 22.7679 46.9556 22.7861 46.7369 22.7861C46.2994 22.7861 45.9895 22.6403 45.8072 22.3486C45.6614 22.0205 45.5337 21.6924 45.4244 21.3643C45.6067 21.182 45.789 20.9814 45.9712 20.7627C46.1535 20.5439 46.3905 20.4346 46.6822 20.4346C46.828 20.4346 47.0468 20.471 47.3384 20.5439C47.4843 20.5804 47.6119 20.6169 47.7212 20.6533C47.7942 20.6898 47.8671 20.7445 47.94 20.8174C48.0858 20.9632 48.0858 21.0726 47.94 21.1455ZM47.94 28.2549C47.8671 28.4372 47.7395 28.5648 47.5572 28.6377C47.4114 28.7106 47.302 28.8382 47.2291 29.0205H46.5728C46.2082 29.0205 45.953 28.9294 45.8072 28.7471C45.6978 28.5283 45.552 28.2731 45.3697 27.9814C45.4791 27.7262 45.6431 27.471 45.8619 27.2158C46.1171 26.9606 46.3905 26.833 46.6822 26.833C46.8645 26.833 47.0468 26.8877 47.2291 26.9971L47.4478 26.9424C47.5207 27.1611 47.6119 27.3799 47.7212 27.5986C47.8306 27.7809 47.9035 27.9997 47.94 28.2549ZM47.8853 34.3252C47.8853 34.471 47.8671 34.5986 47.8306 34.708C47.8306 34.8174 47.8489 34.945 47.8853 35.0908C47.703 35.1637 47.5207 35.2731 47.3384 35.4189C47.1561 35.5648 46.9739 35.6377 46.7916 35.6377C46.427 35.6377 46.1535 35.5648 45.9712 35.4189C45.789 35.2731 45.5884 35.0726 45.3697 34.8174V34.5986C45.3697 34.3799 45.3515 34.234 45.315 34.1611C45.315 34.0882 45.315 34.0335 45.315 33.9971C45.3515 33.9242 45.4244 33.8695 45.5337 33.833C45.6431 33.7601 45.8254 33.6507 46.0806 33.5049C46.1535 33.4684 46.2265 33.432 46.2994 33.3955C46.4087 33.359 46.4999 33.3408 46.5728 33.3408C47.0103 33.3408 47.4114 33.5231 47.7759 33.8877C47.8489 34.1064 47.8853 34.2523 47.8853 34.3252ZM19.2291 6.70801C19.2291 6.99967 19.1197 7.23665 18.9009 7.41895C18.7186 7.56478 18.5728 7.74707 18.4634 7.96582C18.0624 7.85645 17.6796 7.80176 17.315 7.80176C16.9869 7.40072 16.8228 7.05436 16.8228 6.7627C16.8228 6.5804 16.8593 6.41634 16.9322 6.27051C17.0416 6.12467 17.1509 5.99707 17.2603 5.8877C17.4426 5.85124 17.6067 5.81478 17.7525 5.77832C17.8983 5.7054 18.0624 5.66895 18.2447 5.66895C18.427 5.66895 18.5728 5.72363 18.6822 5.83301C18.828 5.90592 18.9739 5.97884 19.1197 6.05176C19.1197 6.16113 19.1379 6.27051 19.1744 6.37988C19.2108 6.48926 19.2291 6.59863 19.2291 6.70801ZM22.8931 10.5908C22.8567 10.8096 22.8384 11.0101 22.8384 11.1924C22.8749 11.3747 22.802 11.5387 22.6197 11.6846C22.4374 11.7575 22.2551 11.8122 22.0728 11.8486C21.927 11.8851 21.7629 11.9398 21.5806 12.0127L20.7603 11.8486C20.7239 11.7028 20.6692 11.557 20.5962 11.4111C20.5233 11.2653 20.4869 11.1195 20.4869 10.9736C20.4869 10.7549 20.5416 10.5544 20.6509 10.3721C20.7968 10.1898 20.9244 10.0075 21.0337 9.8252C21.1431 9.78874 21.2525 9.75228 21.3619 9.71582C21.5077 9.67936 21.6353 9.66113 21.7447 9.66113C21.8541 9.66113 21.9452 9.67936 22.0181 9.71582C22.1275 9.75228 22.2369 9.78874 22.3462 9.8252C22.4192 9.93457 22.4921 10.0622 22.565 10.208C22.6744 10.3538 22.7837 10.4814 22.8931 10.5908ZM15.1275 2.60645C15.0546 2.8252 14.9452 3.04395 14.7994 3.2627C14.69 3.44499 14.6353 3.66374 14.6353 3.91895C14.3436 4.10124 14.0702 4.19238 13.815 4.19238C13.6692 4.19238 13.5233 4.17415 13.3775 4.1377C13.2317 4.10124 13.0858 4.06478 12.94 4.02832C12.8671 3.84603 12.7759 3.66374 12.6666 3.48145C12.5572 3.29915 12.4843 3.09863 12.4478 2.87988C12.5207 2.69759 12.6119 2.55176 12.7212 2.44238C12.8671 2.33301 13.0129 2.18717 13.1587 2.00488H13.9791C14.1978 2.00488 14.3983 2.09603 14.5806 2.27832C14.7629 2.42415 14.9452 2.53353 15.1275 2.60645ZM26.3931 15.0205C26.3202 15.3486 26.2473 15.6038 26.1744 15.7861C26.1379 15.9684 26.0103 16.1872 25.7916 16.4424H25.3541C25.2811 16.4424 25.2265 16.4606 25.19 16.4971C25.1535 16.4971 25.0989 16.4971 25.0259 16.4971C24.8072 16.4971 24.6431 16.4606 24.5337 16.3877C24.4608 16.3148 24.3879 16.2236 24.315 16.1143C24.2785 16.0049 24.2239 15.8955 24.1509 15.7861C24.1145 15.6403 24.0233 15.5309 23.8775 15.458C23.9504 15.2393 24.0416 15.0387 24.1509 14.8564C24.2968 14.6377 24.4426 14.4372 24.5884 14.2549C24.6978 14.2184 24.8072 14.182 24.9166 14.1455C25.0259 14.109 25.1353 14.0908 25.2447 14.0908C25.3905 14.0908 25.5364 14.1273 25.6822 14.2002C25.828 14.2367 25.9739 14.2731 26.1197 14.3096C26.1197 14.6012 26.2108 14.8382 26.3931 15.0205ZM29.9478 19.9971C29.9478 20.2158 29.7837 20.4528 29.4556 20.708C29.1275 20.9268 28.8723 21.0361 28.69 21.0361C28.4712 21.0361 28.2525 20.9814 28.0337 20.8721C27.8515 20.7262 27.6692 20.6169 27.4869 20.5439C27.4869 19.9606 27.6874 19.3773 28.0884 18.7939C28.5259 18.7939 28.8176 18.721 28.9634 18.5752C29.1457 18.7575 29.3462 18.9762 29.565 19.2314C29.8202 19.4502 29.9478 19.7054 29.9478 19.9971ZM33.5025 24.8096C33.4296 24.9919 33.302 25.1195 33.1197 25.1924C32.9739 25.2653 32.8645 25.3929 32.7916 25.5752H32.2994C32.1171 25.5752 31.9712 25.557 31.8619 25.5205C31.7525 25.4476 31.6249 25.3747 31.4791 25.3018C31.4061 25.1924 31.3332 25.1012 31.2603 25.0283C31.2239 24.9189 31.1327 24.8278 30.9869 24.7549V24.4268C31.1327 24.1715 31.315 23.9346 31.5337 23.7158C31.7525 23.4606 32.0077 23.333 32.2994 23.333C32.4452 23.333 32.5546 23.3695 32.6275 23.4424C32.7004 23.5153 32.828 23.5153 33.0103 23.4424C33.302 23.8799 33.466 24.3356 33.5025 24.8096ZM36.6744 28.4189C36.7473 28.5648 36.7837 28.6924 36.7837 28.8018C36.7837 28.984 36.6744 29.2393 36.4556 29.5674C36.2369 29.8955 36.0181 30.0413 35.7994 30.0049L35.4712 29.9502C35.1067 29.7679 34.8332 29.6038 34.6509 29.458C34.5051 29.2757 34.4322 29.0023 34.4322 28.6377C34.6145 28.346 34.7603 28.109 34.8697 27.9268C34.9791 27.7445 35.216 27.6169 35.5806 27.5439C35.7629 27.6169 35.9999 27.708 36.2916 27.8174C36.6197 27.9268 36.7473 28.1273 36.6744 28.4189ZM40.2291 32.6299C40.1197 32.9215 40.065 33.2132 40.065 33.5049C39.8827 33.5778 39.7186 33.7054 39.5728 33.8877C39.427 34.07 39.2265 34.1611 38.9712 34.1611C38.789 34.1611 38.6431 34.1247 38.5337 34.0518C38.4244 33.9788 38.2785 33.9059 38.0962 33.833C38.0233 33.6507 37.9322 33.5049 37.8228 33.3955C37.7499 33.2497 37.6405 33.0856 37.4947 32.9033C37.6405 32.7939 37.7681 32.6846 37.8775 32.5752C38.0233 32.4294 38.1874 32.3382 38.3697 32.3018C38.6614 32.1195 38.9348 32.0283 39.19 32.0283C39.4452 32.0283 39.6275 32.1012 39.7369 32.2471C39.8827 32.3564 40.0468 32.484 40.2291 32.6299ZM47.6119 41.0518C47.6119 41.234 47.5572 41.3981 47.4478 41.5439C47.3749 41.6898 47.3202 41.8538 47.2837 42.0361C47.1379 42.109 46.9921 42.182 46.8462 42.2549C46.7004 42.3643 46.5364 42.4189 46.3541 42.4189C45.5884 42.4189 45.2056 41.9632 45.2056 41.0518C45.2056 40.5778 45.4061 40.3226 45.8072 40.2861C46.2447 40.2132 46.6275 40.1403 46.9556 40.0674C47.065 40.2497 47.1926 40.3955 47.3384 40.5049C47.5207 40.6143 47.6119 40.7965 47.6119 41.0518ZM43.5103 37.2783C43.5103 37.4606 43.4921 37.6247 43.4556 37.7705C43.4192 37.9163 43.3827 38.0804 43.3462 38.2627C43.1275 38.2627 42.9817 38.3174 42.9087 38.4268C42.8358 38.4997 42.7082 38.5361 42.5259 38.5361C42.3801 38.5361 42.1978 38.4997 41.9791 38.4268C41.7603 38.3538 41.578 38.2809 41.4322 38.208C41.3228 37.9528 41.2681 37.6611 41.2681 37.333C41.2681 36.9684 41.3957 36.7132 41.6509 36.5674C41.9426 36.3851 42.2343 36.2939 42.5259 36.2939C42.6718 36.2939 42.8541 36.3304 43.0728 36.4033L43.5103 36.8408V37.2783ZM15.1275 9.71582C14.9087 9.89811 14.69 10.0804 14.4712 10.2627C14.2525 10.445 13.9973 10.5361 13.7056 10.5361C13.5233 10.5361 13.3593 10.4814 13.2134 10.3721C13.1041 10.2627 12.9582 10.1898 12.7759 10.1533C12.7759 9.97103 12.7577 9.8252 12.7212 9.71582C12.6848 9.56999 12.6483 9.40592 12.6119 9.22363L12.9947 8.40332C13.177 8.40332 13.3593 8.38509 13.5416 8.34863C13.7239 8.31217 13.9061 8.29395 14.0884 8.29395H14.3072C14.4166 8.40332 14.5259 8.5127 14.6353 8.62207C14.7811 8.69499 14.9087 8.78613 15.0181 8.89551C15.0181 8.96842 14.9999 9.05957 14.9634 9.16895C14.9634 9.27832 14.9634 9.36947 14.9634 9.44238C14.9999 9.5153 15.0181 9.56999 15.0181 9.60645C15.0546 9.60645 15.091 9.6429 15.1275 9.71582ZM15.2369 16.3877C15.091 16.4606 14.9634 16.5335 14.8541 16.6064C14.7811 16.6794 14.7265 16.807 14.69 16.9893H14.1431H13.1587C13.0858 16.9163 13.0129 16.7887 12.94 16.6064C12.9035 16.4242 12.8489 16.333 12.7759 16.333C12.7395 16.333 12.7577 16.1872 12.8306 15.8955C12.8671 15.7497 12.9218 15.6038 12.9947 15.458C12.9582 15.3486 12.9765 15.221 13.0494 15.0752C13.1223 14.9658 13.1952 14.8747 13.2681 14.8018C13.3775 14.6924 13.5598 14.6377 13.815 14.6377C13.9608 14.6377 14.0884 14.6559 14.1978 14.6924C14.3072 14.6924 14.4348 14.6924 14.5806 14.6924C14.69 14.8018 14.7629 14.9294 14.7994 15.0752C14.8358 15.221 14.927 15.3122 15.0728 15.3486C15.1822 15.6768 15.2369 16.0231 15.2369 16.3877ZM15.1275 21.1455C15.091 21.4372 15.0364 21.7471 14.9634 22.0752C14.927 22.3669 14.8176 22.6585 14.6353 22.9502C14.4895 22.9502 14.3436 22.9684 14.1978 23.0049C14.052 23.0049 13.9061 23.0049 13.7603 23.0049C13.3957 23.0049 13.0858 22.8955 12.8306 22.6768C12.8306 22.5309 12.8124 22.3851 12.7759 22.2393C12.7395 22.0934 12.7212 21.9294 12.7212 21.7471C12.7212 21.4554 12.8489 21.2002 13.1041 20.9814C13.3957 20.7627 13.6874 20.6533 13.9791 20.6533C14.2707 20.6533 14.4712 20.7262 14.5806 20.8721C14.7265 20.9814 14.9087 21.0726 15.1275 21.1455ZM15.2916 28.2002C15.2916 28.6012 15.2186 28.8929 15.0728 29.0752C14.927 29.221 14.7082 29.4398 14.4166 29.7314C14.3072 29.7314 14.1978 29.7314 14.0884 29.7314C14.0155 29.695 13.9244 29.6585 13.815 29.6221C13.7785 29.6221 13.6874 29.6585 13.5416 29.7314C13.4322 29.6221 13.3046 29.4945 13.1587 29.3486C13.0129 29.1663 12.9218 28.984 12.8853 28.8018C12.8853 28.7288 12.8671 28.6559 12.8306 28.583C12.8306 28.5101 12.8306 28.4189 12.8306 28.3096C12.8306 28.1637 12.8489 28.0361 12.8853 27.9268C12.9582 27.8174 12.9947 27.6898 12.9947 27.5439C13.2134 27.5075 13.414 27.471 13.5962 27.4346C13.815 27.3981 14.0155 27.3799 14.1978 27.3799C14.3801 27.3799 14.5806 27.4163 14.7994 27.4893C14.8723 27.5986 14.9452 27.7262 15.0181 27.8721C15.091 27.9814 15.1822 28.0908 15.2916 28.2002ZM15.2369 35.0361V35.4736C14.9817 35.8018 14.7447 36.0023 14.5259 36.0752C14.3072 36.1117 13.9973 36.1299 13.5962 36.1299C13.4869 36.1299 13.3775 36.1117 13.2681 36.0752C13.1952 36.0387 13.1223 36.0023 13.0494 35.9658V35.4189C12.9765 35.2731 12.94 35.182 12.94 35.1455C13.1223 34.7445 13.2681 34.4346 13.3775 34.2158C13.4869 33.9971 13.7968 33.8877 14.3072 33.8877C14.5989 33.8877 14.8176 34.0153 14.9634 34.2705C15.1457 34.4893 15.2369 34.7445 15.2369 35.0361ZM15.3462 41.708C15.2369 41.8903 15.1457 42.0726 15.0728 42.2549C15.0364 42.4372 14.9817 42.6195 14.9087 42.8018C14.7629 42.8382 14.6353 42.8564 14.5259 42.8564C14.4166 42.8929 14.289 42.9111 14.1431 42.9111C13.9973 42.9111 13.8515 42.8929 13.7056 42.8564C13.5962 42.8564 13.4686 42.8564 13.3228 42.8564C13.2499 42.6742 13.1587 42.4736 13.0494 42.2549C12.94 42.0361 12.8853 41.8174 12.8853 41.5986C12.8853 41.5257 12.8853 41.4893 12.8853 41.4893C12.9218 41.4528 12.94 41.3981 12.94 41.3252C13.0494 41.1429 13.2317 40.9788 13.4869 40.833C13.7785 40.6507 14.0155 40.5596 14.1978 40.5596C14.453 40.5596 14.7082 40.6872 14.9634 40.9424C15.2186 41.1611 15.3462 41.4163 15.3462 41.708ZM83.8019 2.8252C83.6196 3.00749 83.4191 3.22624 83.2003 3.48145C83.018 3.7002 82.781 3.80957 82.4894 3.80957C82.3071 3.80957 82.1248 3.77311 81.9425 3.7002C81.7602 3.59082 81.5779 3.49967 81.3956 3.42676C81.3956 3.24447 81.3774 3.09863 81.3409 2.98926C81.3045 2.84342 81.2863 2.67936 81.2863 2.49707C81.2863 2.09603 81.3956 1.87728 81.6144 1.84082C81.8331 1.80436 82.0154 1.65853 82.1613 1.40332L83.0363 1.45801C83.3279 1.74967 83.4738 1.98665 83.4738 2.16895C83.5102 2.31478 83.6196 2.53353 83.8019 2.8252ZM79.2628 2.22363C79.2628 2.36947 79.1899 2.5153 79.0441 2.66113C78.9347 2.87988 78.7889 3.0804 78.6066 3.2627C78.4607 3.44499 78.2602 3.53613 78.005 3.53613H77.5128C77.4399 3.3903 77.3123 3.22624 77.13 3.04395C76.9477 2.86165 76.8566 2.67936 76.8566 2.49707L77.1847 1.78613C77.367 1.6403 77.531 1.54915 77.6769 1.5127C77.8592 1.43978 78.0232 1.3304 78.1691 1.18457C78.3514 1.29395 78.5701 1.43978 78.8253 1.62207C79.117 1.7679 79.2628 1.96842 79.2628 2.22363ZM74.8331 2.55176C74.8331 2.80697 74.742 3.00749 74.5597 3.15332C74.3774 3.2627 74.1951 3.3903 74.0128 3.53613C73.8305 3.49967 73.6482 3.48145 73.4659 3.48145C73.3201 3.48145 73.156 3.48145 72.9738 3.48145C72.8644 3.2627 72.7732 3.11686 72.7003 3.04395C72.6274 2.93457 72.5909 2.75228 72.5909 2.49707C72.6639 2.31478 72.7915 2.0778 72.9738 1.78613C73.156 1.49447 73.393 1.34863 73.6847 1.34863C73.867 1.34863 74.0493 1.40332 74.2316 1.5127C74.4139 1.62207 74.5961 1.71322 74.7784 1.78613C74.742 1.82259 74.6873 1.91374 74.6144 2.05957C74.6873 2.13249 74.742 2.2054 74.7784 2.27832C74.8149 2.35124 74.8331 2.44238 74.8331 2.55176ZM70.0753 2.3877C70.0389 2.56999 69.9842 2.73405 69.9113 2.87988C69.8748 2.98926 69.8566 3.13509 69.8566 3.31738C69.4555 3.57259 69.0909 3.7002 68.7628 3.7002C68.5805 3.62728 68.3982 3.55436 68.2159 3.48145C68.0701 3.40853 67.906 3.31738 67.7238 3.20801V2.71582C67.7238 2.3877 67.8514 2.02311 68.1066 1.62207L69.0363 1.29395C69.1821 1.54915 69.3461 1.74967 69.5284 1.89551C69.7472 2.00488 69.9295 2.16895 70.0753 2.3877ZM64.7159 2.22363C64.6795 2.47884 64.6066 2.71582 64.4972 2.93457C64.4243 3.11686 64.3331 3.31738 64.2238 3.53613C63.9321 3.60905 63.7133 3.64551 63.5675 3.64551C63.3852 3.64551 63.13 3.55436 62.8019 3.37207C62.4738 3.15332 62.3097 2.93457 62.3097 2.71582C62.3097 2.53353 62.3279 2.35124 62.3644 2.16895C62.4373 1.98665 62.4555 1.78613 62.4191 1.56738C62.6378 1.56738 62.8383 1.53092 63.0206 1.45801C63.2029 1.38509 63.3852 1.34863 63.5675 1.34863C63.9321 1.34863 64.1691 1.42155 64.2784 1.56738C64.3878 1.71322 64.5336 1.93197 64.7159 2.22363ZM59.7394 2.11426C59.5571 2.47884 59.4659 2.80697 59.4659 3.09863C59.2836 3.17155 59.0467 3.2627 58.755 3.37207C58.4998 3.48145 58.2993 3.53613 58.1534 3.53613C57.8618 3.53613 57.6248 3.40853 57.4425 3.15332C57.2967 2.89811 57.2238 2.6429 57.2238 2.3877C57.2238 2.09603 57.3149 1.85905 57.4972 1.67676C57.7159 1.45801 57.9711 1.34863 58.2628 1.34863C58.4086 1.34863 58.5909 1.38509 58.8097 1.45801C58.9191 1.60384 59.0649 1.71322 59.2472 1.78613C59.4295 1.85905 59.5935 1.96842 59.7394 2.11426ZM78.6066 21.583C78.6066 21.6559 78.5701 21.8018 78.4972 22.0205C78.2055 22.3851 77.9868 22.5856 77.8409 22.6221C77.6951 22.6221 77.4034 22.6585 76.9659 22.7314C76.7472 22.5492 76.6196 22.4033 76.5831 22.2939C76.5831 22.1481 76.492 21.984 76.3097 21.8018C76.3461 21.6195 76.4008 21.4554 76.4738 21.3096C76.5831 21.1273 76.6743 20.945 76.7472 20.7627H77.0206C77.0935 20.7627 77.1847 20.7262 77.2941 20.6533C77.4399 20.5804 77.604 20.5439 77.7863 20.5439H78.1144C78.1873 20.7262 78.2784 20.9085 78.3878 21.0908C78.5336 21.2367 78.6066 21.4007 78.6066 21.583ZM59.2472 6.65332C59.2472 6.83561 59.229 7.03613 59.1925 7.25488C59.156 7.43717 59.1378 7.61947 59.1378 7.80176C59.0284 7.7653 58.8644 7.74707 58.6456 7.74707C58.4998 7.74707 58.3357 7.83822 58.1534 8.02051C57.5701 7.7653 57.1326 7.38249 56.8409 6.87207C57.0597 6.68978 57.2602 6.52572 57.4425 6.37988C57.6248 6.23405 57.8071 6.05176 57.9894 5.83301C58.281 5.86947 58.5363 5.94238 58.755 6.05176C58.9738 6.16113 59.1378 6.36165 59.2472 6.65332ZM73.8488 21.6924C73.8488 21.9476 73.7758 22.1663 73.63 22.3486C73.5206 22.4945 73.3748 22.6585 73.1925 22.8408C73.0831 22.7314 73.0102 22.6768 72.9738 22.6768C72.9008 22.6768 72.8461 22.695 72.8097 22.7314C72.7732 22.7314 72.7185 22.7314 72.6456 22.7314C72.4269 22.7314 72.2081 22.5856 71.9894 22.2939C71.7706 22.0023 71.6613 21.7471 71.6613 21.5283C71.6613 21.2002 71.8071 20.9632 72.0988 20.8174C72.3904 20.6715 72.6821 20.5986 72.9738 20.5986C73.1925 20.5986 73.393 20.7445 73.5753 21.0361C73.7576 21.2913 73.8488 21.5101 73.8488 21.6924ZM59.5753 11.4111C59.5024 11.5205 59.4295 11.6481 59.3566 11.7939C59.2836 11.9398 59.1925 12.0674 59.0831 12.1768C58.9008 12.2132 58.7368 12.2497 58.5909 12.2861C58.4451 12.3226 58.281 12.3408 58.0988 12.3408C57.8435 12.3408 57.6248 12.2679 57.4425 12.1221C57.3696 11.9762 57.2784 11.8304 57.1691 11.6846C57.0961 11.5387 57.0597 11.3747 57.0597 11.1924C57.0597 11.1195 57.0961 10.9736 57.1691 10.7549C57.3149 10.609 57.479 10.4997 57.6613 10.4268C57.8435 10.3538 58.0076 10.2262 58.1534 10.0439C58.4086 10.1169 58.6092 10.208 58.755 10.3174C58.9008 10.3903 59.0831 10.4814 59.3019 10.5908C59.3383 10.7731 59.4295 11.0465 59.5753 11.4111ZM68.8722 21.4189C68.7628 21.7471 68.617 22.0752 68.4347 22.4033C68.2889 22.7314 68.0154 22.8955 67.6144 22.8955C67.505 22.8226 67.3774 22.7679 67.2316 22.7314C67.1222 22.6585 66.9946 22.6221 66.8488 22.6221C66.63 22.3669 66.5206 22.057 66.5206 21.6924C66.5206 21.583 66.5389 21.4919 66.5753 21.4189C66.6118 21.3096 66.6482 21.2184 66.6847 21.1455C66.9764 20.9632 67.1586 20.8356 67.2316 20.7627C67.3045 20.6898 67.5415 20.6169 67.9425 20.5439C68.0883 20.6898 68.2342 20.8356 68.38 20.9814C68.5623 21.0908 68.7264 21.2367 68.8722 21.4189ZM59.6847 17.0986C59.6847 17.1351 59.6482 17.1898 59.5753 17.2627C59.5389 17.3356 59.4842 17.4085 59.4113 17.4814L59.1378 17.7549H58.4269C58.3175 17.7549 58.2264 17.7913 58.1534 17.8643C57.9711 17.7184 57.8435 17.6273 57.7706 17.5908C57.6977 17.5179 57.5336 17.445 57.2784 17.3721L57.4425 16.7158L57.3331 16.4971C57.479 16.2783 57.6613 16.0778 57.88 15.8955C58.0988 15.7132 58.354 15.6221 58.6456 15.6221C58.9008 15.6221 59.1196 15.7497 59.3019 16.0049C59.5206 16.0778 59.63 16.1689 59.63 16.2783C59.6665 16.3512 59.6847 16.6247 59.6847 17.0986ZM63.7863 21.9111C63.604 22.1299 63.4034 22.3304 63.1847 22.5127C62.9659 22.695 62.7107 22.7861 62.4191 22.7861C62.3097 22.7861 62.2003 22.7861 62.0909 22.7861C62.018 22.7497 61.9269 22.7132 61.8175 22.6768C61.7446 22.5309 61.6717 22.4033 61.5988 22.2939C61.5258 22.1481 61.4894 21.984 61.4894 21.8018V21.5283L61.9816 20.5439C62.2732 20.5439 62.5284 20.5986 62.7472 20.708C62.9659 20.8174 63.2211 20.9085 63.5128 20.9814C63.5857 21.1637 63.6222 21.3278 63.6222 21.4736C63.6222 21.583 63.6769 21.7288 63.7863 21.9111ZM59.63 21.3643C59.4477 21.7653 59.2836 22.0934 59.1378 22.3486C58.992 22.6038 58.6639 22.7314 58.1534 22.7314H57.6066C57.6066 22.4398 57.5336 22.2757 57.3878 22.2393C57.242 22.1663 57.1691 21.984 57.1691 21.6924C57.1691 21.4736 57.2238 21.2913 57.3331 21.1455C57.4425 20.9632 57.5336 20.7809 57.6066 20.5986H57.9347C58.0076 20.5986 58.0805 20.5986 58.1534 20.5986C58.2264 20.5622 58.2993 20.5439 58.3722 20.5439H58.7003L59.63 21.3643ZM59.4113 25.9033C59.4113 26.1585 59.3748 26.4137 59.3019 26.6689C59.229 26.8877 59.1925 27.1247 59.1925 27.3799C59.0102 27.4528 58.8279 27.5257 58.6456 27.5986C58.4633 27.6715 58.281 27.708 58.0988 27.708H57.5519C57.479 27.4893 57.3878 27.2887 57.2784 27.1064C57.2055 26.9242 57.1508 26.7236 57.1144 26.5049C57.1508 26.432 57.1873 26.359 57.2238 26.2861C57.2602 26.2132 57.2967 26.1403 57.3331 26.0674C57.2967 25.958 57.2784 25.8122 57.2784 25.6299C57.6066 25.5934 57.9711 25.5023 58.3722 25.3564C58.5545 25.4294 58.7185 25.5205 58.8644 25.6299C59.0467 25.7393 59.229 25.8304 59.4113 25.9033ZM59.63 31.3721C59.5935 31.6273 59.5389 31.7913 59.4659 31.8643C59.393 31.9372 59.393 32.1195 59.4659 32.4111C59.2836 32.4476 59.1378 32.5023 59.0284 32.5752C58.9191 32.6481 58.7915 32.721 58.6456 32.7939C58.4633 32.7575 58.2993 32.721 58.1534 32.6846C58.0076 32.6481 57.8435 32.6299 57.6613 32.6299C57.5883 32.4476 57.4972 32.2835 57.3878 32.1377C57.2784 31.9554 57.2238 31.7731 57.2238 31.5908V31.2627C57.406 30.7523 57.7342 30.4971 58.2081 30.4971C58.3904 30.4971 58.5545 30.5153 58.7003 30.5518C58.8826 30.5882 59.0649 30.6064 59.2472 30.6064C59.3201 30.7523 59.3748 30.8981 59.4113 31.0439C59.4842 31.1533 59.5571 31.2627 59.63 31.3721ZM59.63 36.0752C59.5571 36.4762 59.4113 36.7861 59.1925 37.0049C58.9008 37.1143 58.6456 37.1689 58.4269 37.1689C58.0988 37.1689 57.8435 37.0596 57.6613 36.8408C57.5154 36.6221 57.406 36.3669 57.3331 36.0752C57.5154 35.7106 57.8253 35.3096 58.2628 34.8721C58.4451 35.0544 58.6092 35.1273 58.755 35.0908C58.9008 35.0544 59.0649 35.1273 59.2472 35.3096C59.2836 35.4919 59.3383 35.6377 59.4113 35.7471C59.4842 35.82 59.5571 35.9294 59.63 36.0752ZM59.2472 41.1064C59.2107 41.7992 58.9373 42.346 58.4269 42.7471C58.2081 42.6012 57.9529 42.583 57.6613 42.6924L57.005 41.8721V41.5439C57.005 41.4346 57.005 41.3434 57.005 41.2705C57.0415 41.1611 57.0597 41.0518 57.0597 40.9424C57.242 40.7601 57.4425 40.6507 57.6613 40.6143C57.88 40.5413 58.0805 40.4137 58.2628 40.2314C58.6274 40.4137 58.8097 40.5778 58.8097 40.7236C58.8461 40.833 58.992 40.9606 59.2472 41.1064ZM123.984 9.22363C123.802 9.5153 123.638 9.75228 123.492 9.93457C123.382 10.0804 123.2 10.2809 122.945 10.5361H122.617C122.471 10.5361 122.343 10.5361 122.234 10.5361C122.125 10.4997 122.015 10.4997 121.906 10.5361C121.833 10.3174 121.705 10.1533 121.523 10.0439C121.341 9.89811 121.25 9.69759 121.25 9.44238C121.25 9.04134 121.341 8.80436 121.523 8.73145C121.742 8.65853 121.997 8.58561 122.289 8.5127C122.507 8.43978 122.69 8.40332 122.836 8.40332C122.909 8.40332 123.073 8.53092 123.328 8.78613C123.619 9.00488 123.838 9.15072 123.984 9.22363ZM119.718 5.55957C119.718 5.77832 119.627 5.99707 119.445 6.21582C119.299 6.39811 119.19 6.59863 119.117 6.81738C118.752 6.74447 118.369 6.67155 117.968 6.59863C117.567 6.48926 117.367 6.17936 117.367 5.66895C117.367 5.52311 117.385 5.39551 117.422 5.28613C117.494 5.1403 117.531 4.99447 117.531 4.84863C117.896 4.59342 118.26 4.46582 118.625 4.46582C118.807 4.46582 118.971 4.52051 119.117 4.62988C119.299 4.7028 119.481 4.79395 119.664 4.90332C119.664 5.0127 119.664 5.12207 119.664 5.23145C119.7 5.34082 119.718 5.4502 119.718 5.55957ZM115.015 2.11426C114.979 2.29655 114.924 2.47884 114.851 2.66113C114.815 2.84342 114.687 2.97103 114.468 3.04395C114.468 3.55436 114.213 3.80957 113.703 3.80957C113.484 3.80957 113.247 3.75488 112.992 3.64551C112.919 3.46322 112.828 3.29915 112.718 3.15332C112.609 2.97103 112.554 2.78874 112.554 2.60645C112.554 2.46061 112.591 2.31478 112.664 2.16895L113.265 1.67676H113.593C113.849 1.67676 114.122 1.78613 114.414 2.00488L115.015 2.11426ZM126.554 15.5127C126.336 15.9137 125.989 16.1143 125.515 16.1143C125.224 16.1143 124.987 16.0778 124.804 16.0049C124.659 15.8955 124.476 15.7497 124.257 15.5674V14.8564C124.257 14.6742 124.276 14.5283 124.312 14.4189C124.494 14.3096 124.659 14.2002 124.804 14.0908C124.987 13.945 125.187 13.8721 125.406 13.8721C125.479 13.8721 125.625 13.9085 125.843 13.9814C126.135 14.346 126.281 14.6012 126.281 14.7471C126.281 14.8929 126.372 15.1481 126.554 15.5127ZM108.726 1.9502C108.726 2.27832 108.544 2.5153 108.179 2.66113C107.851 2.77051 107.56 2.84342 107.304 2.87988C107.086 2.69759 106.903 2.55176 106.757 2.44238C106.648 2.33301 106.448 2.24186 106.156 2.16895C106.229 2.05957 106.284 1.9502 106.32 1.84082C106.393 1.69499 106.429 1.56738 106.429 1.45801C106.429 1.27572 106.593 1.09342 106.922 0.911133C107.286 0.728841 107.523 0.546549 107.632 0.364258C107.815 0.546549 107.979 0.710612 108.125 0.856445C108.271 0.96582 108.435 1.0752 108.617 1.18457C108.617 1.3304 108.635 1.45801 108.672 1.56738C108.708 1.67676 108.726 1.80436 108.726 1.9502ZM127.593 21.4189C127.302 21.9658 126.846 22.2393 126.226 22.2393C126.153 22.2393 126.062 22.2393 125.953 22.2393C125.843 22.2028 125.752 22.1846 125.679 22.1846C125.57 22.0023 125.461 21.82 125.351 21.6377C125.242 21.4554 125.187 21.2731 125.187 21.0908C125.187 20.8721 125.26 20.6169 125.406 20.3252C125.588 20.1794 125.789 20.1064 126.007 20.1064C126.226 20.1064 126.427 20.0518 126.609 19.9424C126.791 20.1247 127.065 20.2523 127.429 20.3252L127.593 21.4189ZM127.047 28.0361C127.047 28.1455 127.01 28.3096 126.937 28.5283C126.646 28.82 126.299 28.9658 125.898 28.9658C125.752 28.9658 125.606 28.9476 125.461 28.9111C125.351 28.8747 125.224 28.8382 125.078 28.8018C125.005 28.6559 124.932 28.5283 124.859 28.4189C124.823 28.2731 124.804 28.109 124.804 27.9268C124.804 27.8174 124.804 27.7262 124.804 27.6533C124.841 27.5439 124.859 27.4346 124.859 27.3252C124.968 27.2523 125.078 27.1976 125.187 27.1611C125.333 27.1247 125.424 27.0153 125.461 26.833C125.606 26.7601 125.752 26.7236 125.898 26.7236C126.08 26.7236 126.226 26.7783 126.336 26.8877C126.445 26.9971 126.591 27.07 126.773 27.1064C126.846 27.2523 126.901 27.3981 126.937 27.5439C127.01 27.6898 127.047 27.8538 127.047 28.0361ZM102.218 4.24707C101.963 4.3929 101.744 4.53874 101.562 4.68457C101.416 4.8304 101.198 4.90332 100.906 4.90332H100.578C100.468 4.79395 100.359 4.68457 100.25 4.5752C100.14 4.46582 100.049 4.33822 99.9762 4.19238C99.9398 4.04655 99.9033 3.93717 99.8669 3.86426C99.8669 3.75488 99.8669 3.66374 99.8669 3.59082C99.8669 3.44499 99.9033 3.33561 99.9762 3.2627C100.049 3.15332 100.086 3.02572 100.086 2.87988C100.377 2.73405 100.614 2.66113 100.797 2.66113C101.052 2.66113 101.271 2.71582 101.453 2.8252C101.672 2.93457 101.872 3.04395 102.054 3.15332V3.48145C102.054 3.62728 102.073 3.77311 102.109 3.91895C102.146 4.02832 102.182 4.1377 102.218 4.24707ZM124.093 34.2705C123.984 35.0726 123.565 35.4736 122.836 35.4736C122.471 35.4736 122.234 35.3825 122.125 35.2002C122.015 34.9814 121.888 34.7445 121.742 34.4893C121.815 34.1976 121.942 33.9242 122.125 33.6689C122.343 33.4137 122.617 33.2861 122.945 33.2861C123.127 33.2861 123.364 33.359 123.656 33.5049C123.656 33.7236 123.692 33.8695 123.765 33.9424C123.875 33.9788 123.984 34.0882 124.093 34.2705ZM96.695 7.25488C96.695 7.65592 96.5492 7.96582 96.2575 8.18457C95.9658 8.40332 95.6377 8.5127 95.2731 8.5127C95.0544 8.5127 94.8356 8.38509 94.6169 8.12988C94.3981 7.87467 94.2887 7.65592 94.2887 7.47363C94.2887 7.21842 94.3434 6.99967 94.4528 6.81738C94.5986 6.63509 94.7627 6.47103 94.945 6.3252L95.3825 6.27051C95.6742 6.34342 95.9658 6.4528 96.2575 6.59863C96.5492 6.70801 96.695 6.92676 96.695 7.25488ZM119.281 39.6299V40.1768C119.099 40.2497 118.898 40.3044 118.679 40.3408C118.497 40.3773 118.297 40.3955 118.078 40.3955C117.823 40.3955 117.586 40.3226 117.367 40.1768C117.185 40.0309 117.002 39.8851 116.82 39.7393C116.966 39.4111 117.13 39.1012 117.312 38.8096C117.531 38.5179 117.841 38.3721 118.242 38.3721C118.534 38.3721 118.771 38.5179 118.953 38.8096C119.172 39.1012 119.281 39.3747 119.281 39.6299ZM92.8122 13.1064C92.8122 13.2158 92.794 13.3252 92.7575 13.4346C92.7575 13.5439 92.7575 13.6533 92.7575 13.7627C92.5752 13.8721 92.3747 13.9814 92.1559 14.0908C91.9372 14.1637 91.7184 14.2002 91.4997 14.2002C91.3174 14.2002 91.1169 14.1637 90.8981 14.0908C90.8252 13.9085 90.7523 13.7809 90.6794 13.708C90.6065 13.6351 90.5153 13.5075 90.4059 13.3252C90.4789 12.8877 90.6065 12.5231 90.7887 12.2314C90.971 12.1585 91.1533 12.1038 91.3356 12.0674C91.5179 12.0309 91.7002 12.0127 91.8825 12.0127H92.3747C92.4841 12.195 92.5752 12.3773 92.6481 12.5596C92.7575 12.7054 92.8122 12.8877 92.8122 13.1064ZM91.1716 19.3408C91.1716 19.8877 91.0622 20.3434 90.8434 20.708C90.6611 21.0726 90.2601 21.2549 89.6403 21.2549C89.4945 21.109 89.3122 20.9814 89.0934 20.8721C88.9111 20.7262 88.82 20.5439 88.82 20.3252C88.82 20.1794 88.8382 20.0518 88.8747 19.9424C88.9111 19.833 88.9294 19.7236 88.9294 19.6143C89.1117 19.5049 89.294 19.359 89.4762 19.1768C89.6585 18.9945 89.8408 18.9033 90.0231 18.9033C90.2054 18.9033 90.3512 18.9762 90.4606 19.1221C90.57 19.2679 90.807 19.3408 91.1716 19.3408ZM112.554 42.4189C112.554 42.6742 112.518 42.8564 112.445 42.9658C112.299 43.1481 112.117 43.2575 111.898 43.2939C111.716 43.3669 111.534 43.4398 111.351 43.5127C111.169 43.3669 111.005 43.2575 110.859 43.1846C110.75 43.1481 110.604 43.0934 110.422 43.0205C110.422 42.9111 110.403 42.8018 110.367 42.6924C110.367 42.6195 110.367 42.5283 110.367 42.4189C110.367 42.3096 110.403 42.1455 110.476 41.9268C110.549 41.8174 110.677 41.6898 110.859 41.5439C111.041 41.3617 111.205 41.2705 111.351 41.2705C111.643 41.2705 111.807 41.307 111.843 41.3799C111.916 41.4528 112.062 41.5075 112.281 41.5439C112.463 41.8356 112.554 42.1273 112.554 42.4189ZM91.3903 27.2158V27.4346C91.208 27.6898 91.0622 27.9085 90.9528 28.0908C90.8799 28.2731 90.6611 28.3643 90.2966 28.3643C89.8591 28.3643 89.4762 28.2002 89.1481 27.8721C89.0752 27.5804 89.0387 27.3252 89.0387 27.1064C89.0387 26.8877 89.0934 26.7054 89.2028 26.5596C89.3486 26.4137 89.4762 26.2497 89.5856 26.0674C89.7315 26.1403 89.8591 26.1585 89.9684 26.1221C90.1143 26.0856 90.2783 26.0856 90.4606 26.1221C90.6429 26.3408 90.8434 26.4684 91.0622 26.5049C91.2809 26.5049 91.3903 26.7419 91.3903 27.2158ZM105.882 42.6924C105.882 42.984 105.773 43.221 105.554 43.4033C105.336 43.6221 105.08 43.7314 104.789 43.7314C104.461 43.7314 104.224 43.6585 104.078 43.5127C103.932 43.4033 103.823 43.2575 103.75 43.0752C103.677 42.8929 103.622 42.6924 103.586 42.4736C103.549 42.2549 103.458 42.0544 103.312 41.8721C103.531 41.8356 103.695 41.7992 103.804 41.7627C103.914 41.7262 104.005 41.6898 104.078 41.6533C104.151 41.6169 104.205 41.5804 104.242 41.5439C104.315 41.471 104.442 41.3981 104.625 41.3252C104.953 41.3981 105.244 41.5622 105.5 41.8174C105.755 42.0361 105.882 42.3278 105.882 42.6924ZM93.8512 34.2158C93.8512 34.3981 93.8148 34.5439 93.7419 34.6533C93.669 34.7627 93.596 34.8903 93.5231 35.0361C93.4502 35.0726 93.3044 35.1273 93.0856 35.2002C92.9033 35.2731 92.7757 35.3096 92.7028 35.3096C92.5934 35.3096 92.4841 35.2913 92.3747 35.2549C92.3018 35.182 92.2106 35.1455 92.1012 35.1455C92.0283 35.1455 91.9736 35.1637 91.9372 35.2002C91.9007 35.2002 91.846 35.2002 91.7731 35.2002C91.6637 34.945 91.5908 34.7809 91.5544 34.708C91.5544 34.5986 91.5544 34.3981 91.5544 34.1064L91.445 33.8877L92.0466 33.0127C92.083 33.0492 92.1742 33.1038 92.32 33.1768C92.3929 33.1768 92.4658 33.1768 92.5387 33.1768C92.6117 33.1403 92.6846 33.1221 92.7575 33.1221C92.8669 33.1221 93.0309 33.195 93.2497 33.3408C93.5049 33.4867 93.669 33.596 93.7419 33.6689C93.8148 33.9606 93.8512 34.1429 93.8512 34.2158ZM99.1012 39.3564C99.1012 39.5752 99.0283 39.7393 98.8825 39.8486C98.7367 39.958 98.6273 40.1038 98.5544 40.2861C98.4085 40.359 98.2809 40.4137 98.1716 40.4502C98.0622 40.4867 97.9346 40.5049 97.7887 40.5049C97.57 40.5049 97.3512 40.3955 97.1325 40.1768C96.9502 39.958 96.7497 39.8122 96.5309 39.7393C96.6039 39.4476 96.6768 39.1742 96.7497 38.9189C96.8591 38.6637 97.0231 38.4268 97.2419 38.208C97.57 38.208 97.9528 38.2992 98.3903 38.4814C98.8643 38.6637 99.1012 38.9554 99.1012 39.3564Z" fill="#00FF85"/>
</svg>
