<svg width="43" height="42" viewBox="0 0 43 42" fill="none" xmlns="http://www.w3.org/2000/svg">
<path d="M21.8064 7C18.0042 7 17.527 7.01663 16.0336 7.08458C14.5432 7.15284 13.5259 7.3888 12.6357 7.73501C11.7149 8.09259 10.9338 8.57093 10.1556 9.3494C9.37686 10.1276 8.89852 10.9087 8.53977 11.8292C8.19268 12.7196 7.95643 13.7373 7.88935 15.2271C7.82255 16.7205 7.80505 17.1979 7.80505 21.0001C7.80505 24.8024 7.82197 25.2781 7.88964 26.7714C7.95818 28.2618 8.19414 29.2792 8.54006 30.1694C8.89794 31.0902 9.37628 31.8713 10.1547 32.6494C10.9326 33.4282 11.7137 33.9077 12.6339 34.2653C13.5247 34.6115 14.5423 34.8475 16.0325 34.9157C17.5258 34.9837 18.0027 35.0003 21.8046 35.0003C25.6071 35.0003 26.0828 34.9837 27.5762 34.9157C29.0666 34.8475 30.0851 34.6115 30.9759 34.2653C31.8964 33.9077 32.6763 33.4282 33.4542 32.6494C34.233 31.8713 34.7113 31.0902 35.07 30.1697C35.4142 29.2792 35.6505 28.2616 35.7205 26.7717C35.7876 25.2784 35.8051 24.8024 35.8051 21.0001C35.8051 17.1979 35.7876 16.7208 35.7205 15.2274C35.6505 13.737 35.4142 12.7196 35.07 11.8295C34.7113 10.9087 34.233 10.1276 33.4542 9.3494C32.6754 8.57064 31.8967 8.0923 30.975 7.73501C30.0825 7.3888 29.0646 7.15284 27.5741 7.08458C26.0808 7.01663 25.6054 7 21.802 7H21.8064ZM20.5504 9.52294C20.9232 9.52236 21.3391 9.52294 21.8064 9.52294C25.5444 9.52294 25.9875 9.53636 27.4636 9.60344C28.8286 9.66586 29.5694 9.89395 30.063 10.0856C30.7163 10.3393 31.1821 10.6427 31.6718 11.1327C32.1618 11.6227 32.4651 12.0893 32.7195 12.7427C32.9111 13.2356 33.1395 13.9764 33.2016 15.3415C33.2687 16.8173 33.2833 17.2606 33.2833 20.9969C33.2833 24.7332 33.2687 25.1766 33.2016 26.6524C33.1392 28.0174 32.9111 28.7583 32.7195 29.2512C32.4657 29.9045 32.1618 30.3697 31.6718 30.8595C31.1818 31.3495 30.7166 31.6528 30.063 31.9065C29.57 32.0991 28.8286 32.3266 27.4636 32.389C25.9877 32.4561 25.5444 32.4706 21.8064 32.4706C18.068 32.4706 17.625 32.4561 16.1491 32.389C14.7841 32.326 14.0433 32.0979 13.5495 31.9063C12.8961 31.6525 12.4295 31.3492 11.9395 30.8592C11.4495 30.3692 11.1461 29.9037 10.8918 29.25C10.7002 28.7571 10.4718 28.0163 10.4097 26.6512C10.3426 25.1754 10.3292 24.7321 10.3292 20.9934C10.3292 17.2548 10.3426 16.8138 10.4097 15.338C10.4721 13.9729 10.7002 13.2321 10.8918 12.7386C11.1455 12.0853 11.4495 11.6186 11.9395 11.1286C12.4295 10.6386 12.8961 10.3352 13.5495 10.0809C14.043 9.8884 14.7841 9.6609 16.1491 9.59819C17.4407 9.53986 17.9412 9.52236 20.5504 9.51944V9.52294ZM29.2795 11.8475C28.352 11.8475 27.5995 12.5992 27.5995 13.527C27.5995 14.4545 28.352 15.207 29.2795 15.207C30.207 15.207 30.9595 14.4545 30.9595 13.527C30.9595 12.5995 30.207 11.847 29.2795 11.847V11.8475ZM21.8064 13.8105C17.8359 13.8105 14.6167 17.0296 14.6167 21.0001C14.6167 24.9706 17.8359 28.1883 21.8064 28.1883C25.7769 28.1883 28.9949 24.9706 28.9949 21.0001C28.9949 17.0296 25.7766 13.8105 21.8061 13.8105H21.8064ZM21.8064 16.3334C24.3836 16.3334 26.4731 18.4227 26.4731 21.0001C26.4731 23.5773 24.3836 25.6669 21.8064 25.6669C19.2289 25.6669 17.1397 23.5773 17.1397 21.0001C17.1397 18.4227 19.2289 16.3334 21.8064 16.3334Z" fill="white"/>
</svg>
