<svg width="934" height="205" viewBox="0 0 934 205" fill="none" xmlns="http://www.w3.org/2000/svg">
<mask id="mask0_118_13629" style="mask-type:alpha" maskUnits="userSpaceOnUse" x="-102" y="0" width="1036" height="205">
<rect x="-101.322" width="1034.53" height="204.568" fill="#D9D9D9"/>
</mask>
<g mask="url(#mask0_118_13629)">
<path d="M414.261 128.361L414.252 128.361L414.597 128.772C445.64 165.784 473.732 209.473 498.079 258.614C542.085 347.433 566.604 438.519 580.204 509.038L580.244 509.241L580.45 509.241L580.931 509.241L581.234 509.241L581.177 508.943C567.571 438.349 543.022 347.142 498.952 258.185C474.571 208.975 446.448 165.224 415.348 128.149C381.14 87.3654 342.869 54.1261 301.59 29.3483L301.377 29.2201L301.248 29.4332L301.002 29.8386L300.872 30.0533L301.087 30.1824C342.128 54.8173 380.202 87.8505 414.261 128.361Z" fill="#00FF85" stroke="#00FF85" stroke-width="0.5"/>
<path d="M566.215 509.041L566.256 509.241L566.46 509.241L566.941 509.241L567.248 509.241L567.186 508.94C552.627 438.355 526.368 345.412 479.513 255.229C454.423 206.934 425.715 164.117 394.19 127.966C359.519 88.2107 320.955 55.9902 279.581 32.2313L279.366 32.1075L279.241 32.3223L279.005 32.7278L278.878 32.9451L279.096 33.0703C320.379 56.7799 358.854 88.9257 393.454 128.605L393.529 128.691L393.538 128.691C424.977 164.762 453.619 207.479 478.654 255.677C525.434 345.721 551.662 438.522 566.215 509.041Z" fill="#00FF85" stroke="#00FF85" stroke-width="0.5"/>
<path d="M552.481 509.054L552.524 509.25L552.725 509.25L553.206 509.25L553.517 509.25L553.45 508.946C537.956 438.541 509.951 343.975 460.301 252.736C434.512 205.356 405.256 163.472 373.334 128.245L373.149 128.413L373.334 128.245C338.219 89.5088 299.4 58.3164 257.941 35.5576L257.721 35.437L257.601 35.6569L257.375 36.0718L257.255 36.2907L257.474 36.4108C298.832 59.1214 337.561 90.2397 372.614 128.901C404.478 164.057 433.702 205.88 459.446 253.201C509.019 344.292 536.993 438.714 552.481 509.054Z" fill="#00FF85" stroke="#00FF85" stroke-width="0.5"/>
<path d="M638.692 509.026L638.723 509.241L638.94 509.241L639.421 509.241L639.709 509.241L639.669 508.956C629.934 440.125 611.9 357.048 578.652 274.553C557.378 221.76 531.796 174.321 502.604 133.529C470.503 88.6713 433.592 51.2814 392.91 22.3998L392.705 22.2549L392.561 22.4592L392.287 22.8458L392.143 23.0496L392.346 23.1941C432.941 52.0121 469.766 89.3233 501.81 134.103C530.948 174.821 556.492 222.196 577.745 274.919C610.945 357.301 628.962 440.27 638.692 509.026Z" fill="#00FF85" stroke="#00FF85" stroke-width="0.5"/>
<path d="M594.43 509.044L594.467 509.25L594.676 509.25L595.157 509.25L595.456 509.25L595.403 508.956C582.761 438.522 559.901 349.173 518.589 261.593C494.954 211.478 467.426 166.793 436.77 128.793C403.054 86.9916 365.085 52.7146 323.92 26.9274L323.71 26.7963L323.577 27.0039L323.322 27.4L323.185 27.6127L323.399 27.7471C364.466 53.4831 402.356 87.6837 436.003 129.4C466.603 167.336 494.092 211.959 517.703 262.005C558.953 349.457 581.792 438.685 594.43 509.044Z" fill="#00FF85" stroke="#00FF85" stroke-width="0.5"/>
<path d="M369.034 24.2435C409.684 51.9402 446.783 88.0783 479.322 131.661L479.313 131.661L479.61 132.061C509.257 171.855 535.481 218.315 557.536 270.153C593.378 354.381 612.971 439.556 623.655 509.038L623.688 509.25L623.902 509.25L624.383 509.25L624.675 509.25L624.631 508.962C613.933 439.405 594.322 354.131 558.43 269.778C536.343 217.871 510.091 171.346 480.389 131.479L480.188 131.628L480.389 131.479C447.721 87.6399 410.442 51.2876 369.579 23.4437L369.373 23.3032L369.232 23.5092L368.968 23.8959L368.827 24.1026L369.034 24.2435Z" fill="#00FF85" stroke="#00FF85" stroke-width="0.5"/>
<path d="M458.122 131.077L458.122 131.068C488.078 169.811 514.791 215.149 537.525 265.848C576.057 351.773 597.245 439.022 608.91 509.041L608.945 509.25L609.157 509.25L609.638 509.25L609.933 509.25L609.885 508.959C598.215 438.874 576.998 351.496 538.415 265.454C515.545 214.444 488.641 168.834 458.447 129.9C425.241 87.08 387.612 51.7654 346.58 24.9498L346.369 24.8121L346.233 25.0238L345.978 25.4198L345.843 25.6286L346.051 25.7644C386.986 52.5182 424.537 87.7557 457.675 130.499L458.122 131.077Z" fill="#00FF85" stroke="#00FF85" stroke-width="0.5"/>
<path d="M331.357 247.947L331.366 247.938C396.417 336.7 436.363 432.875 458.419 497.953C459.497 501.136 460.895 504.856 462.5 509.089L462.561 509.25L462.734 509.25L463.234 509.25L463.596 509.25L463.468 508.911C461.834 504.611 460.42 500.853 459.336 497.642L459.336 497.642C437.242 432.451 397.207 336.064 331.975 247.134C268.498 160.589 195.926 101.138 116.255 70.4234L116.021 70.3333L115.931 70.5672L115.761 71.0104L115.672 71.2434L115.905 71.3331C195.372 101.968 267.807 161.301 331.185 247.713L331.357 247.947Z" fill="#00FF85" stroke="#00FF85" stroke-width="0.5"/>
<path d="M474.657 509.074L474.715 509.241L474.892 509.241L475.393 509.241L475.746 509.241L475.628 508.908C474.722 506.334 473.912 503.98 473.243 501.871C452.215 435.681 413.7 337.672 349.621 246.686C287.268 158.15 215.206 96.7654 135.432 64.2488L135.201 64.155L135.106 64.3848L134.927 64.8186L134.831 65.0508L135.063 65.1456C214.645 97.5895 286.561 158.845 348.825 247.247C412.827 338.12 451.304 436.029 472.322 502.164C472.984 504.242 473.769 506.555 474.657 509.074Z" fill="#00FF85" stroke="#00FF85" stroke-width="0.5"/>
<path d="M538.963 509.057L539.009 509.25L539.207 509.25L539.688 509.25L540.003 509.25L539.932 508.943C523.522 438.877 493.741 342.802 441.286 250.666C414.836 204.201 385.042 163.26 352.742 128.968C317.212 91.25 278.146 61.0859 236.64 39.3177L236.419 39.2015L236.303 39.4232L236.085 39.8381L235.97 40.0594L236.191 40.1754C277.605 61.8964 316.58 91.9874 352.038 129.631L352.22 129.46L352.038 129.631C384.289 163.863 414.032 204.752 440.446 251.149C492.822 343.135 522.56 439.066 538.963 509.057Z" fill="#00FF85" stroke="#00FF85" stroke-width="0.5"/>
<path d="M547.424 140.373L547.424 140.365C575.281 182.77 599.264 231.725 618.711 285.896C646.787 364.092 661.802 442.291 669.636 509.029L669.662 509.25L669.884 509.25L670.356 509.25L670.637 509.25L670.604 508.971C662.758 442.168 647.726 363.873 619.616 285.576C600.041 231.038 575.866 181.779 547.77 139.148C516.869 92.2619 480.79 52.7779 440.523 21.802L440.322 21.6477L440.171 21.85L439.887 22.2272L439.739 22.4248L439.935 22.5755C480.106 53.4764 516.11 92.8803 546.965 139.677L547.424 140.373Z" fill="#00FF85" stroke="#00FF85" stroke-width="0.5"/>
<path d="M314.248 249.134L314.248 249.126C380.234 335.746 421.567 430.11 444.629 494.092C445.943 497.737 447.7 502.107 449.729 507.15C449.984 507.792 450.249 508.444 450.513 509.094L450.577 509.25L450.745 509.25L451.255 509.25L451.622 509.25L451.487 508.908C451.335 508.522 451.177 508.133 451.021 507.749C450.89 507.426 450.761 507.106 450.637 506.795L450.637 506.795C448.607 501.748 446.862 497.406 445.552 493.771C422.41 429.59 380.911 334.844 314.574 247.96C250.03 163.415 176.985 105.869 97.4552 76.9565L97.2199 76.8709L97.1347 77.1063L96.9742 77.5495L96.8892 77.7842L97.1238 77.8695C176.459 106.713 249.355 164.133 313.799 248.547L314.248 249.134Z" fill="#00FF85" stroke="#00FF85" stroke-width="0.5"/>
<path d="M512.59 509.064L512.639 509.25L512.832 509.25L513.322 509.25L513.647 509.25L513.564 508.936C495.407 440.021 462.02 341.295 403.937 247.829C345.23 153.352 274.964 86.1472 195.086 48.083L194.863 47.9765L194.754 48.1988L194.547 48.6231L194.436 48.85L194.664 48.9587C274.359 86.9252 344.494 153.997 403.106 248.338L403.18 248.456L403.189 248.456C461.125 341.727 494.458 440.243 512.59 509.064Z" fill="#00FF85" stroke="#00FF85" stroke-width="0.5"/>
<path d="M525.682 509.051L525.729 509.241L525.925 509.241L526.416 509.241L526.735 509.241L526.658 508.93C509.361 439.364 477.777 341.903 422.508 249.021C395.406 203.49 365.111 163.473 332.443 130.114C296.516 93.4157 257.233 64.261 215.689 43.4834L215.463 43.3706L215.352 43.5971L215.145 44.0214L215.036 44.244L215.257 44.3549C294.916 84.2063 364.371 153.23 421.672 249.522C476.851 342.243 508.392 439.56 525.682 509.051Z" fill="#00FF85" stroke="#00FF85" stroke-width="0.5"/>
<path d="M385.246 248.278L385.246 248.27C445.729 341.792 480.783 441.171 499.705 509.058L499.756 509.241L499.946 509.241L500.437 509.241L500.766 509.241L500.678 508.924C481.7 440.8 446.48 340.924 385.602 247.033C325.629 154.537 254.721 89.2747 174.843 53.0786L174.616 52.9757L174.512 53.2024L174.314 53.6361L174.21 53.8642L174.438 53.9677C254.124 90.0776 324.899 155.208 384.786 247.569L385.246 248.278Z" fill="#00FF85" stroke="#00FF85" stroke-width="0.5"/>
<path d="M487.039 509.076L487.095 509.25L487.278 509.25L487.768 509.25L488.109 509.25L488.007 508.925C487.743 508.086 487.489 507.268 487.263 506.488L487.262 506.487C467.331 439.297 430.374 339.685 367.493 246.661C306.303 156.146 234.798 92.8173 154.958 58.4704L154.729 58.372L154.63 58.6002L154.441 59.034L154.341 59.2642L154.571 59.3634C234.219 93.6262 305.588 156.824 366.683 247.205L366.757 247.315L366.767 247.315C429.525 340.193 466.424 439.663 486.33 506.761C486.547 507.498 486.784 508.273 487.039 509.076Z" fill="#00FF85" stroke="#00FF85" stroke-width="0.5"/>
<path d="M654.022 509.023L654.051 509.241L654.27 509.241L654.742 509.241L655.027 509.241L654.99 508.959C646.209 441.043 629.695 360.296 599.044 279.82C578.601 226.149 553.718 177.795 525.064 136.079L524.858 136.221L525.064 136.079C493.549 90.212 457.045 51.775 416.56 21.8556L416.361 21.7082L416.212 21.9066L415.929 22.2838L415.778 22.4852L415.98 22.6349C456.377 52.4897 492.806 90.8472 524.265 136.636C552.874 178.277 577.73 226.567 598.143 280.167C628.748 360.531 645.245 441.181 654.022 509.023Z" fill="#00FF85" stroke="#00FF85" stroke-width="0.5"/>
<path d="M883.071 508.991L883.071 509.241L883.321 509.241L883.793 509.241L884.043 509.241L884.043 508.991C884.024 471.424 882.117 432.367 877.566 392.686C870.22 328.595 856.565 269.047 836.96 215.701C815.4 157.026 786.331 105.063 750.572 61.2672L750.414 61.0732L750.22 61.2319L749.852 61.5337L749.659 61.6918L749.817 61.8851C785.499 105.596 814.514 157.453 836.038 216.034L836.273 215.948L836.038 216.034C855.618 269.3 869.264 328.771 876.597 392.79L876.607 392.877L876.617 392.886C881.149 432.497 883.052 471.487 883.071 508.991Z" fill="#00FF85" stroke="#00FF85" stroke-width="0.5"/>
<path d="M898.744 404.902C902.112 440.326 903.414 475.223 903.188 508.989L903.186 509.241L903.438 509.241L903.91 509.241L904.158 509.241L904.16 508.992C904.387 475.189 903.084 440.263 899.713 404.799C893.547 340 880.922 279.669 862.176 225.475C841.561 165.866 813.247 112.884 778.027 68.0131L777.871 67.8153L777.675 67.9716L777.306 68.2639L777.112 68.4185L777.265 68.6141C812.42 113.399 840.68 166.284 861.26 225.799C879.972 279.922 892.59 340.176 898.743 404.902L898.744 404.902Z" fill="#00FF85" stroke="#00FF85" stroke-width="0.5"/>
<path d="M786.076 198.117C807.296 249.662 822.932 307.505 832.549 370.056L832.549 370.065L832.552 370.084C839.875 417.7 843.244 464.553 843.98 508.995L843.985 509.241L844.23 509.241L844.702 509.241L844.957 509.241L844.952 508.987C844.216 464.507 840.836 417.602 833.518 369.933C823.896 307.303 808.23 249.376 786.982 197.748L786.751 197.843L786.982 197.748C763.599 140.968 733.113 91.0613 696.362 49.4257L696.198 49.2399L696.01 49.4023L695.652 49.7135L695.461 49.8787L695.628 50.0677C732.301 91.6198 762.74 141.431 786.076 198.117Z" fill="#00FF85" stroke="#00FF85" stroke-width="0.5"/>
<path d="M863.342 509.002L863.344 509.25L863.592 509.25L864.064 509.25L864.316 509.25L864.314 508.998C863.974 467.876 861.368 424.829 855.504 381.074C847.006 317.709 832.332 258.962 811.896 206.475C789.41 148.742 759.623 97.8075 723.354 55.0871L723.193 54.8974L723.002 55.0576L722.644 55.3593L722.451 55.521L722.614 55.7124C758.806 98.3486 788.547 149.187 810.986 206.826C831.397 259.243 846.052 317.904 854.537 381.206L854.566 381.423L854.575 381.423C860.415 425.052 863.003 467.985 863.342 509.002Z" fill="#00FF85" stroke="#00FF85" stroke-width="0.5"/>
<path d="M920.916 417.458L920.916 417.467L920.917 417.477C923.267 448.539 924.06 479.178 923.654 508.997L923.65 509.25L923.904 509.25L924.376 509.25L924.622 509.25L924.626 509.004C925.041 479.162 924.248 448.499 921.887 417.401C916.93 351.914 905.354 290.81 887.496 235.767C867.853 175.234 840.323 121.243 805.66 75.2871L805.51 75.0881L805.311 75.2375L804.933 75.5204L804.732 75.6708L804.884 75.8711C839.481 121.731 866.968 175.624 886.577 236.063C904.41 291.013 915.961 352.047 920.916 417.458Z" fill="#00FF85" stroke="#00FF85" stroke-width="0.5"/>
<path d="M297.086 250.329L297.086 250.337L296.64 249.776C231.168 167.352 157.838 111.846 78.6827 84.7736L78.4464 84.6928L78.5269 84.4564L78.678 84.0132L78.7587 83.7763L78.9955 83.8573C158.356 110.996 231.836 166.617 297.4 249.173C364.775 334.01 407.71 427.105 431.862 490.259C433.186 493.716 434.936 497.837 436.958 502.601L437.155 503.065L297.086 250.329ZM297.086 250.329C364.134 334.913 406.882 427.639 430.961 490.598C432.323 494.163 434.132 498.425 436.219 503.342L436.26 503.44L436.491 503.342L436.261 503.44C437.034 505.26 437.837 507.155 438.658 509.097L438.723 509.25L438.888 509.25L439.398 509.25L439.774 509.25L439.629 508.904C438.788 506.894 437.957 504.942 437.155 503.066L297.086 250.329Z" fill="#00FF85" stroke="#00FF85" stroke-width="0.5"/>
<path d="M685.561 509.026L685.584 509.25L685.809 509.25L686.281 509.25L686.559 509.25L686.53 508.974C679.59 443.482 665.993 367.753 640.366 291.795C621.67 236.399 598.241 186.234 570.73 142.678L570.519 142.812L570.73 142.678C540.462 94.774 504.827 54.2524 464.816 22.2293L464.62 22.0727L464.464 22.2688L464.171 22.6366L464.016 22.8317L464.211 22.9875C504.137 54.9346 539.698 95.3848 569.911 143.2C597.379 186.68 620.782 236.78 639.449 292.105C665.052 367.964 678.633 443.598 685.561 509.026Z" fill="#00FF85" stroke="#00FF85" stroke-width="0.5"/>
<path d="M752.546 509.007L752.56 509.241L752.795 509.241L753.267 509.241L753.533 509.241L753.517 508.975C749.853 450.764 741.45 386.58 724.954 321.611C710.044 262.885 689.826 209.174 664.856 161.988C637.393 110.084 603.799 65.3748 564.997 29.1066L564.813 28.9345L564.643 29.12L564.322 29.4689L564.154 29.6514L564.335 29.8208C603.054 66.0095 636.588 110.636 663.999 162.448C688.929 209.567 709.124 263.202 724.016 321.856C740.484 386.742 748.884 450.857 752.546 509.007Z" fill="#00FF85" stroke="#00FF85" stroke-width="0.5"/>
<path d="M735.29 509.009L735.307 509.241L735.539 509.241L736.011 509.241L736.28 509.241L736.26 508.973C731.841 448.63 722.229 381.38 703.58 313.421C687.688 255.507 666.63 202.673 640.99 156.392C612.79 105.479 578.648 61.8161 539.506 26.6139L539.32 26.4461L539.152 26.6333L538.841 26.9822L538.675 27.168L538.86 27.3346C577.919 62.4582 611.99 106.038 640.147 156.861C665.746 203.074 686.781 255.833 702.645 313.676C721.265 381.55 730.873 448.729 735.29 509.009Z" fill="#00FF85" stroke="#00FF85" stroke-width="0.5"/>
<path d="M513.697 25.3764C553.064 59.4417 587.66 101.971 616.523 151.79L616.521 151.792C642.771 197.1 664.608 248.982 681.444 305.996C702.31 376.698 713.192 446.817 718.402 509.021L718.421 509.25L718.651 509.25L719.123 509.25L719.395 509.25L719.372 508.979C714.151 446.713 703.264 376.511 682.377 305.722C665.531 248.638 643.651 196.69 617.369 151.305L617.152 151.431L617.369 151.305C588.451 101.392 553.789 58.7762 514.336 24.64L514.147 24.4768L513.983 24.665L513.672 25.0233L513.507 25.2124L513.697 25.3764Z" fill="#00FF85" stroke="#00FF85" stroke-width="0.5"/>
<path d="M488.798 23.9179C528.444 56.9073 563.521 98.374 593.067 147.172L593.067 147.182L593.103 147.241C619.976 191.635 642.605 242.631 660.366 298.805C683.563 372.166 695.766 445.104 701.816 509.024L701.837 509.25L702.065 509.25L702.537 509.25L702.812 509.25L702.786 508.977C696.724 444.993 684.515 371.972 661.287 298.513C643.506 242.268 620.842 191.207 593.927 146.737L593.713 146.867L593.927 146.737C564.32 97.833 529.157 56.2549 489.42 23.1753L489.229 23.0163L489.069 23.2063L488.767 23.5646L488.605 23.757L488.798 23.9179Z" fill="#00FF85" stroke="#00FF85" stroke-width="0.5"/>
<path d="M824.969 508.997L824.975 509.241L825.218 509.241L825.69 509.241L825.947 509.241L825.94 508.984C824.741 461.346 820.511 410.734 811.588 359.291C800.861 297.416 784.242 240.31 762.191 189.558C737.939 133.741 706.782 84.8715 669.568 44.3018L669.399 44.1175L669.215 44.2867L668.865 44.6073L668.681 44.7763L668.85 44.9604C705.985 85.438 737.085 134.221 761.298 189.946C783.312 240.619 799.912 297.649 810.623 359.461L810.659 359.669L810.669 359.669C819.553 410.984 823.781 461.471 824.969 508.997Z" fill="#00FF85" stroke="#00FF85" stroke-width="0.5"/>
<path d="M770.123 509.004L770.135 509.241L770.372 509.241L770.844 509.241L771.108 509.241L771.094 508.978C768.139 453.105 760.878 392.118 746.44 330.3C732.54 270.764 713.182 216.194 688.912 168.103C662.214 115.209 629.186 69.452 590.744 32.1179L590.565 31.9439L590.39 32.1229L590.06 32.4623L589.885 32.6417L590.065 32.816C628.426 70.0793 661.384 115.742 688.04 168.545C712.282 216.559 731.608 271.052 745.491 330.517C759.911 392.264 767.159 453.183 770.123 509.004Z" fill="#00FF85" stroke="#00FF85" stroke-width="0.5"/>
<path d="M788.813 349.296L788.813 349.306L788.818 349.329C799.444 404.317 804.616 458.467 806.334 509.009L806.342 509.25L806.584 509.25L807.056 509.25L807.315 509.25L807.306 508.992C805.587 458.401 800.413 404.205 789.771 349.15C777.959 288.039 760.404 231.772 737.588 181.897C712.496 127.042 680.687 79.2099 643.048 39.725L642.876 39.545L642.695 39.7157L642.356 40.0363L642.173 40.2087L642.346 40.3906C679.915 79.7936 711.665 127.54 736.709 182.294C759.485 232.084 777.017 288.266 788.813 349.296Z" fill="#00FF85" stroke="#00FF85" stroke-width="0.5"/>
<path d="M788.049 509.002L788.059 509.241L788.299 509.241L788.771 509.241L789.032 509.241L789.021 508.98C786.707 455.645 780.532 397.987 768.049 339.47C755.179 279.142 736.718 223.714 713.156 174.736C687.251 120.861 654.819 74.0669 616.764 35.6574L616.59 35.4816L616.412 35.654L616.072 35.984L615.891 36.16L616.069 36.3394C654.043 74.6678 686.416 121.377 712.28 175.16C735.795 224.07 754.244 279.421 767.098 339.678C779.564 398.126 785.737 455.726 788.049 509.002Z" fill="#00FF85" stroke="#00FF85" stroke-width="0.5"/>
<path d="M322.222 509.117L322.294 509.241L322.437 509.241L322.985 509.241L323.421 509.241L323.2 508.864C318.277 500.473 312.854 492.442 308.229 485.597C305.472 481.513 303.096 477.991 301.249 475.025C268.541 422.547 213.746 346.474 138.454 282.076C65.1828 219.412 -10.4836 182.28 -86.458 171.749L-86.7052 171.714L-86.7399 171.962L-86.806 172.433L-86.8407 172.681L-86.5927 172.715C-10.8292 183.221 64.6758 220.253 137.818 282.814C213.018 347.13 267.745 423.118 300.419 475.544L300.492 475.662L300.502 475.662C302.353 478.621 304.709 482.113 307.428 486.141L307.635 486.001L307.428 486.141C312.007 492.912 317.355 500.846 322.222 509.117Z" fill="#00FF85" stroke="#00FF85" stroke-width="0.5"/>
<path d="M60.6191 92.017C139.432 117.293 213.042 170.766 279.398 250.964L279.389 250.964L279.727 251.374C348.031 334.054 392.293 425.391 417.407 487.453C418.811 490.925 420.661 495.062 422.795 499.832L422.905 500.078C424.179 502.926 425.529 505.952 426.907 509.091L426.972 509.241L427.136 509.241L427.655 509.241L428.037 509.241L427.884 508.891C426.477 505.674 425.098 502.59 423.795 499.685L423.536 499.106C421.464 494.475 419.672 490.468 418.315 487.096L418.314 487.096C393.18 424.97 348.867 333.544 280.48 250.753C213.934 170.197 140.067 116.472 60.9134 91.0883L60.6736 91.0114L60.5984 91.2517L60.4569 91.7043L60.3827 91.9412L60.6191 92.017Z" fill="#00FF85" stroke="#00FF85" stroke-width="0.5"/>
<path d="M369.226 509.114L369.295 509.25L369.448 509.25L369.977 509.25L370.385 509.25L370.199 508.886C366.373 501.403 362.311 494.251 358.762 488.009L358.383 487.341C356.022 483.182 353.978 479.58 352.385 476.531C322.765 419.706 272.191 336.729 199.507 264.201C128.777 193.624 53.5373 149.247 -24.1354 132.327L-24.378 132.274L-24.4325 132.516L-24.5364 132.979L-24.5915 133.224L-24.3457 133.278C53.1179 150.153 128.2 194.424 198.814 264.885C271.402 337.327 321.92 420.208 351.517 476.98C353.2 480.21 355.383 484.052 357.912 488.492C361.424 494.669 365.434 501.727 369.226 509.114Z" fill="#00FF85" stroke="#00FF85" stroke-width="0.5"/>
<path d="M357.635 509.107L357.705 509.241L357.856 509.241L358.384 509.241L358.799 509.241L358.606 508.874C354.42 500.928 349.905 493.332 345.997 486.76C343.41 482.412 341.184 478.663 339.46 475.509C309.028 419.758 257.339 338.508 183.928 268.017C112.498 199.42 37.0979 156.883 -40.188 141.595L-40.4317 141.547L-40.4814 141.79L-40.5758 142.253L-40.6262 142.499L-40.3794 142.548C36.6968 157.793 111.939 200.235 183.251 268.717C256.565 339.122 308.197 420.287 338.596 475.975L338.667 476.105L338.686 476.105C340.314 479.081 342.383 482.567 344.762 486.572L345.171 487.26L345.386 487.133L345.171 487.261C349.041 493.768 353.494 501.268 357.635 509.107Z" fill="#00FF85" stroke="#00FF85" stroke-width="0.5"/>
<path d="M345.94 509.11L346.011 509.241L346.16 509.241L346.698 509.241L347.118 509.241L346.917 508.871C342.458 500.675 337.588 492.833 333.397 486.083L333.317 485.954L333.129 485.651C330.564 481.516 328.349 477.944 326.628 474.93L326.411 475.054L326.628 474.93C295.403 420.263 242.638 340.729 168.566 272.275C96.4749 205.66 20.9511 164.943 -55.9197 151.26L-56.1644 151.216L-56.2093 151.461L-56.2943 151.923L-56.3398 152.17L-56.0922 152.214C20.5779 165.858 95.9423 206.481 167.905 272.982C241.889 341.351 294.596 420.791 325.788 475.404L326.005 475.28L325.788 475.404C327.566 478.511 329.853 482.202 332.495 486.463L332.639 486.695C336.77 493.357 341.549 501.064 345.94 509.11Z" fill="#00FF85" stroke="#00FF85" stroke-width="0.5"/>
<path d="M-8.01915 124.394C69.7998 142.909 144.681 189.023 214.547 261.477L214.547 261.477C286.371 335.965 335.728 420.552 364.485 478.399C366.086 481.626 368.158 485.439 370.555 489.852L370.71 490.138L370.93 490.018L370.711 490.138C373.826 495.862 377.335 502.327 380.713 509.111L380.782 509.25L380.936 509.25L381.465 509.25L381.868 509.25L381.689 508.889C378.279 502.01 374.718 495.462 371.565 489.673C369.1 485.145 366.979 481.246 365.358 477.97L365.358 477.969C336.578 420.068 287.175 335.385 215.256 260.81C145.272 188.233 70.2316 142.016 -7.79012 123.445L-8.0317 123.388L-8.09082 123.629L-8.2041 124.091L-8.26403 124.336L-8.01915 124.394Z" fill="#00FF85" stroke="#00FF85" stroke-width="0.5"/>
<path d="M230.402 258.328C161.345 183.92 86.709 135.97 8.59045 115.793L8.3502 115.731L8.41045 115.49L8.52376 115.038L8.58492 114.793L8.82881 114.856C87.1712 135.097 161.985 183.172 231.175 257.739C302.272 334.371 350.476 420.751 378.387 479.718M230.402 258.328L378.161 479.825M230.402 258.328L230.402 258.337L230.469 258.409C301.481 334.943 349.631 421.227 377.52 480.139L377.746 480.032L230.402 258.328ZM378.387 479.718L378.161 479.825M378.387 479.718C378.387 479.718 378.387 479.718 378.387 479.718L378.161 479.825M378.387 479.718C379.971 483.051 382.026 487.036 384.424 491.648L384.203 491.763C381.805 487.152 379.747 483.163 378.161 479.825M392.916 508.981L392.691 509.09C392.673 509.054 392.656 509.018 392.638 508.981L392.916 508.981ZM392.916 508.981L392.916 508.731L392.795 508.731C392.835 508.815 392.875 508.898 392.916 508.981ZM8.76627 115.098L9.00879 115.159L9.00831 115.161C8.92763 115.14 8.84696 115.119 8.76627 115.098ZM8.76627 115.098L8.70373 115.34C8.70434 115.341 8.70495 115.341 8.70556 115.341L8.76627 115.098ZM383.575 492.095L383.797 491.98L383.575 492.095L383.575 492.095Z" fill="#00FF85" stroke="#00FF85" stroke-width="0.5"/>
<path d="M404.87 484.291C378.782 423.212 333.128 333.455 263.787 252.72C196.316 174.164 122.089 122.335 43.1806 98.6777L42.9394 98.6054L42.8689 98.8471L42.7367 99.2997L42.6671 99.538L42.9049 99.6093C121.592 123.188 195.646 174.89 262.999 253.278L262.999 253.287L263.059 253.357C332.316 333.992 377.918 423.651 403.986 484.676C405.47 488.151 407.417 492.286 409.672 497.075C411.437 500.818 413.344 504.862 415.259 509.094L415.325 509.241L415.487 509.241L416.006 509.241L416.394 509.241L416.234 508.887C414.279 504.576 412.343 500.463 410.549 496.663C408.292 491.872 406.35 487.746 404.87 484.291ZM404.87 484.291L404.64 484.389L404.87 484.29C404.87 484.291 404.87 484.291 404.87 484.291ZM43.1088 98.9172L43.3488 98.9872L43.3483 98.9891C43.2685 98.9651 43.1887 98.9411 43.1088 98.9172ZM43.1088 98.9172L43.0371 99.1566C43.0376 99.1568 43.0382 99.157 43.0388 99.1572L43.1088 98.9172ZM416.006 508.991L415.731 508.991C415.747 509.025 415.763 509.06 415.778 509.094L416.006 508.991ZM416.006 508.991L416.006 508.741L415.892 508.741C415.93 508.824 415.968 508.907 416.006 508.991Z" fill="#00FF85" stroke="#00FF85" stroke-width="0.5"/>
<path d="M25.5872 107.55C103.891 129.39 178.139 179.09 246.293 255.292L246.274 255.292L246.646 255.709C316.809 334.288 363.704 422.269 390.696 482.238C392.227 485.647 394.241 489.716 396.572 494.42C398.809 498.937 401.262 503.894 403.696 509.097L403.764 509.241L403.923 509.241L404.442 509.241L404.835 509.241L404.668 508.885C402.328 503.888 399.971 499.11 397.813 494.738L397.445 493.991L397.444 493.991L397.408 493.917C395.1 489.251 393.105 485.216 391.586 481.844C364.573 421.812 317.625 333.743 247.378 255.065C179.018 178.508 104.488 128.556 25.8443 106.616L25.6017 106.548L25.5358 106.791L25.4131 107.244L25.3481 107.484L25.5872 107.55Z" fill="#00FF85" stroke="#00FF85" stroke-width="0.5"/>
<path d="M319.914 486.099L319.914 486.1C324.323 492.899 329.455 500.842 334.142 509.123L334.214 509.25L334.36 509.25L334.898 509.25L335.326 509.25L335.116 508.877C330.417 500.549 325.254 492.566 320.83 485.727L320.731 485.573L320.521 485.709L320.731 485.573C318.03 481.404 315.701 477.806 313.891 474.775C281.911 421.202 228.116 343.394 153.401 276.968C80.6967 212.333 5.08742 173.418 -71.3493 161.32L-71.5949 161.281L-71.6351 161.527L-71.7106 161.989L-71.7512 162.237L-71.503 162.276C4.72327 174.337 80.1721 213.159 152.758 277.691C227.373 344.033 281.109 421.747 313.056 475.266C314.74 478.096 316.878 481.404 319.333 485.2L319.914 486.099Z" fill="#00FF85" stroke="#00FF85" stroke-width="0.5"/>
<path d="M287.653 475.841L287.643 475.841L287.894 476.227C289.795 479.146 292.224 482.601 295.036 486.598C299.709 493.237 305.171 501.001 310.16 509.122L310.233 509.241L310.373 509.241L310.93 509.241L311.376 509.241L311.143 508.86C306.118 500.654 300.607 492.815 295.9 486.12L295.842 486.037L295.841 486.036C293.028 482.047 290.614 478.6 288.719 475.69C255.313 424.316 199.563 349.969 123.734 287.589C49.9331 226.887 -25.7527 191.538 -101.236 182.545L-101.484 182.515L-101.514 182.763L-101.571 183.235L-101.601 183.483L-101.352 183.513C-26.0796 192.483 49.4438 227.743 123.114 288.343C198.663 350.485 254.253 424.532 287.653 475.841Z" fill="#00FF85" stroke="#00FF85" stroke-width="0.5"/>
<path d="M282.748 487.478L282.95 487.331L282.748 487.479L282.869 487.645C287.516 493.992 292.926 501.384 297.919 509.126L297.993 509.241L298.129 509.241L298.686 509.241L299.144 509.241L298.896 508.856C293.804 500.927 288.267 493.359 283.529 486.9L283.198 486.448C280.477 482.735 278.123 479.523 276.275 476.79L276.275 476.79C242.189 426.518 185.542 353.907 109.202 293.536C34.9194 234.787 -40.7574 201.193 -115.722 193.718L-115.971 193.694L-115.995 193.942L-116.043 194.414L-116.068 194.663L-115.819 194.687C-41.0656 202.14 34.4385 235.647 108.599 294.296C184.828 354.586 241.423 427.115 275.474 477.334C277.272 479.99 279.534 483.083 282.135 486.64L282.748 487.478Z" fill="#00FF85" stroke="#00FF85" stroke-width="0.5"/>
</g>
</svg>
