<svg width="1295" height="489" viewBox="0 0 1295 489" fill="none" xmlns="http://www.w3.org/2000/svg">
<path d="M511.22 381.84L511.229 381.84L510.885 381.43C479.841 344.417 451.749 300.728 427.402 251.587C383.396 162.768 358.877 71.6823 345.277 1.16306L345.238 0.960397L345.031 0.960397L344.55 0.960397L344.247 0.960397L344.304 1.2577C357.91 71.8521 382.46 163.059 426.529 252.016C450.911 301.226 479.033 344.977 510.133 382.053C544.341 422.836 582.612 456.075 623.891 480.853L624.105 480.981L624.234 480.768L624.479 480.362L624.609 480.148L624.394 480.019C583.353 455.384 545.28 422.351 511.22 381.84Z" fill="#00FF85" stroke="#00FF85" stroke-width="0.5"/>
<path d="M359.266 1.15986L359.225 0.960398L359.021 0.960398L358.54 0.960398L358.233 0.960398L358.295 1.2609C372.854 71.8459 399.113 164.789 445.968 254.972C471.058 303.267 499.766 346.084 531.291 382.235C565.962 421.99 604.526 454.211 645.9 477.97L646.115 478.094L646.24 477.879L646.476 477.473L646.603 477.256L646.385 477.131C605.102 453.421 566.627 421.275 532.027 381.596L531.952 381.51L531.943 381.51C500.505 345.439 471.862 302.722 446.827 254.525C400.047 164.48 373.82 71.6791 359.266 1.15986Z" fill="#00FF85" stroke="#00FF85" stroke-width="0.5"/>
<path d="M373.001 1.14723L372.957 0.951L372.756 0.951L372.275 0.951L371.964 0.951L372.031 1.25474C387.525 71.6606 415.53 166.226 465.181 257.466C490.969 304.845 520.225 346.73 552.147 381.956L552.333 381.788L552.147 381.956C587.262 420.692 626.082 451.885 667.54 474.644L667.76 474.764L667.88 474.544L668.107 474.129L668.226 473.91L668.007 473.79C626.649 451.08 587.92 419.961 552.867 381.3C521.003 346.144 491.779 304.322 466.035 257C416.462 165.91 388.488 71.4873 373.001 1.14723Z" fill="#00FF85" stroke="#00FF85" stroke-width="0.5"/>
<path d="M286.789 1.17539L286.758 0.960422L286.541 0.960422L286.06 0.960422L285.772 0.960422L285.812 1.24543C295.547 70.0762 313.581 153.153 346.829 235.648C368.104 288.441 393.686 335.88 422.877 376.672C454.978 421.53 491.889 458.92 532.572 487.801L532.776 487.946L532.92 487.742L533.194 487.355L533.339 487.152L533.135 487.007C492.54 458.189 455.715 420.878 423.671 376.098C394.534 335.38 368.989 288.005 347.736 235.282C314.536 152.9 296.52 69.9316 286.789 1.17539Z" fill="#00FF85" stroke="#00FF85" stroke-width="0.5"/>
<path d="M331.051 1.15681L331.014 0.950996L330.805 0.950996L330.324 0.950996L330.025 0.950996L330.078 1.24515C342.72 71.6792 365.58 161.028 406.892 248.608C430.527 298.723 458.055 343.408 488.711 381.408C522.427 423.209 560.396 457.486 601.561 483.274L601.771 483.405L601.904 483.197L602.159 482.801L602.296 482.588L602.082 482.454C561.016 456.718 523.125 422.517 489.478 380.801C458.878 342.865 431.39 298.242 407.778 248.196C366.528 160.744 343.689 71.5158 331.051 1.15681Z" fill="#00FF85" stroke="#00FF85" stroke-width="0.5"/>
<path d="M556.448 485.958C515.798 458.261 478.698 422.123 446.16 378.54L446.169 378.54L445.871 378.14C416.224 338.347 390 291.886 367.946 240.049C332.103 155.82 312.51 70.6452 301.826 1.16303L301.794 0.951024L301.579 0.951024L301.098 0.951024L300.806 0.951024L300.851 1.23902C311.548 70.796 331.16 156.07 367.051 240.424C389.138 292.33 415.391 338.855 445.093 378.722L445.293 378.573L445.093 378.722C477.76 422.561 515.039 458.914 555.902 486.757L556.108 486.898L556.249 486.692L556.513 486.305L556.655 486.099L556.448 485.958Z" fill="#00FF85" stroke="#00FF85" stroke-width="0.5"/>
<path d="M467.359 379.125L467.359 379.133C437.403 340.39 410.69 295.052 387.956 244.354C349.424 158.428 328.236 71.1795 316.571 1.15992L316.536 0.950994L316.324 0.950994L315.843 0.950994L315.548 0.950994L315.596 1.24207C327.267 71.3272 348.483 158.705 387.066 244.747C409.936 295.758 436.841 341.367 467.034 380.301C500.24 423.121 537.869 458.436 578.902 485.251L579.112 485.389L579.249 485.177L579.503 484.781L579.638 484.573L579.43 484.437C538.496 457.683 500.945 422.445 467.807 379.702L467.359 379.125Z" fill="#00FF85" stroke="#00FF85" stroke-width="0.5"/>
<path d="M594.125 262.254L594.115 262.263C529.064 173.501 489.118 77.3257 467.062 12.2477C465.985 9.06499 464.586 5.34557 462.981 1.11242L462.92 0.951008L462.748 0.951008L462.247 0.951008L461.885 0.951008L462.014 1.28978C463.647 5.59035 465.061 9.34838 466.145 12.5587L466.145 12.559C488.239 77.7498 528.275 174.137 593.506 263.067C656.983 349.612 729.555 409.063 809.227 439.778L809.46 439.868L809.55 439.634L809.72 439.191L809.809 438.958L809.576 438.868C730.109 408.234 657.674 348.9 594.297 262.488L594.125 262.254Z" fill="#00FF85" stroke="#00FF85" stroke-width="0.5"/>
<path d="M450.825 1.12731L450.766 0.960406L450.589 0.960406L450.089 0.960406L449.736 0.960406L449.853 1.29341C450.759 3.86714 451.57 6.22158 452.239 8.32994C473.266 74.5205 511.781 172.529 575.86 263.516C638.213 352.051 710.275 413.436 790.05 445.952L790.28 446.046L790.375 445.816L790.554 445.383L790.65 445.15L790.418 445.055C710.837 412.612 638.92 351.356 576.656 262.954C512.654 172.081 474.177 74.172 453.159 8.03716C452.497 5.95934 451.713 3.64656 450.825 1.12731Z" fill="#00FF85" stroke="#00FF85" stroke-width="0.5"/>
<path d="M386.518 1.14399L386.473 0.951031L386.274 0.951031L385.793 0.951031L385.478 0.951031L385.55 1.25804C401.96 71.3244 431.74 167.399 484.195 259.535C510.645 306 540.439 346.941 572.739 381.234C608.269 418.951 647.335 449.115 688.841 470.883L689.063 471L689.179 470.778L689.396 470.363L689.512 470.142L689.29 470.026C647.876 448.305 608.901 418.214 573.443 380.57L573.261 380.742L573.443 380.57C541.193 346.338 511.449 305.449 485.035 259.052C432.66 167.066 402.921 71.1352 386.518 1.14399Z" fill="#00FF85" stroke="#00FF85" stroke-width="0.5"/>
<path d="M378.057 369.828L378.057 369.836C350.2 327.431 326.217 278.476 306.77 224.305C278.695 146.109 263.679 67.9104 255.845 1.17188L255.82 0.95102L255.597 0.95102L255.125 0.95102L254.844 0.95102L254.877 1.23019C262.723 68.0333 277.755 146.328 305.866 224.625C325.44 279.163 349.615 328.423 377.711 371.053C408.613 417.939 444.692 457.423 484.958 488.399L485.159 488.553L485.311 488.351L485.594 487.974L485.742 487.776L485.546 487.626C445.375 456.725 409.371 417.321 378.516 370.524L378.057 369.828Z" fill="#00FF85" stroke="#00FF85" stroke-width="0.5"/>
<path d="M611.233 261.067L611.233 261.076C545.247 174.455 503.914 80.0908 480.853 16.1093C479.539 12.4645 477.781 8.0942 475.752 3.0512C475.497 2.40895 475.232 1.75747 474.968 1.10695L474.905 0.951038L474.736 0.951038L474.227 0.951038L473.859 0.951038L473.994 1.29293C474.146 1.67876 474.304 2.0681 474.46 2.45189C474.591 2.77556 474.72 3.09529 474.844 3.40566L474.844 3.4066C476.874 8.45272 478.619 12.7951 479.929 16.4297C503.071 80.6115 544.57 175.357 610.907 262.241C675.451 346.786 748.496 404.332 828.026 433.245L828.261 433.33L828.347 433.095L828.507 432.652L828.592 432.417L828.357 432.332C749.023 403.488 676.126 346.068 611.682 261.655L611.233 261.067Z" fill="#00FF85" stroke="#00FF85" stroke-width="0.5"/>
<path d="M412.891 1.13731L412.842 0.951003L412.65 0.951003L412.159 0.951003L411.834 0.951003L411.917 1.26469C430.074 70.1805 463.461 168.906 521.544 262.372C580.251 356.849 650.518 424.054 730.395 462.118L730.618 462.225L730.727 462.002L730.935 461.578L731.046 461.351L730.818 461.242C651.122 423.276 580.988 356.204 522.375 261.863L522.302 261.745L522.292 261.745C464.356 168.474 431.024 69.9585 412.891 1.13731Z" fill="#00FF85" stroke="#00FF85" stroke-width="0.5"/>
<path d="M399.799 1.15004L399.752 0.960402L399.556 0.960402L399.066 0.960401L398.746 0.960401L398.823 1.27073C416.12 70.8373 447.705 168.298 502.973 261.18C530.075 306.711 560.37 346.728 593.039 380.087C628.965 416.785 668.248 445.94 709.793 466.718L710.018 466.831L710.129 466.604L710.337 466.18L710.446 465.957L710.224 465.846C630.566 425.995 561.11 356.971 503.809 260.679C448.63 167.958 417.09 70.6415 399.799 1.15004Z" fill="#00FF85" stroke="#00FF85" stroke-width="0.5"/>
<path d="M540.236 261.923L540.236 261.931C479.753 168.409 444.699 69.0297 425.776 1.14326L425.725 0.960404L425.535 0.960404L425.044 0.960404L424.715 0.960404L424.804 1.27748C443.782 69.4011 479.001 169.277 539.879 263.168C599.852 355.664 670.761 420.926 750.638 457.123L750.865 457.225L750.969 456.999L751.167 456.565L751.271 456.337L751.043 456.233C671.357 420.123 600.582 354.993 540.695 262.632L540.236 261.923Z" fill="#00FF85" stroke="#00FF85" stroke-width="0.5"/>
<path d="M438.442 1.12523L438.386 0.951005L438.204 0.951005L437.713 0.951005L437.372 0.951005L437.474 1.27611C437.739 2.11504 437.993 2.93306 438.218 3.71275L438.219 3.71434C458.151 70.9044 495.108 170.517 557.988 263.54C619.179 354.056 690.683 417.384 770.523 451.731L770.752 451.829L770.851 451.601L771.04 451.167L771.14 450.937L770.91 450.838C691.262 416.575 619.893 353.377 558.798 262.996L558.724 262.886L558.715 262.886C495.956 170.008 459.058 70.5384 439.151 3.44008C438.934 2.70311 438.697 1.92839 438.442 1.12523Z" fill="#00FF85" stroke="#00FF85" stroke-width="0.5"/>
<path d="M271.459 1.17832L271.431 0.96039L271.211 0.96039L270.739 0.96039L270.454 0.96039L270.491 1.24243C279.272 69.1584 295.786 149.905 326.437 230.382C346.881 284.052 371.764 332.406 400.417 374.122L400.623 373.98L400.417 374.122C431.932 419.989 468.437 458.426 508.921 488.345L509.12 488.493L509.269 488.295L509.552 487.917L509.704 487.716L509.501 487.566C469.104 457.711 432.675 419.354 401.216 373.565C372.607 331.924 347.751 283.634 327.338 230.034C296.733 149.67 280.236 69.02 271.459 1.17832Z" fill="#00FF85" stroke="#00FF85" stroke-width="0.5"/>
<path d="M42.4099 1.21025L42.4097 0.960371L42.1599 0.960371L41.6879 0.960371L41.4377 0.960371L41.4379 1.21049C41.4567 38.7768 43.364 77.8343 47.9153 117.515C55.2615 181.606 68.9157 241.155 88.5208 294.5C110.081 353.175 139.15 405.138 174.909 448.934L175.067 449.128L175.261 448.969L175.629 448.667L175.822 448.509L175.664 448.316C139.982 404.605 110.967 352.749 89.4432 294.167L89.2085 294.253L89.4432 294.167C69.863 240.902 56.2169 181.43 48.884 117.411L48.8741 117.324L48.8646 117.315C44.3324 77.7037 42.4287 38.7137 42.4099 1.21025Z" fill="#00FF85" stroke="#00FF85" stroke-width="0.5"/>
<path d="M26.7375 105.299C23.3689 69.8749 22.0667 34.9783 22.2932 1.21205L22.2949 0.960368L22.0432 0.960368L21.5712 0.960368L21.3229 0.960368L21.3212 1.20869C21.0946 35.0118 22.3976 69.9381 25.7686 105.403C31.9345 170.201 44.5594 230.532 63.305 284.726C83.9205 344.335 112.234 397.317 147.455 442.188L147.61 442.386L147.807 442.23L148.175 441.937L148.37 441.783L148.216 441.587C113.062 396.802 84.8016 343.918 64.2212 284.403C45.5091 230.279 32.8916 170.025 26.7383 105.299L26.7375 105.299Z" fill="#00FF85" stroke="#00FF85" stroke-width="0.5"/>
<path d="M139.405 312.084C118.186 260.539 102.549 202.696 92.9325 140.146L92.9325 140.136L92.9296 140.117C85.6062 92.5013 82.2369 45.6477 81.5007 1.20622L81.4967 0.960374L81.2508 0.960374L80.7788 0.960374L80.5246 0.960374L80.5288 1.21452C81.2653 45.694 84.6455 92.5987 91.9634 140.269C101.585 202.898 117.251 260.825 138.499 312.453L138.731 312.358L138.499 312.453C161.882 369.233 192.368 419.14 229.119 460.775L229.284 460.961L229.471 460.799L229.829 460.488L230.02 460.322L229.853 460.133C193.18 418.581 162.741 368.77 139.405 312.084Z" fill="#00FF85" stroke="#00FF85" stroke-width="0.5"/>
<path d="M62.1393 1.1989L62.1372 0.950973L61.8893 0.950973L61.4173 0.950973L61.1652 0.950973L61.1673 1.20305C61.5072 42.325 64.1132 85.3721 69.9769 129.128C78.4752 192.493 93.1494 251.24 113.586 303.727C136.071 361.459 165.858 412.394 202.127 455.114L202.289 455.304L202.479 455.144L202.838 454.842L203.03 454.68L202.867 454.489C166.675 411.853 136.934 361.014 114.495 303.375C94.0846 250.958 79.4287 192.298 70.9445 128.995L70.9155 128.778L70.906 128.778C65.0658 85.149 62.4785 42.2161 62.1393 1.1989Z" fill="#00FF85" stroke="#00FF85" stroke-width="0.5"/>
<path d="M4.565 92.7433L4.565 92.7339L4.56429 92.7244C2.21436 61.6621 1.42155 31.0234 1.82738 1.20438L1.83083 0.950997L1.5774 0.950997L1.10541 0.950997L0.858864 0.950997L0.85543 1.19752C0.439977 31.0395 1.23312 61.7025 3.59373 92.7999C8.55099 158.287 20.1276 219.391 37.9854 274.434C57.6282 334.967 85.1578 388.958 119.821 434.914L119.971 435.113L120.17 434.964L120.548 434.681L120.749 434.53L120.598 434.33C85.9997 388.47 58.5132 334.577 38.9047 274.138C21.0709 219.188 9.52007 158.154 4.565 92.7433Z" fill="#00FF85" stroke="#00FF85" stroke-width="0.5"/>
<path d="M1283.57 1.45011L1283.49 0.960502L1281.82 0.960502L1281.79 0.960502L1281.75 0.970484C1229.57 16.1758 1169.78 16.8294 1103.67 2.82357L1103.67 2.82354C1100.86 2.22983 1098.05 1.60778 1095.27 0.966861L1095.24 0.960485L1095.22 0.960485L1093.14 0.960485L1093.08 1.45398C1096.53 2.2557 1099.98 3.03879 1103.47 3.77479C1170.37 17.9446 1230.85 17.1459 1283.57 1.45011Z" fill="#00FF85" stroke="#00FF85" stroke-width="0.5"/>
<path d="M628.395 259.873L628.395 259.864L628.841 260.425C694.313 342.849 767.644 398.355 846.799 425.427L847.035 425.508L846.954 425.745L846.803 426.188L846.723 426.425L846.486 426.344C767.125 399.205 693.645 343.584 628.081 261.028C560.706 176.191 517.771 83.0959 493.619 19.9421C492.295 16.4852 490.546 12.3643 488.523 7.59969L488.327 7.13622L628.395 259.873ZM628.395 259.873C561.347 175.288 518.599 82.5625 494.52 19.6031C493.158 16.0385 491.349 11.7764 489.262 6.85943L489.221 6.76107L488.991 6.85876L489.221 6.76092C488.447 4.94128 487.644 3.0461 486.823 1.10366L486.759 0.951011L486.593 0.951011L486.083 0.951011L485.708 0.951011L485.853 1.29748C486.693 3.30666 487.524 5.25906 488.326 7.13561L628.395 259.873Z" fill="#00FF85" stroke="#00FF85" stroke-width="0.5"/>
<path d="M239.921 1.1747L239.897 0.951034L239.672 0.951034L239.2 0.951034L238.922 0.951034L238.951 1.22737C245.891 66.7196 259.488 142.448 285.115 218.406C303.812 273.803 327.24 323.968 354.751 367.523L354.962 367.389L354.751 367.523C385.019 415.427 420.654 455.949 460.666 487.972L460.861 488.128L461.017 487.932L461.31 487.565L461.465 487.369L461.271 487.214C421.345 455.267 385.783 414.816 355.57 367.001C328.102 323.521 304.699 273.421 286.032 218.096C260.429 142.237 246.848 66.6028 239.921 1.1747Z" fill="#00FF85" stroke="#00FF85" stroke-width="0.5"/>
<path d="M1209.74 1.46035L1209.73 0.960528L1181.68 0.960525L1181.67 1.46036C1191.2 1.80947 1200.56 1.80949 1209.74 1.46035Z" fill="#00FF85" stroke="#00FF85" stroke-width="0.5"/>
<path d="M172.936 1.19466L172.921 0.960381L172.686 0.960381L172.214 0.960381L171.948 0.960381L171.965 1.2261C175.628 59.4375 184.031 123.622 200.528 188.591C215.438 247.316 235.655 301.027 260.625 348.213C288.088 400.117 321.682 444.826 360.484 481.095L360.668 481.267L360.838 481.081L361.159 480.732L361.327 480.55L361.146 480.38C322.427 444.192 288.894 399.566 261.482 347.753C236.552 300.634 216.357 246.999 201.465 188.345C184.997 123.459 176.598 59.3443 172.936 1.19466Z" fill="#00FF85" stroke="#00FF85" stroke-width="0.5"/>
<path d="M190.192 1.1921L190.175 0.960382L189.942 0.960382L189.47 0.960382L189.201 0.960382L189.221 1.22863C193.64 61.5714 203.252 128.821 221.901 196.78C237.793 254.694 258.851 307.528 284.491 353.809C312.691 404.722 346.833 448.385 385.975 483.587L386.162 483.755L386.329 483.568L386.64 483.219L386.806 483.033L386.621 482.867C347.562 447.743 313.491 404.163 285.335 353.341C259.735 307.127 238.7 254.368 222.836 196.525C204.216 128.651 194.609 61.4725 190.192 1.1921Z" fill="#00FF85" stroke="#00FF85" stroke-width="0.5"/>
<path d="M411.784 484.825C372.418 450.759 337.821 408.23 308.958 358.412L308.96 358.409C282.71 313.101 260.873 261.219 244.037 204.206C223.171 133.504 212.289 63.3838 207.079 1.18013L207.06 0.951001L206.83 0.951001L206.358 0.951001L206.086 0.951001L206.109 1.22191C211.331 63.4886 222.217 133.69 243.104 204.479C259.95 261.564 281.83 313.511 308.112 358.896L308.329 358.771L308.112 358.896C337.03 408.809 371.692 451.425 411.146 485.561L411.334 485.724L411.498 485.536L411.809 485.178L411.974 484.989L411.784 484.825Z" fill="#00FF85" stroke="#00FF85" stroke-width="0.5"/>
<path d="M436.683 486.283C397.037 453.294 361.96 411.827 332.415 363.029L332.415 363.02L332.378 362.96C305.505 318.566 282.876 267.57 265.115 211.396C241.918 138.036 229.715 65.0971 223.665 1.17747L223.644 0.951033L223.416 0.951033L222.944 0.951033L222.67 0.951033L222.695 1.22462C228.757 65.2078 240.966 138.23 264.195 211.688C281.975 267.933 304.639 318.994 331.554 363.464L331.768 363.335L331.554 363.464C361.161 412.368 396.324 453.946 436.061 487.026L436.252 487.185L436.412 486.995L436.714 486.636L436.877 486.444L436.683 486.283Z" fill="#00FF85" stroke="#00FF85" stroke-width="0.5"/>
<path d="M100.513 1.20412L100.507 0.960375L100.263 0.960375L99.7907 0.960375L99.5343 0.960375L99.5408 1.21666C100.74 48.8556 104.97 99.4671 113.893 150.91C124.62 212.785 141.239 269.891 163.291 320.643C187.542 376.46 218.699 425.33 255.913 465.899L256.082 466.084L256.267 465.914L256.616 465.594L256.8 465.425L256.631 465.241C219.496 424.763 188.396 375.98 164.183 320.255C142.169 269.582 125.569 212.552 114.858 150.74L114.822 150.532L114.812 150.532C105.928 99.2169 101.7 48.7304 100.513 1.20412Z" fill="#00FF85" stroke="#00FF85" stroke-width="0.5"/>
<path d="M155.359 1.19714L155.346 0.96038L155.109 0.96038L154.637 0.96038L154.373 0.96038L154.387 1.22359C157.343 57.096 164.604 118.083 179.041 179.901C192.941 239.437 212.299 294.007 236.57 342.099C263.268 394.992 296.295 440.749 334.738 478.083L334.917 478.257L335.091 478.078L335.421 477.739L335.596 477.559L335.416 477.385C297.055 440.122 264.097 394.459 237.441 341.656C213.2 293.642 193.873 239.149 179.991 179.684C165.57 117.937 158.322 57.0181 155.359 1.19714Z" fill="#00FF85" stroke="#00FF85" stroke-width="0.5"/>
<path d="M136.668 160.905L136.668 160.895L136.663 160.872C126.037 105.884 120.865 51.7337 119.147 1.19249L119.139 0.950978L118.897 0.950978L118.425 0.950978L118.167 0.950978L118.175 1.20946C119.894 51.8005 125.068 105.996 135.71 161.051C147.522 222.163 165.077 278.429 187.893 328.304C212.985 383.159 244.794 430.991 282.433 470.476L282.605 470.656L282.786 470.485L283.126 470.165L283.308 469.992L283.135 469.811C245.566 430.408 213.816 382.661 188.772 327.907C165.997 278.118 148.464 221.935 136.668 160.905Z" fill="#00FF85" stroke="#00FF85" stroke-width="0.5"/>
<path d="M137.432 1.19955L137.422 0.960379L137.182 0.960379L136.71 0.960379L136.449 0.960379L136.461 1.22121C138.774 54.5567 144.949 112.214 157.432 170.731C170.302 231.059 188.763 286.487 212.326 335.465C238.23 389.34 270.662 436.134 308.717 474.544L308.892 474.72L309.069 474.547L309.409 474.217L309.59 474.041L309.413 473.862C271.438 435.533 239.065 388.824 213.201 335.041C189.686 286.131 171.237 230.78 158.384 170.523C145.917 112.076 139.744 54.4749 137.432 1.19955Z" fill="#00FF85" stroke="#00FF85" stroke-width="0.5"/>
<path d="M603.26 1.08365L603.187 0.960421L603.044 0.960421L602.497 0.960421L602.06 0.960421L602.281 1.33692C607.204 9.72769 612.627 17.7587 617.252 24.6037C620.009 28.6879 622.385 32.2103 624.232 35.1759C656.94 87.6543 711.736 163.727 787.027 228.125C860.298 290.789 935.965 327.921 1011.94 338.452L1012.19 338.487L1012.22 338.239L1012.29 337.768L1012.32 337.52L1012.07 337.486C936.31 326.98 860.805 289.948 787.663 227.387C712.463 163.071 657.736 87.0826 625.063 34.6569L624.989 34.5391L624.98 34.5391C623.128 31.5798 620.773 28.0882 618.053 24.0598L617.846 24.1997L618.053 24.0597C613.474 17.2887 608.126 9.35514 603.26 1.08365Z" fill="#00FF85" stroke="#00FF85" stroke-width="0.5"/>
<path d="M997.894 101.922L997.894 101.913L997.741 101.848C930.141 73.2226 872.7 33.6233 832.006 1.01535L831.938 0.960447L831.85 0.960446L831.095 0.960446L830.383 0.960446L830.938 1.40545C871.711 34.1162 929.4 73.9706 997.357 102.743C1074.32 135.326 1146.56 146.192 1212.08 135.008L1212.32 134.966L1212.28 134.721L1212.21 134.259L1212.17 134.011L1211.92 134.053C1146.65 145.2 1074.65 134.39 997.894 101.922Z" fill="#00FF85" stroke="#00FF85" stroke-width="0.5"/>
<path d="M986.073 111.157L986.063 111.148L986.021 111.129C914.873 79.3832 855.289 35.5889 814.623 1.02L814.553 0.960476L814.461 0.960476L813.734 0.960476L813.055 0.960476L813.572 1.40086C854.298 36.0639 914.13 80.1157 985.629 112.019C1062.63 146.386 1135.3 158.733 1201.61 148.719L1201.86 148.682L1201.82 148.437L1201.76 147.975L1201.72 147.725L1201.47 147.763C1135.38 157.748 1062.91 145.433 986.073 111.157Z" fill="#00FF85" stroke="#00FF85" stroke-width="0.5"/>
<path d="M974.112 120.259L974.11 120.263C899.682 85.3217 838.272 37.3358 797.901 1.01521L797.83 0.951061L797.734 0.951061L797.035 0.951061L796.384 0.951061L796.868 1.38681C837.282 37.7946 898.936 86.0438 973.711 121.145C1050.73 157.304 1123.8 171.17 1190.88 162.346L1191.13 162.313L1191.1 162.063L1191.03 161.592L1191 161.346L1190.75 161.379C1123.87 170.169 1050.99 156.35 974.112 120.259Z" fill="#00FF85" stroke="#00FF85" stroke-width="0.5"/>
<path d="M850.125 1.00132L850.058 0.951033L849.974 0.951033L849.191 0.951032L848.444 0.951032L849.04 1.40064C889.54 31.9422 944.783 67.618 1008.9 93.3243C1085.78 124.153 1157.57 133.538 1222.29 121.212L1222.53 121.165L1222.48 120.921L1222.4 120.459L1222.35 120.211L1222.11 120.258C1157.61 132.553 1086 123.191 1009.26 92.4264L1009.22 92.4085L1009.21 92.4085C945.478 66.8475 890.516 31.4149 850.125 1.00132Z" fill="#00FF85" stroke="#00FF85" stroke-width="0.5"/>
<path d="M750.632 1.03019L750.559 0.960414L750.459 0.960414L749.779 0.960414L749.159 0.960414L749.605 1.39044C752.013 3.71035 754.124 5.76306 755.867 7.56982L755.867 7.57003C794.826 47.8635 857.849 104.875 936.807 147.645C1013.65 189.275 1087.76 207.802 1157.08 202.725L1157.33 202.706L1157.31 202.455L1157.28 201.984L1157.26 201.736L1157.01 201.755C1087.89 206.823 1013.97 188.339 937.272 146.791C858.422 104.072 795.487 47.137 756.566 6.89241L756.387 7.0662L756.566 6.8923C754.892 5.16346 752.898 3.20907 750.632 1.03019Z" fill="#00FF85" stroke="#00FF85" stroke-width="0.5"/>
<path d="M1179.77 174.938C1112.13 182.512 1038.87 167.159 962.023 129.27L962.024 129.266C884.571 91.0727 821.628 38.898 781.764 1.01983L781.691 0.951061L781.591 0.951061L780.902 0.951061L780.277 0.951061L780.73 1.38221C820.624 39.3273 883.789 91.7738 961.595 130.139C1038.59 168.099 1112.03 183.503 1179.88 175.906L1180.13 175.878L1180.1 175.628L1180.05 175.156L1180.02 174.91L1179.77 174.938Z" fill="#00FF85" stroke="#00FF85" stroke-width="0.5"/>
<path d="M869.102 0.996741L869.037 0.951094L868.958 0.951094L868.146 0.951094L867.359 0.951094L868.002 1.40533C907.86 29.5418 960.261 61.0673 1020.22 83.7928L1020.31 83.559L1020.22 83.7928C1096.99 112.877 1168.31 120.817 1232.19 107.368L1232.44 107.317L1232.39 107.073L1232.29 106.611L1232.24 106.365L1232 106.417C1168.31 119.823 1097.18 111.913 1020.57 82.882L1020.48 83.1158L1020.57 82.882C960.97 60.3078 908.842 29.004 869.102 0.996741Z" fill="#00FF85" stroke="#00FF85" stroke-width="0.5"/>
<path d="M768.014 2.91912C767.408 2.31401 766.755 1.68098 766.075 1.02981L766.003 0.960399L765.902 0.960399L765.223 0.960399L764.598 0.960399L765.05 1.39143C765.862 2.16441 766.633 2.90718 767.329 3.61151L767.331 3.61303C806.705 42.7936 870.238 98.0886 949.291 138.982L949.405 138.76L949.291 138.982C1026.23 178.772 1100.02 195.733 1168.61 189.372L1168.87 189.349L1168.84 189.098L1168.79 188.627L1168.77 188.38L1168.52 188.403C1100.13 194.743 1026.53 177.824 949.737 138.113C870.794 97.2897 807.34 42.0606 768.014 2.91912Z" fill="#00FF85" stroke="#00FF85" stroke-width="0.5"/>
<path d="M864.862 418.184C786.049 392.908 712.439 339.435 646.083 259.237L646.093 259.237L645.754 258.828C577.45 176.148 533.188 84.8097 508.074 22.7481C506.671 19.2761 504.82 15.139 502.687 10.3695L502.576 10.123C501.302 7.27541 499.952 4.24914 498.575 1.10995L498.509 0.96041L498.346 0.96041L497.826 0.96041L497.444 0.960409L497.597 1.3106C499.004 4.52718 500.383 7.61156 501.686 10.516L501.945 11.0956C504.017 15.7264 505.809 19.7331 507.167 23.105L507.167 23.1054C532.301 85.2313 576.615 176.658 645.001 259.448C711.547 340.004 785.414 393.729 864.568 419.113L864.808 419.19L864.883 418.949L865.024 418.497L865.098 418.26L864.862 418.184Z" fill="#00FF85" stroke="#00FF85" stroke-width="0.5"/>
<path d="M1049.99 0.972255L1049.95 0.960443L1049.91 0.960443L1048.37 0.960443L1048.3 1.44841C1062.97 6.17455 1078.18 10.4575 1093.81 14.0802C1168.93 31.5047 1236.31 29.9242 1294.09 9.37632L1294.32 9.29206L1294.24 9.05565L1294.08 8.61246L1293.99 8.37873L1293.76 8.46204C1236.18 28.9422 1168.98 30.5206 1094.03 13.1311C1078.92 9.62496 1064.21 5.50605 1049.99 0.972255Z" fill="#00FF85" stroke="#00FF85" stroke-width="0.5"/>
<path d="M1014.55 0.977447L1014.5 0.960448L1014.46 0.960448L1013.17 0.960448L1013.08 1.44325C1035.3 10.1406 1059.06 18.0366 1083.93 24.3102L1083.99 24.0678L1083.93 24.3102C1159.37 43.3383 1227.39 43.0506 1286.07 23.4374L1286.3 23.3576L1286.22 23.1196L1286.07 22.6764L1285.99 22.4412L1285.76 22.52C1227.28 42.0677 1159.45 42.3553 1084.17 23.3633C1059.77 17.2087 1036.41 9.47972 1014.55 0.977447Z" fill="#00FF85" stroke="#00FF85" stroke-width="0.5"/>
<path d="M984.313 0.982495L984.264 0.960496L984.211 0.960496L983.068 0.960496L982.965 1.43832C1010.67 13.9558 1041.28 25.5874 1073.83 34.4647C1149.58 55.1248 1218.19 56.1488 1277.76 37.4984L1278 37.4237L1277.93 37.1852L1277.79 36.7326L1277.71 36.4939L1277.47 36.5686C1218.1 55.1556 1149.67 54.1428 1074.09 33.5202C1041.97 24.7547 1011.73 13.312 984.313 0.982495Z" fill="#00FF85" stroke="#00FF85" stroke-width="0.5"/>
<path d="M957.419 0.987281L957.366 0.960414L957.307 0.960414L956.259 0.960414L956.146 1.43341C987.95 17.554 1024.3 33.0154 1063.53 44.5246C1139.54 66.8262 1208.73 69.1901 1269.2 51.5309L1269.44 51.4608L1269.37 51.2209L1269.24 50.7683L1269.17 50.5283L1268.93 50.5984C1208.66 68.2058 1139.66 65.8549 1063.8 43.5923C1024.98 32.197 988.985 16.9368 957.419 0.987281Z" fill="#00FF85" stroke="#00FF85" stroke-width="0.5"/>
<path d="M745.044 10.6678L745.043 10.6676C742.85 8.31576 740.099 5.55908 736.909 2.37263L735.569 1.03358L735.496 0.960459L735.392 0.960459L734.722 0.960459L734.118 0.960459L734.545 1.38734C734.734 1.57536 734.921 1.76391 735.109 1.95205C735.483 2.32797 735.855 2.70227 736.227 3.06733C739.418 6.25502 742.161 8.99484 744.338 11.3383L744.338 11.3385C782.862 52.7353 845.328 111.473 924.153 156.149C1000.86 199.627 1075.27 219.767 1145.3 215.974L1145.55 215.96L1145.53 215.709L1145.51 215.238L1145.49 214.989L1145.24 215.003C1075.43 218.781 1001.2 198.704 924.626 155.299C845.908 110.686 783.521 52.0248 745.044 10.6678Z" fill="#00FF85" stroke="#00FF85" stroke-width="0.5"/>
<path d="M1042.27 63.3243L1042.27 63.3337C992.233 46.5091 947.187 23.402 910.293 0.987366L910.234 0.951028L910.164 0.951028L909.257 0.951028L908.366 0.951027L909.127 1.41456C946.276 24.0336 991.746 47.3998 1042.29 64.3616C1118.74 90.0214 1189.04 95.1218 1251.24 79.5204L1251.48 79.4599L1251.42 79.2184L1251.31 78.7564L1251.25 78.5122L1251.01 78.5734C1189.02 94.1273 1118.9 89.0438 1042.6 63.435L1042.27 63.3243Z" fill="#00FF85" stroke="#00FF85" stroke-width="0.5"/>
<path d="M932.951 0.992105L932.894 0.960474L932.829 0.960474L931.866 0.960474L930.906 0.960474L931.744 1.42871C966.617 20.9164 1007.85 40.2926 1053.03 54.4998L1053.1 54.2613L1053.03 54.4998C1129.27 78.471 1199.04 82.1938 1260.37 65.5446L1260.61 65.4792L1260.54 65.238L1260.42 64.7853L1260.35 64.544L1260.11 64.6095C1198.98 81.1996 1129.4 77.4918 1053.32 53.5702L1053.28 53.5587L1053.27 53.5587C1008.51 39.4782 967.612 20.3113 932.951 0.992105Z" fill="#00FF85" stroke="#00FF85" stroke-width="0.5"/>
<path d="M889.099 1.00148L889.036 0.960495L888.961 0.960495L888.102 0.960495L887.267 0.960495L887.965 1.41936C926.728 26.9151 975.899 54.3374 1031.35 74.1386C1107.97 101.506 1178.8 108.012 1241.85 93.4774L1242.1 93.4216L1242.04 93.179L1241.94 92.7169L1241.88 92.4717L1241.64 92.5282C1178.8 107.018 1108.16 100.53 1031.68 73.2245C976.606 53.5534 927.725 26.3501 889.099 1.00148Z" fill="#00FF85" stroke="#00FF85" stroke-width="0.5"/>
<path d="M556.256 1.08685L556.186 0.951015L556.033 0.951015L555.505 0.951015L555.096 0.951015L555.282 1.31482C559.108 8.79812 563.17 15.9503 566.719 22.1922L567.098 22.8602C569.459 27.0196 571.503 30.621 573.096 33.6696C602.716 90.4956 653.29 173.472 725.974 246C796.704 316.577 871.944 360.954 949.617 377.874L949.859 377.927L949.914 377.685L950.018 377.223L950.073 376.977L949.827 376.923C872.363 360.048 797.281 315.777 726.667 245.316C654.079 172.874 603.561 89.9936 573.964 33.2215C572.281 29.9915 570.098 26.1493 567.569 21.7092C564.057 15.5325 560.048 8.47421 556.256 1.08685Z" fill="#00FF85" stroke="#00FF85" stroke-width="0.5"/>
<path d="M567.846 1.09368L567.776 0.960445L567.625 0.960445L567.097 0.960445L566.682 0.960445L566.876 1.32696C571.061 9.27322 575.576 16.8694 579.484 23.4412C582.072 27.7894 584.297 31.5382 586.022 34.6923C616.453 90.443 668.142 171.693 741.553 242.185C812.983 310.781 888.383 353.318 965.669 368.606L965.913 368.654L965.963 368.411L966.057 367.949L966.107 367.702L965.861 367.653C888.784 352.408 813.542 309.966 742.23 241.484C668.916 171.079 617.284 89.9141 586.885 34.2262L586.814 34.096L586.795 34.096C585.168 31.1197 583.098 27.6342 580.719 23.6293L580.311 22.9406L580.096 23.0682L580.31 22.9404C576.44 16.4336 571.987 8.93274 567.846 1.09368Z" fill="#00FF85" stroke="#00FF85" stroke-width="0.5"/>
<path d="M579.541 1.09066L579.47 0.960414L579.322 0.960414L578.783 0.960414L578.363 0.960414L578.564 1.32989C583.023 9.52642 587.893 17.3679 592.085 24.1179L592.165 24.2468L592.353 24.5497C594.917 28.6847 597.132 32.2568 598.853 35.2714L599.07 35.1475L598.853 35.2715C630.078 89.9378 682.843 169.472 756.916 237.926C829.006 304.541 904.53 345.258 981.401 358.941L981.646 358.985L981.691 358.74L981.776 358.278L981.821 358.031L981.573 357.987C904.903 344.343 829.539 303.72 757.576 237.219C683.592 168.85 630.885 89.4103 599.693 34.7972L599.476 34.9212L599.693 34.7971C597.915 31.6901 595.628 27.9989 592.986 23.738L592.842 23.5057C588.711 16.8439 583.932 9.13708 579.541 1.09066Z" fill="#00FF85" stroke="#00FF85" stroke-width="0.5"/>
<path d="M933.5 385.807C855.681 367.292 780.8 321.178 710.934 248.724L710.934 248.724C639.111 174.236 589.753 89.6489 560.996 31.8019C559.395 28.5756 557.323 24.7621 554.926 20.3495L554.771 20.0634L554.551 20.1828L554.771 20.0633C551.655 14.3393 548.146 7.87433 544.769 1.08966L544.7 0.951046L544.545 0.951046L544.016 0.951046L543.613 0.951046L543.792 1.3121C547.202 8.19116 550.763 14.7393 553.916 20.5286C556.381 25.0562 558.502 28.9553 560.123 32.2315L560.123 32.2319C588.903 90.1329 638.306 174.816 710.225 249.391C780.209 321.968 855.25 368.185 933.271 386.756L933.513 386.813L933.572 386.572L933.685 386.11L933.745 385.865L933.5 385.807Z" fill="#00FF85" stroke="#00FF85" stroke-width="0.5"/>
<path d="M695.079 251.873C764.136 326.281 838.772 374.231 916.891 394.408L917.131 394.47L917.071 394.711L916.957 395.163L916.896 395.408L916.652 395.345C838.31 375.104 763.496 327.029 694.306 252.462C623.209 175.83 575.005 89.4498 547.094 30.4831M695.079 251.873L547.32 30.3761M695.079 251.873L695.079 251.864L695.012 251.792C624 175.258 575.85 88.9742 547.961 30.0617L547.736 30.1687L695.079 251.873ZM547.094 30.4831L547.32 30.3761M547.094 30.4831C547.094 30.4832 547.094 30.4833 547.094 30.4834L547.32 30.3761M547.094 30.4831C545.511 27.1498 543.455 23.1651 541.057 18.5536L541.279 18.4383C543.676 23.0493 545.734 27.0381 547.32 30.3761M532.565 1.21985L532.791 1.11114C532.808 1.1474 532.826 1.18362 532.843 1.21985L532.565 1.21985ZM532.565 1.21985L532.565 1.46985L532.686 1.46985C532.646 1.38656 532.606 1.30322 532.565 1.21985ZM916.715 395.103L916.472 395.042L916.473 395.04C916.554 395.061 916.634 395.082 916.715 395.103ZM916.715 395.103L916.777 394.861C916.777 394.861 916.776 394.86 916.776 394.86L916.715 395.103ZM541.906 18.106L541.684 18.2214L541.906 18.1064L541.906 18.106Z" fill="#00FF85" stroke="#00FF85" stroke-width="0.5"/>
<path d="M520.611 25.9104C546.699 86.9896 592.354 176.747 661.694 257.481C729.165 336.037 803.392 387.867 882.301 411.523L882.542 411.596L882.612 411.354L882.744 410.901L882.814 410.663L882.576 410.592C803.889 387.014 729.835 335.311 662.483 256.923L662.483 256.914L662.422 256.844C593.165 176.209 547.563 86.5499 521.496 25.5254C520.011 22.0502 518.065 17.9155 515.809 13.1266C514.044 9.38278 512.138 5.33917 510.222 1.10732L510.156 0.960413L509.994 0.960413L509.475 0.960413L509.087 0.960413L509.248 1.31365C511.203 5.6249 513.138 9.73776 514.932 13.5379C517.189 18.3292 519.131 22.4548 520.611 25.9104ZM520.611 25.9104L520.841 25.8122L520.611 25.9106C520.611 25.9106 520.611 25.9105 520.611 25.9104ZM882.372 411.284L882.132 411.214L882.133 411.212C882.213 411.236 882.293 411.26 882.372 411.284ZM882.372 411.284L882.444 411.044C882.444 411.044 882.443 411.044 882.442 411.044L882.372 411.284ZM509.475 1.21041L509.75 1.21041C509.734 1.17602 509.719 1.1416 509.703 1.10717L509.475 1.21041ZM509.475 1.21041L509.475 1.46041L509.589 1.46041C509.551 1.37716 509.513 1.29382 509.475 1.21041Z" fill="#00FF85" stroke="#00FF85" stroke-width="0.5"/>
<path d="M899.894 402.651C821.591 380.811 747.342 331.111 679.189 254.909L679.207 254.909L678.835 254.492C608.672 175.913 561.778 87.9317 534.785 27.9633C533.254 24.5541 531.241 20.4853 528.91 15.7813C526.672 11.2643 524.219 6.30673 521.785 1.10446L521.717 0.960412L521.558 0.960412L521.039 0.960412L520.646 0.960412L520.813 1.31646C523.153 6.3135 525.511 11.0909 527.668 15.463L528.037 16.2103L528.037 16.2105L528.073 16.2846C530.381 20.9506 532.376 24.9853 533.895 28.3572C560.909 88.3894 607.857 176.458 678.104 255.136C746.463 331.693 820.993 381.645 899.637 403.585L899.88 403.653L899.945 403.41L900.068 402.957L900.133 402.717L899.894 402.651Z" fill="#00FF85" stroke="#00FF85" stroke-width="0.5"/>
<path d="M605.567 24.1018L605.567 24.1015C601.158 17.3023 596.026 9.35913 591.339 1.07794L591.267 0.951083L591.121 0.951083L590.583 0.951083L590.155 0.951083L590.366 1.32392C595.064 9.65204 600.227 17.635 604.651 24.4743L604.751 24.6279L604.96 24.4921L604.751 24.628C607.451 28.7972 609.78 32.395 611.59 35.4265C643.57 88.9988 697.365 166.807 772.08 233.233C844.785 297.868 920.394 336.783 996.83 348.881L997.076 348.92L997.116 348.674L997.192 348.212L997.232 347.964L996.984 347.925C920.758 335.864 845.309 297.042 772.723 232.51C698.108 166.168 644.372 88.4543 612.425 34.9348C610.741 32.1053 608.603 28.7974 606.148 25.0012L605.567 24.1018Z" fill="#00FF85" stroke="#00FF85" stroke-width="0.5"/>
<path d="M885.651 179.747C807.578 129.345 747.074 65.5213 710.058 20.8372L710.049 20.8183L710.031 20.7963C707.922 18.2556 705.257 15.2628 702.18 11.8126L701.994 11.979L702.18 11.8126C699.235 8.51203 695.999 4.88355 692.725 1.04811L692.65 0.960413L692.535 0.960413L691.912 0.960413L691.37 0.960413L691.722 1.37266C695.094 5.326 698.428 9.07142 701.458 12.4661L701.719 12.759C704.687 16.0872 707.254 18.9662 709.287 21.4264L709.287 21.4266C746.339 66.1622 806.924 130.078 885.125 180.554C961.222 229.673 1036.34 254.72 1108.37 254.975L1108.62 254.976L1108.62 254.725L1108.62 254.253L1108.62 254.004L1108.38 254.003C1036.55 253.749 961.613 228.771 885.651 179.747Z" fill="#00FF85" stroke="#00FF85" stroke-width="0.5"/>
<path d="M911.847 163.653L911.838 163.643L911.811 163.627C833.263 117.091 771.46 56.7147 733.445 14.2451C731.309 11.8596 728.622 9.0708 725.524 5.8558L725.396 5.72348L724.852 5.15855C723.574 3.83219 722.248 2.45664 720.894 1.03781L720.82 0.960428L720.713 0.960428L720.062 0.960428L719.478 0.960428L719.881 1.38284C721.543 3.12788 723.157 4.80679 724.696 6.40063C727.85 9.67344 730.565 12.499 732.724 14.8996C770.786 57.4094 832.656 117.873 911.32 164.472C987.861 209.818 1062.54 231.572 1133.26 229.109L1133.51 229.1L1133.5 228.849L1133.48 228.378L1133.47 228.129L1133.22 228.138C1062.72 230.606 988.233 208.914 911.847 163.653Z" fill="#00FF85" stroke="#00FF85" stroke-width="0.5"/>
<path d="M685.941 25.8947L685.941 25.907C684.066 23.4842 681.764 20.6926 679.151 17.5227L678.757 17.044L678.564 17.203L678.757 17.0438C674.801 12.2533 670.32 6.81611 665.934 1.04972L665.859 0.951059L665.735 0.951059L665.14 0.951059L664.636 0.951059L664.941 1.35233C669.41 7.23145 673.981 12.789 678.003 17.6546C681.006 21.2859 683.589 24.4221 685.615 27.0766L685.615 27.0769C721.562 74.0287 780.693 141.424 858.27 195.825C933.762 248.764 1009.2 277.179 1082.47 280.246L1082.72 280.256L1082.73 280.006L1082.75 279.534L1082.76 279.285L1082.51 279.275C1009.44 276.213 934.189 247.88 858.831 195.029C781.357 140.697 722.3 73.3908 686.39 26.4806L685.941 25.8947Z" fill="#00FF85" stroke="#00FF85" stroke-width="0.5"/>
<path d="M698.298 23.8294L698.298 23.8199L698.243 23.7515C696.163 21.1448 693.536 18.0765 690.497 14.532C686.994 10.4487 683.079 5.87806 679.174 1.04392L679.099 0.951029L678.979 0.951029L678.375 0.951029L677.853 0.951029L678.18 1.3578C682.176 6.32118 686.181 11.001 689.759 15.1688L690.036 15.4924C692.959 18.9015 695.483 21.8459 697.484 24.3556C733.997 70.1945 793.874 135.855 871.783 188.293C947.596 239.318 1022.88 266.034 1095.55 267.686L1095.8 267.691L1095.8 267.436L1095.8 266.964L1095.8 266.72L1095.56 266.714C1023.11 265.075 947.996 238.42 872.326 187.492C794.571 135.156 734.779 69.6146 698.298 23.8294Z" fill="#00FF85" stroke="#00FF85" stroke-width="0.5"/>
<path d="M898.807 171.768L898.805 171.77C820.479 123.302 759.303 61.195 721.771 17.6245C719.634 15.1403 716.94 12.2323 713.816 8.86692C711.551 6.42477 709.116 3.7949 706.616 1.03324L706.541 0.951044L706.431 0.951044L705.798 0.951044L705.236 0.951044L705.612 1.36856C708.21 4.24594 710.75 6.99099 713.101 9.52752L713.268 9.70803C716.313 12.9987 718.942 15.8398 721.034 18.2532C758.605 61.8758 819.851 124.065 898.298 172.598C974.632 219.831 1049.55 243.217 1120.93 242.094L1121.18 242.09L1121.18 241.844L1121.18 241.372L1121.18 241.118L1120.93 241.122C1049.74 242.253 975.014 218.916 898.807 171.768Z" fill="#00FF85" stroke="#00FF85" stroke-width="0.5"/>
<path d="M637.829 34.3602L637.838 34.3602L637.587 33.9738C635.686 31.0555 633.257 27.6002 630.445 23.6032C625.772 16.964 620.31 9.20016 615.321 1.07952L615.248 0.960383L615.108 0.960383L614.551 0.960383L614.105 0.960383L614.338 1.34094C619.363 9.54678 624.875 17.3864 629.581 24.0812L629.64 24.1643L629.64 24.1646C632.453 28.154 634.867 31.6014 636.762 34.5106C670.168 85.8855 725.918 160.232 801.747 222.612C875.548 283.314 951.234 318.663 1026.72 327.656L1026.97 327.686L1027 327.438L1027.05 326.966L1027.08 326.718L1026.83 326.688C951.561 317.718 876.037 282.458 802.367 221.858C726.819 159.716 671.228 85.6687 637.829 34.3602Z" fill="#00FF85" stroke="#00FF85" stroke-width="0.5"/>
<path d="M642.733 22.7227L642.531 22.8702L642.733 22.7225L642.612 22.5566C637.965 16.2089 632.555 8.8173 627.562 1.07496L627.488 0.960459L627.352 0.960459L626.795 0.960459L626.337 0.960459L626.585 1.34559C631.678 9.27381 637.214 16.8422 641.952 23.301L642.284 23.7532C645.005 27.4665 647.358 30.6785 649.206 33.4111L649.206 33.4114C683.293 83.6828 739.939 156.294 816.279 216.665C890.562 275.414 966.239 309.009 1041.2 316.483L1041.45 316.507L1041.48 316.259L1041.52 315.787L1041.55 315.538L1041.3 315.514C966.547 308.061 891.043 274.554 816.882 215.905C740.653 155.615 684.058 83.0862 650.007 32.8668C648.209 30.2116 645.947 27.1182 643.346 23.5613L642.733 22.7227Z" fill="#00FF85" stroke="#00FF85" stroke-width="0.5"/>
<path d="M662.369 31.2774L662.369 31.268L662.324 31.2031C660.347 28.4075 657.833 25.1033 654.927 21.2947C650.367 15.3158 645.075 8.37135 640.114 1.06993L640.04 0.960428L639.907 0.960428L639.341 0.960428L638.87 0.960428L639.134 1.35053C644.094 8.67954 649.393 15.6401 653.967 21.6477L654.151 21.8901L654.152 21.8903C657.06 25.7012 659.568 28.9878 661.528 31.7741L661.528 31.7745C696.257 80.9426 753.782 151.819 830.575 210.19C905.302 266.996 980.932 298.845 1055.35 304.819L1055.6 304.839L1055.62 304.589L1055.66 304.118L1055.68 303.869L1055.43 303.849C981.212 297.885 905.755 266.121 831.161 209.415C754.504 151.139 697.067 80.3912 662.369 31.2774Z" fill="#00FF85" stroke="#00FF85" stroke-width="0.5"/>
<path d="M674.289 28.7685L674.279 28.7785C672.292 26.0989 669.802 22.9481 666.931 19.3296L666.902 19.2928C662.604 13.8694 657.663 7.63539 652.939 1.06449L652.864 0.960428L652.736 0.960428L652.16 0.960428L651.674 0.960428L651.957 1.35606C656.766 8.06608 661.801 14.426 666.181 19.9327C669.137 23.6585 671.682 26.8701 673.68 29.5815C709.032 77.646 767.379 146.777 844.578 203.158C919.711 258.031 995.257 288.144 1069.12 292.655L1069.37 292.67L1069.38 292.42L1069.41 291.949L1069.43 291.7L1069.18 291.684C995.518 287.181 920.147 257.142 845.157 202.368C768.06 146.056 709.776 77.0154 674.461 29.0022L674.289 28.7685Z" fill="#00FF85" stroke="#00FF85" stroke-width="0.5"/>
</svg>
