<svg width="296" height="44" viewBox="0 0 296 44" fill="none" xmlns="http://www.w3.org/2000/svg">
<path d="M23.4297 5.27185C23.4297 5.45414 23.3932 5.6182 23.3203 5.76404C23.2474 5.90987 23.1927 6.07393 23.1562 6.25623C22.7917 6.40206 22.4818 6.47498 22.2266 6.47498C21.4245 6.47498 21.0234 6.07393 21.0234 5.27185C21.0234 5.0531 21.0781 4.87081 21.1875 4.72498C21.3333 4.57914 21.4427 4.41508 21.5156 4.23279L22.3359 4.1781L23.3203 4.77966C23.3932 4.99841 23.4297 5.16248 23.4297 5.27185ZM26.7109 8.66248C26.7109 8.84477 26.6745 8.95414 26.6016 8.9906C26.5286 8.9906 26.5286 9.08175 26.6016 9.26404C26.4193 9.44633 26.2917 9.5557 26.2187 9.59216C26.1458 9.59216 26 9.61039 25.7812 9.64685C25.6719 9.71977 25.4896 9.75623 25.2344 9.75623C25.1615 9.79268 25.1068 9.82914 25.0703 9.8656C25.0703 9.8656 25.0339 9.88383 24.9609 9.92029C24.8516 9.77445 24.7422 9.64685 24.6328 9.53748C24.5234 9.4281 24.3776 9.37341 24.1953 9.37341V8.00623C24.487 8.00623 24.6875 7.93331 24.7969 7.78748C24.9062 7.64164 25.125 7.56873 25.4531 7.56873C25.7448 7.56873 25.9818 7.65987 26.1641 7.84216C26.3828 8.02445 26.5651 8.2432 26.7109 8.49841V8.66248ZM19.5469 2.4281C19.5469 2.64685 19.4922 2.8656 19.3828 3.08435C19.2734 3.26664 19.1458 3.4307 19 3.57654C18.7083 3.64945 18.526 3.68591 18.4531 3.68591C18.2344 3.68591 18.0156 3.64945 17.7969 3.57654C17.6146 3.46716 17.4323 3.37602 17.25 3.3031C17.25 3.15727 17.2318 3.02966 17.1953 2.92029C17.1589 2.81091 17.1406 2.68331 17.1406 2.53748C17.1406 2.28227 17.2865 2.04529 17.5781 1.82654C17.9062 1.57133 18.1797 1.44373 18.3984 1.44373C18.6172 1.44373 18.8177 1.51664 19 1.66248C19.1823 1.80831 19.3646 1.91768 19.5469 1.9906V2.4281ZM14.625 1.88123C14.4427 2.02706 14.2422 2.17289 14.0234 2.31873C13.8411 2.4281 13.6589 2.57393 13.4766 2.75623L12.1641 2.53748L11.8359 1.17029C12.0547 0.987996 12.2734 0.842163 12.4922 0.732788C12.7109 0.586955 12.9661 0.514038 13.2578 0.514038C13.3672 0.514038 13.5312 0.550496 13.75 0.623413C13.9323 0.805705 14.0599 1.02445 14.1328 1.27966C14.2422 1.49841 14.4062 1.69893 14.625 1.88123ZM8.99219 2.75623C8.99219 2.8656 8.95573 2.9932 8.88281 3.13904C8.6276 3.32133 8.44531 3.4307 8.33594 3.46716C8.26302 3.50362 8.08073 3.54008 7.78906 3.57654C7.71615 3.57654 7.625 3.613 7.51562 3.68591C7.44271 3.72237 7.35156 3.7406 7.24219 3.7406H6.91406C6.91406 3.44893 6.8776 3.26664 6.80469 3.19373C6.76823 3.08435 6.67708 2.92029 6.53125 2.70154C6.71354 2.40987 6.91406 2.15466 7.13281 1.93591C7.35156 1.6807 7.64323 1.5531 8.00781 1.5531C8.1901 1.5531 8.31771 1.57133 8.39062 1.60779C8.53646 1.75362 8.66406 1.91768 8.77344 2.09998C8.91927 2.28227 8.99219 2.50102 8.99219 2.75623ZM23.8125 24.4672C23.8125 24.7588 23.6849 24.9776 23.4297 25.1234C23.2109 25.2692 23.0104 25.4333 22.8281 25.6156C22.5365 25.5062 22.2448 25.4151 21.9531 25.3422C21.6979 25.2692 21.4792 25.087 21.2969 24.7953V24.3031C21.2969 24.1208 21.3333 23.9203 21.4062 23.7015L22.1172 23.1547L22.8281 23.0453L23.4844 23.5375C23.5573 23.8291 23.6667 24.0114 23.8125 24.0844V24.4672ZM4.50781 6.47498C4.14323 6.62081 3.86979 6.71195 3.6875 6.74841C3.50521 6.74841 3.23177 6.78487 2.86719 6.85779C2.64844 6.71195 2.44792 6.56612 2.26562 6.42029C2.08333 6.238 1.99219 6.01925 1.99219 5.76404C1.99219 5.47237 2.10156 5.21716 2.32031 4.99841C2.53906 4.77966 2.77604 4.6156 3.03125 4.50623L3.46875 4.94373C3.54167 4.90727 3.65104 4.88904 3.79687 4.88904C4.125 4.88904 4.28906 5.01664 4.28906 5.27185C4.32552 5.52706 4.34375 5.74581 4.34375 5.9281C4.34375 6.14685 4.39844 6.32914 4.50781 6.47498ZM27.0937 29.8265C27.0937 30.0088 27.0755 30.1364 27.0391 30.2094C26.9661 30.2823 26.875 30.3734 26.7656 30.4828C26.6927 30.5922 26.6016 30.6833 26.4922 30.7562C26.4193 30.7562 26.3281 30.7745 26.2187 30.8109C26.1458 30.8109 26.0729 30.8109 26 30.8109C25.8542 30.8109 25.7083 30.7745 25.5625 30.7015C25.4896 30.6651 25.3437 30.6104 25.125 30.5375C24.9062 30.4281 24.7969 30.3005 24.7969 30.1547C24.6875 29.9359 24.6328 29.7901 24.6328 29.7172C24.6328 29.4984 24.6875 29.3344 24.7969 29.225C24.9427 29.0791 25.0156 28.9151 25.0156 28.7328C25.1979 28.6599 25.362 28.6234 25.5078 28.6234C25.6901 28.587 25.8724 28.514 26.0547 28.4047C26.3099 28.587 26.5469 28.7875 26.7656 29.0062C26.9844 29.225 27.0937 29.4984 27.0937 29.8265ZM17.8516 21.5687C17.8516 21.7146 17.8333 21.8604 17.7969 22.0062C17.7604 22.1521 17.7422 22.2979 17.7422 22.4437C17.5599 22.5166 17.3776 22.626 17.1953 22.7719C17.013 22.8812 16.8307 22.9359 16.6484 22.9359C16.4661 22.9359 16.2839 22.8995 16.1016 22.8265C15.9193 22.7172 15.737 22.626 15.5547 22.5531L15.7187 22.2797C15.6458 22.2067 15.5729 22.1338 15.5 22.0609C15.4635 21.9515 15.4453 21.8422 15.4453 21.7328C15.4453 21.587 15.4635 21.4594 15.5 21.35C15.5365 21.2041 15.5729 21.0583 15.6094 20.9125C15.974 20.6573 16.3385 20.5297 16.7031 20.5297C16.9219 20.5297 17.1406 20.6026 17.3594 20.7484C17.4323 20.9307 17.5234 21.0583 17.6328 21.1312C17.7786 21.1677 17.8516 21.3135 17.8516 21.5687ZM11.8906 20.1469C11.8177 20.5479 11.6719 20.8942 11.4531 21.1859C11.1615 21.2953 10.888 21.35 10.6328 21.35C10.4141 21.35 10.1224 21.2771 9.75781 21.1312C9.61198 20.876 9.53906 20.6026 9.53906 20.3109C9.53906 19.8734 9.63021 19.5453 9.8125 19.3265C9.92187 19.2901 10.0312 19.2536 10.1406 19.2172C10.25 19.1807 10.3594 19.1625 10.4687 19.1625H10.7422C11.0703 19.3812 11.2891 19.5088 11.3984 19.5453C11.5078 19.5453 11.6719 19.7458 11.8906 20.1469ZM3.19531 11.4515C3.15885 11.5974 3.14062 11.7979 3.14062 12.0531C3.14062 12.3448 3.01302 12.5817 2.75781 12.764C2.53906 12.9099 2.30208 12.9828 2.04687 12.9828C1.71875 12.9828 1.42708 12.8734 1.17187 12.6547C0.953125 12.3995 0.84375 12.1078 0.84375 11.7797C0.84375 11.4515 0.916667 11.251 1.0625 11.1781C1.24479 11.1052 1.42708 10.9594 1.60937 10.7406C1.9375 10.7771 2.21094 10.8682 2.42969 11.014C2.64844 11.1234 2.90365 11.2692 3.19531 11.4515ZM26 36.1156C25.9635 36.2979 25.9089 36.4984 25.8359 36.7172C25.7995 36.8995 25.7812 37.0817 25.7812 37.264C25.599 37.264 25.4349 37.3005 25.2891 37.3734C25.1432 37.4099 24.9792 37.4281 24.7969 37.4281C24.724 37.4281 24.5781 37.3552 24.3594 37.2094C24.25 37.2094 24.1224 37.2458 23.9766 37.3187C23.8307 36.8083 23.612 36.462 23.3203 36.2797L23.9219 35.1312C24.0677 35.2041 24.1771 35.2406 24.25 35.2406C24.3229 35.2406 24.3958 35.2041 24.4687 35.1312C24.5417 35.0583 24.6146 34.9854 24.6875 34.9125C24.8333 35.0583 24.9609 35.1677 25.0703 35.2406C25.1432 35.2041 25.2526 35.1859 25.3984 35.1859C25.5443 35.3682 25.6536 35.5323 25.7266 35.6781C25.8359 35.7875 25.9271 35.9333 26 36.1156ZM5.875 17.6859C5.875 18.014 5.76562 18.2692 5.54687 18.4515C5.36458 18.6338 5.1276 18.7797 4.83594 18.889C4.36198 18.7067 4.03385 18.5245 3.85156 18.3422C3.70573 18.0505 3.63281 17.8135 3.63281 17.6312C3.63281 17.4489 3.66927 17.2666 3.74219 17.0844C3.85156 16.9021 3.90625 16.7198 3.90625 16.5375C3.97917 16.5375 4.05208 16.5557 4.125 16.5922C4.23437 16.5922 4.32552 16.5922 4.39844 16.5922C4.50781 16.5922 4.61719 16.5922 4.72656 16.5922C4.83594 16.5557 4.92708 16.5375 5 16.5375C5.18229 16.6469 5.3099 16.738 5.38281 16.8109C5.45573 16.8838 5.61979 16.9567 5.875 17.0297V17.6859ZM21.4062 40.3812C21.4062 40.7823 21.2786 41.0739 21.0234 41.2562C20.8047 41.4385 20.5495 41.5844 20.2578 41.6937C20.0755 41.6573 19.9115 41.6026 19.7656 41.5297C19.6562 41.4567 19.5104 41.4021 19.3281 41.3656C19.2187 41.1833 19.1094 41.0375 19 40.9281C18.9271 40.7823 18.8542 40.6182 18.7812 40.4359C18.8542 40.2536 18.9271 40.0896 19 39.9437C19.1094 39.7979 19.2005 39.6338 19.2734 39.4515C19.4557 39.3786 19.6198 39.3239 19.7656 39.2875C19.9115 39.2146 20.0755 39.1781 20.2578 39.1781C20.3672 39.1781 20.5312 39.2146 20.75 39.2875C20.8958 39.4698 21.0417 39.6338 21.1875 39.7797C21.3333 39.9255 21.4062 40.126 21.4062 40.3812ZM14.7891 41.9125C14.7891 42.2041 14.6797 42.4594 14.4609 42.6781C14.2422 42.9333 13.987 43.0609 13.6953 43.0609C13.513 43.0609 13.3307 43.0245 13.1484 42.9515C12.9661 42.9151 12.7839 42.8969 12.6016 42.8969C12.5286 42.7146 12.4557 42.5323 12.3828 42.35C12.3464 42.1677 12.3281 41.9854 12.3281 41.8031L12.3281 41.3109C12.5833 41.1651 12.8203 41.0739 13.0391 41.0375C13.2943 41.001 13.5312 40.9099 13.75 40.764L14.6797 41.475C14.7526 41.6937 14.7891 41.8396 14.7891 41.9125ZM8.60937 40.8734C8.31771 41.6755 7.82552 42.0765 7.13281 42.0765H6.85937C6.64062 41.9307 6.49479 41.7849 6.42187 41.639C6.34896 41.4567 6.22135 41.2745 6.03906 41.0922C6.14844 40.764 6.20312 40.4724 6.20312 40.2172C6.45833 39.962 6.71354 39.8344 6.96875 39.8344C7.15104 39.8344 7.3151 39.8526 7.46094 39.889C7.64323 39.9255 7.82552 39.9437 8.00781 39.9437L8.60937 40.8734ZM3.08594 38.7406C2.90365 38.8864 2.70312 39.0323 2.48437 39.1781C2.30208 39.3239 2.08333 39.3969 1.82812 39.3969C1.71875 39.3969 1.60937 39.3786 1.5 39.3422C1.39062 39.3057 1.29948 39.2875 1.22656 39.2875C0.898437 38.9958 0.734375 38.7953 0.734375 38.6859C0.734375 38.5401 0.643229 38.376 0.460937 38.1937C0.679687 37.9385 0.861979 37.6833 1.00781 37.4281C1.1901 37.1729 1.48177 37.0453 1.88281 37.0453C2.10156 37.0453 2.30208 37.1182 2.48437 37.264C2.66667 37.3734 2.84896 37.4646 3.03125 37.5375C3.06771 37.7198 3.08594 37.9203 3.08594 38.139C3.08594 38.3213 3.08594 38.5219 3.08594 38.7406ZM64.5416 7.07654C64.5416 7.62341 64.3775 7.988 64.0494 8.17029C63.7577 8.31612 63.3749 8.38904 62.9009 8.38904C62.828 8.13383 62.7186 7.96977 62.5728 7.89685C62.427 7.82393 62.3541 7.64164 62.3541 7.34998C62.3541 7.02185 62.4634 6.74841 62.6822 6.52966C62.9374 6.27445 63.2291 6.14685 63.5572 6.14685C63.8124 6.14685 64.0311 6.238 64.2134 6.42029C64.4322 6.60258 64.5416 6.82133 64.5416 7.07654ZM61.4244 4.56091L61.3697 5.32654C61.1509 5.47237 60.9686 5.58175 60.8228 5.65466C60.7134 5.72758 60.5858 5.85518 60.44 6.03748C60.0754 5.9281 59.7838 5.78227 59.565 5.59998C59.4921 5.45414 59.4009 5.32654 59.2916 5.21716C59.2186 5.07133 59.1822 4.90727 59.1822 4.72498C59.1822 4.65206 59.2186 4.54268 59.2916 4.39685C59.4739 4.21456 59.6744 4.06873 59.8931 3.95935C60.1119 3.84998 60.3671 3.79529 60.6588 3.79529H61.0963C61.0963 4.08695 61.1327 4.23279 61.2056 4.23279C61.2785 4.23279 61.3515 4.34216 61.4244 4.56091ZM57.9244 2.04529C57.815 2.33695 57.7421 2.59216 57.7056 2.81091C57.6692 3.02966 57.5051 3.23018 57.2134 3.41248H56.2291C56.1197 3.26664 56.0285 3.12081 55.9556 2.97498C55.9192 2.82914 55.8463 2.70154 55.7369 2.59216C55.8098 2.22758 55.8827 1.97237 55.9556 1.82654L56.1197 1.33435C56.302 1.29789 56.4296 1.27966 56.5025 1.27966C56.5754 1.27966 56.703 1.27966 56.8853 1.27966C57.1405 1.27966 57.3228 1.37081 57.4322 1.5531C57.578 1.69893 57.7421 1.863 57.9244 2.04529ZM53.3306 1.22498C53.3306 1.5531 53.2213 1.82654 53.0025 2.04529C52.8202 2.26404 52.565 2.37341 52.2369 2.37341C51.9452 2.37341 51.69 2.3005 51.4713 2.15466C51.289 1.97237 51.1978 1.73539 51.1978 1.44373C51.1978 1.1156 51.3619 0.860392 51.69 0.678101C52.0181 0.459351 52.328 0.349976 52.6197 0.349976H53.0025C53.0754 0.495809 53.1483 0.641642 53.2213 0.787476C53.2942 0.896851 53.3306 1.04268 53.3306 1.22498ZM48.4634 1.38904C48.3541 1.53487 48.2994 1.62602 48.2994 1.66248C48.3358 1.66248 48.3541 1.75362 48.3541 1.93591C48.3541 2.15466 48.2811 2.33695 48.1353 2.48279C48.0259 2.59216 47.9348 2.738 47.8619 2.92029C47.6796 2.84737 47.4791 2.82914 47.2603 2.8656C47.0416 2.90206 46.841 2.8656 46.6588 2.75623C46.5494 2.53748 46.44 2.39164 46.3306 2.31873C46.2213 2.24581 46.1666 2.06352 46.1666 1.77185C46.1666 1.29789 46.3853 0.987996 46.8228 0.842163C47.2603 0.69633 47.6614 0.605184 48.0259 0.568726C48.0259 0.860392 48.0442 1.02445 48.0806 1.06091C48.1535 1.09737 48.2811 1.20675 48.4634 1.38904ZM43.2134 3.84998C43.1405 4.03227 42.9947 4.25102 42.7759 4.50623C42.5572 4.76143 42.3384 4.88904 42.1197 4.88904C42.0468 4.88904 41.8827 4.85258 41.6275 4.77966C41.4088 4.70675 41.2629 4.65206 41.19 4.6156C41.1171 4.46977 41.0259 4.34216 40.9166 4.23279C40.8436 4.08695 40.8072 3.92289 40.8072 3.7406C40.8436 3.66768 40.8983 3.54008 40.9713 3.35779C41.0442 3.13904 41.1171 2.9932 41.19 2.92029C41.3358 2.81091 41.4452 2.75623 41.5181 2.75623C41.591 2.75623 41.6275 2.64685 41.6275 2.4281C41.8463 2.46456 42.065 2.53748 42.2838 2.64685C42.5025 2.75623 42.7213 2.81091 42.94 2.81091C42.9765 2.9932 42.9947 3.19373 42.9947 3.41248C43.0311 3.59477 43.1041 3.7406 43.2134 3.84998ZM39.2213 7.34998C39.0754 7.64164 38.9114 7.89685 38.7291 8.1156C38.5832 8.33435 38.3645 8.49841 38.0728 8.60779C37.8905 8.53487 37.7082 8.48018 37.5259 8.44373C37.3801 8.40727 37.2343 8.31612 37.0884 8.17029C36.9426 7.8057 36.8697 7.53227 36.8697 7.34998C36.8697 7.05831 36.9608 6.85779 37.1431 6.74841C37.3619 6.63904 37.5442 6.47498 37.69 6.25623C38.3098 6.47498 38.8202 6.83956 39.2213 7.34998ZM64.815 36.3344C64.815 36.5531 64.7603 36.7719 64.6509 36.9906C64.4686 37.1 64.3046 37.2276 64.1588 37.3734C64.0129 37.4828 63.8306 37.5375 63.6119 37.5375C63.3202 37.5375 63.065 37.4099 62.8463 37.1547C62.6275 36.8995 62.5181 36.626 62.5181 36.3344C62.5181 35.9698 62.591 35.7328 62.7369 35.6234C62.9192 35.514 63.1379 35.3682 63.3931 35.1859C63.6483 35.2224 63.8489 35.2406 63.9947 35.2406C64.177 35.2041 64.414 35.2406 64.7056 35.35C64.7056 35.5323 64.7239 35.6963 64.7603 35.8422C64.7968 35.988 64.815 36.1521 64.815 36.3344ZM36.7603 11.8344C36.7603 12.1625 36.6327 12.4359 36.3775 12.6547C36.1588 12.837 35.8853 12.9281 35.5572 12.9281C34.9009 12.9281 34.5728 12.6 34.5728 11.9437C34.5728 11.7614 34.591 11.5609 34.6275 11.3422C34.7004 11.1234 34.7733 10.9229 34.8463 10.7406H35.3931C35.7577 10.7406 36.0676 10.8317 36.3228 11.014C36.6145 11.1599 36.7603 11.4333 36.7603 11.8344ZM61.2603 39.6703C61.2603 39.8526 61.2056 40.0166 61.0963 40.1625C61.0233 40.3083 60.9504 40.4724 60.8775 40.6547C60.6952 40.6547 60.5311 40.6729 60.3853 40.7094C60.2759 40.7458 60.1301 40.764 59.9478 40.764C59.6561 40.764 59.4192 40.6729 59.2369 40.4906C59.091 40.3083 59.0181 40.0713 59.0181 39.7797C59.0181 39.488 59.091 39.2328 59.2369 39.014C59.4192 38.7953 59.6561 38.6859 59.9478 38.6859C60.2395 38.6859 60.5311 38.7771 60.8228 38.9594C61.1145 39.1416 61.2603 39.3786 61.2603 39.6703ZM34.5181 16.3734C34.5181 16.738 34.3723 17.1026 34.0806 17.4672C33.8983 17.5401 33.6978 17.5948 33.4791 17.6312C33.2603 17.6677 33.0416 17.7406 32.8228 17.85C32.7134 17.5583 32.5858 17.3213 32.44 17.139C32.2942 16.9203 32.2213 16.6651 32.2213 16.3734C32.3306 16.264 32.5129 16.0817 32.7681 15.8265C33.0598 15.5713 33.2968 15.4437 33.4791 15.4437C33.552 15.4437 33.6249 15.462 33.6978 15.4984C33.8072 15.4984 33.8983 15.4984 33.9713 15.4984L34.5181 16.3734ZM56.8853 41.8031V42.2953C56.7395 42.4047 56.5754 42.514 56.3931 42.6234C56.2473 42.7328 56.0832 42.7875 55.9009 42.7875C55.6093 42.7875 55.3723 42.6963 55.19 42.514C55.0077 42.3317 54.8436 42.113 54.6978 41.8578C54.6978 41.5661 54.7343 41.4203 54.8072 41.4203C54.9166 41.3838 54.9348 41.2198 54.8619 40.9281C55.0806 40.8552 55.2082 40.8005 55.2447 40.764C55.3176 40.6911 55.4452 40.5635 55.6275 40.3812C55.8098 40.4541 55.9921 40.5453 56.1744 40.6547C56.3567 40.764 56.5572 40.8187 56.7759 40.8187C56.8124 41.001 56.8306 41.1651 56.8306 41.3109C56.8671 41.4567 56.8853 41.6208 56.8853 41.8031ZM34.4088 22.0609C34.4088 22.2432 34.3723 22.5166 34.2994 22.8812C34.0806 23.0635 33.8983 23.1911 33.7525 23.264C33.6067 23.337 33.3879 23.3734 33.0963 23.3734C32.4765 23.3734 32.1666 23.0635 32.1666 22.4437C32.1666 22.1156 32.2577 21.8239 32.44 21.5687C32.6223 21.2771 32.8957 21.1312 33.2603 21.1312C33.552 21.1312 33.8072 21.2224 34.0259 21.4047C34.2811 21.5505 34.4088 21.7692 34.4088 22.0609ZM51.3072 42.7328L51.0338 43.1156H50.7056C50.5963 43.1156 50.4869 43.1156 50.3775 43.1156C50.3046 43.1521 50.2134 43.1703 50.1041 43.1703C49.9582 43.0245 49.8306 42.8786 49.7213 42.7328C49.6119 42.587 49.4843 42.4229 49.3384 42.2406C49.4114 41.9854 49.5025 41.7484 49.6119 41.5297C49.7577 41.3109 49.9218 41.1104 50.1041 40.9281C50.2864 40.9281 50.4322 40.9463 50.5416 40.9828C50.6874 40.9828 50.8515 40.9828 51.0338 40.9828C51.216 41.2745 51.4166 41.5114 51.6353 41.6937C51.5624 41.9125 51.5259 42.0583 51.5259 42.1312C51.5259 42.4229 51.4895 42.6052 51.4166 42.6781C51.3801 42.7146 51.3436 42.7328 51.3072 42.7328ZM35.3931 27.2562C35.3931 27.5479 35.3384 27.7666 35.2291 27.9125C35.1561 28.0583 35.065 28.2588 34.9556 28.514C34.8098 28.587 34.6822 28.6416 34.5728 28.6781C34.4634 28.7146 34.3358 28.7328 34.19 28.7328C33.9348 28.7328 33.6978 28.6416 33.4791 28.4594C33.2968 28.2771 33.1327 28.0948 32.9869 27.9125C33.0598 27.7302 33.0963 27.5297 33.0963 27.3109C33.0963 27.1651 33.1327 27.0192 33.2056 26.8734C33.3879 26.8005 33.5884 26.7276 33.8072 26.6547C34.0259 26.5453 34.2082 26.4906 34.3541 26.4906C34.427 26.4906 34.591 26.6 34.8463 26.8187C35.1379 27.0375 35.3202 27.1833 35.3931 27.2562ZM46.3306 41.2562C46.2577 41.4385 46.1848 41.5844 46.1119 41.6937C46.0754 41.7666 46.0754 41.8942 46.1119 42.0765C45.9296 42.1859 45.7291 42.2953 45.5103 42.4047C45.2916 42.514 45.0728 42.5687 44.8541 42.5687C44.5989 42.5687 44.3619 42.4776 44.1431 42.2953C43.9244 42.113 43.815 41.8942 43.815 41.639C43.815 41.4203 43.9244 41.1651 44.1431 40.8734C44.3619 40.5817 44.5806 40.3995 44.7994 40.3265C44.8723 40.3995 44.9452 40.4359 45.0181 40.4359C45.091 40.3995 45.1822 40.3812 45.2916 40.3812H45.6197C45.7291 40.6 45.8202 40.764 45.8931 40.8734C46.0025 40.9463 46.1483 41.0739 46.3306 41.2562ZM37.1978 33.3265C37.1249 33.6911 36.9973 34.001 36.815 34.2562C36.6327 34.5114 36.341 34.639 35.94 34.639H35.5025C35.4296 34.4932 35.3384 34.3656 35.2291 34.2562C35.1197 34.1104 35.0468 33.9646 35.0103 33.8187C34.9374 33.6 34.9009 33.4724 34.9009 33.4359C34.9009 33.3265 34.9192 33.2354 34.9556 33.1625C34.9921 33.0531 35.0285 32.962 35.065 32.889C35.4296 32.6338 35.7942 32.5062 36.1588 32.5062C36.2681 32.5062 36.4322 32.5427 36.6509 32.6156C36.7239 32.7614 36.7968 32.889 36.8697 32.9984C36.9426 33.1078 37.052 33.2172 37.1978 33.3265ZM41.7369 38.6312C41.6275 38.8864 41.4999 39.1052 41.3541 39.2875C41.2447 39.4333 41.0442 39.5609 40.7525 39.6703C40.5338 39.5974 40.2603 39.5062 39.9322 39.3969C39.6405 39.251 39.4947 39.0323 39.4947 38.7406C39.4947 38.5219 39.5676 38.3031 39.7134 38.0844C39.8957 37.975 40.0598 37.8838 40.2056 37.8109C40.3879 37.7015 40.5702 37.6469 40.7525 37.6469C41.0442 37.6469 41.2447 37.7562 41.3541 37.975C41.4999 38.1937 41.6275 38.4125 41.7369 38.6312ZM106.966 2.09998C106.966 2.28227 106.929 2.48279 106.857 2.70154C106.565 2.70154 106.346 2.738 106.2 2.81091C106.091 2.88383 105.927 2.97498 105.708 3.08435C105.489 2.90206 105.252 2.77445 104.997 2.70154C104.778 2.59216 104.669 2.35518 104.669 1.9906C104.669 1.84477 104.687 1.71716 104.724 1.60779C104.797 1.49841 104.833 1.38904 104.833 1.27966C105.052 0.987996 105.344 0.842163 105.708 0.842163C105.854 0.842163 105.963 0.878621 106.036 0.951538C106.255 0.951538 106.419 0.987996 106.528 1.06091C106.638 1.13383 106.747 1.20675 106.857 1.27966C106.857 1.4255 106.875 1.57133 106.911 1.71716C106.948 1.82654 106.966 1.95414 106.966 2.09998ZM106.802 6.58435C106.802 6.76664 106.784 6.91248 106.747 7.02185C106.747 7.13123 106.765 7.25883 106.802 7.40466C106.583 7.44112 106.364 7.49581 106.146 7.56873C105.927 7.64164 105.708 7.6781 105.489 7.6781C105.198 7.6781 104.961 7.56873 104.778 7.34998C104.596 7.09477 104.505 6.82133 104.505 6.52966C104.505 6.45675 104.505 6.38383 104.505 6.31091C104.541 6.20154 104.56 6.11039 104.56 6.03748C104.742 5.74581 104.979 5.59998 105.271 5.59998C105.599 5.59998 105.909 5.58175 106.2 5.54529C106.383 5.72758 106.528 5.87341 106.638 5.98279C106.747 6.09216 106.802 6.29268 106.802 6.58435ZM106.802 11.9984C106.62 12.1807 106.401 12.363 106.146 12.5453C105.89 12.7276 105.617 12.8187 105.325 12.8187C105.216 12.8187 105.052 12.7823 104.833 12.7094C104.724 12.5635 104.633 12.4359 104.56 12.3265C104.523 12.1807 104.432 12.0349 104.286 11.889C104.432 11.5974 104.541 11.3786 104.614 11.2328C104.724 11.0505 104.833 10.9229 104.942 10.85C105.088 10.7771 105.252 10.7406 105.435 10.7406C105.617 10.7041 105.872 10.6677 106.2 10.6312C106.383 10.85 106.492 11.0687 106.528 11.2875C106.601 11.5062 106.692 11.7432 106.802 11.9984ZM106.857 17.5219C106.674 17.6312 106.528 17.7588 106.419 17.9047C106.346 18.014 106.164 18.0687 105.872 18.0687C105.581 18.0687 105.344 17.9958 105.161 17.85C105.015 17.7041 104.851 17.5401 104.669 17.3578C104.669 16.8474 104.724 16.501 104.833 16.3187C104.979 16.1 105.179 15.7901 105.435 15.389C105.471 15.4255 105.508 15.5166 105.544 15.6625C105.581 15.8083 105.635 15.8995 105.708 15.9359H106.146L106.857 16.5375V17.5219ZM106.857 21.7875C106.857 22.0427 106.784 22.2979 106.638 22.5531C106.492 22.7719 106.273 22.8812 105.982 22.8812C105.909 22.8812 105.817 22.8812 105.708 22.8812C105.635 22.8448 105.562 22.8265 105.489 22.8265L105.216 22.9359C104.961 22.6807 104.724 22.389 104.505 22.0609C104.505 21.9515 104.541 21.7875 104.614 21.5687L104.396 21.4047C104.541 21.2224 104.706 21.0401 104.888 20.8578C105.07 20.6755 105.307 20.5844 105.599 20.5844C105.817 20.5844 105.963 20.639 106.036 20.7484C106.109 20.8213 106.328 20.8213 106.692 20.7484C106.729 20.9307 106.765 21.113 106.802 21.2953C106.838 21.4411 106.857 21.6052 106.857 21.7875ZM102.044 22.1156C102.044 22.2614 102.026 22.4073 101.989 22.5531C101.953 22.6625 101.916 22.7719 101.88 22.8812C101.734 22.9177 101.534 22.9359 101.278 22.9359C100.877 22.8995 100.586 22.863 100.403 22.8265C100.221 22.7901 100.021 22.6625 99.8019 22.4437C99.8383 22.0427 99.893 21.7328 99.9659 21.514C100.039 21.2588 100.276 21.0401 100.677 20.8578C100.896 20.8942 101.096 20.9489 101.278 21.0219C101.497 21.0583 101.698 21.113 101.88 21.1859C101.989 21.514 102.044 21.8239 102.044 22.1156ZM106.747 26.8734C106.747 27.639 106.346 28.0219 105.544 28.0219C105.398 28.0219 105.234 27.9672 105.052 27.8578C104.906 27.7484 104.76 27.6573 104.614 27.5844C104.578 27.4021 104.523 27.2745 104.45 27.2015C104.414 27.1651 104.377 27.1469 104.341 27.1469L104.45 26.3812H104.669C104.778 26.1989 104.888 26.0713 104.997 25.9984C105.107 25.889 105.289 25.8344 105.544 25.8344C105.726 25.8344 105.89 25.8526 106.036 25.889C106.182 25.9255 106.346 25.9437 106.528 25.9437C106.565 26.0896 106.601 26.2536 106.638 26.4359C106.711 26.6182 106.747 26.764 106.747 26.8734ZM97.3409 22.225C97.1951 22.4073 97.0493 22.5713 96.9034 22.7172C96.5753 23.0453 96.229 23.2094 95.8644 23.2094C95.7915 23.2094 95.7185 23.2094 95.6456 23.2094C95.6092 23.1729 95.5545 23.1547 95.4816 23.1547C95.2628 22.9724 95.117 22.7536 95.0441 22.4984C94.9711 22.2432 94.9347 21.988 94.9347 21.7328C95.0805 21.4776 95.2628 21.3135 95.4816 21.2406C95.7003 21.1677 95.9373 21.1312 96.1925 21.1312H96.7394C96.8123 21.2771 96.8852 21.4047 96.9581 21.514C97.031 21.6234 97.104 21.7328 97.1769 21.8422C97.2498 21.988 97.3045 22.1156 97.3409 22.225ZM106.857 31.85C106.857 32.2146 106.765 32.4515 106.583 32.5609C106.401 32.6338 106.273 32.7614 106.2 32.9437C105.726 32.9437 105.398 32.9255 105.216 32.889C105.034 32.8526 104.906 32.7979 104.833 32.725C104.797 32.6156 104.76 32.488 104.724 32.3422C104.687 32.1963 104.56 32.014 104.341 31.7953C104.45 31.5765 104.56 31.376 104.669 31.1937C104.815 30.975 104.997 30.7927 105.216 30.6469H105.489C105.635 30.6469 105.763 30.6833 105.872 30.7562C105.982 30.7927 106.127 30.8109 106.31 30.8109C106.456 30.9567 106.583 31.1208 106.692 31.3031C106.802 31.4489 106.857 31.6312 106.857 31.85ZM74.5362 1.5531C74.5362 2.09998 74.2628 2.46456 73.7159 2.64685C73.4972 2.64685 73.242 2.61039 72.9503 2.53748C72.6951 2.46456 72.4946 2.35518 72.3487 2.20935C72.2394 1.9906 72.1847 1.75362 72.1847 1.49841C72.1847 1.31612 72.2211 1.17029 72.2941 1.06091C72.367 0.951538 72.4399 0.823934 72.5128 0.678101C72.5128 0.641642 72.4764 0.514038 72.4034 0.295288H73.1691C73.4972 0.295288 73.88 0.386434 74.3175 0.568726C74.3904 0.751017 74.4451 0.91508 74.4816 1.06091C74.518 1.20675 74.5362 1.37081 74.5362 1.5531ZM92.255 22.225V22.4984C92.0727 22.6442 91.8722 22.7719 91.6534 22.8812C91.4711 22.9906 91.2524 23.0453 90.9972 23.0453C90.742 23.0453 90.5597 23.0088 90.4503 22.9359C90.3774 22.863 90.268 22.7354 90.1222 22.5531C90.0128 22.3708 89.9581 22.2432 89.9581 22.1703C89.9581 21.8422 90.0493 21.5505 90.2316 21.2953C90.4139 21.0036 90.6873 20.8578 91.0519 20.8578C91.2706 20.8578 91.4711 20.9125 91.6534 21.0219C91.8357 21.1312 92.018 21.2588 92.2003 21.4047C92.2003 21.5505 92.2003 21.6963 92.2003 21.8422C92.2368 21.9515 92.255 22.0791 92.255 22.225ZM106.857 36.4984C106.857 36.8265 106.802 37.1182 106.692 37.3734C106.219 37.5557 105.745 37.6469 105.271 37.6469C104.979 37.3916 104.797 37.1911 104.724 37.0453C104.651 36.863 104.523 36.626 104.341 36.3344C104.596 36.1521 104.778 35.8786 104.888 35.514C105.034 35.514 105.161 35.4958 105.271 35.4594C105.416 35.3864 105.562 35.35 105.708 35.35C105.89 35.35 106.054 35.3864 106.2 35.4594C106.346 35.4958 106.51 35.5505 106.692 35.6234C106.802 35.9151 106.857 36.2067 106.857 36.4984ZM74.5362 6.47498C74.5362 6.8031 74.4451 7.07654 74.2628 7.29529C74.0805 7.51404 73.8253 7.62341 73.4972 7.62341C73.3149 7.62341 73.1508 7.58695 73.005 7.51404C72.8592 7.44112 72.7133 7.3682 72.5675 7.29529C72.3852 7.00362 72.2941 6.71195 72.2941 6.42029V5.76404C72.7316 5.50883 73.1326 5.38123 73.4972 5.38123H74.0441C74.0805 5.56352 74.1717 5.70935 74.3175 5.81873C74.4633 5.89164 74.5362 6.01925 74.5362 6.20154V6.47498ZM106.692 41.4203C106.692 41.7484 106.583 41.9672 106.364 42.0765C106.146 42.1859 106 42.4047 105.927 42.7328C105.635 42.5505 105.289 42.3864 104.888 42.2406C104.523 42.1312 104.341 41.8396 104.341 41.3656C104.341 41.2562 104.359 41.1651 104.396 41.0922C104.432 40.9828 104.469 40.8734 104.505 40.764L104.341 40.5453C104.669 40.2901 104.997 40.1625 105.325 40.1625C105.544 40.1625 105.745 40.1989 105.927 40.2719C106.146 40.3083 106.364 40.363 106.583 40.4359C106.583 40.6182 106.601 40.7823 106.638 40.9281C106.674 41.0739 106.692 41.238 106.692 41.4203ZM86.7316 22.3344C86.4399 22.5166 86.2576 22.6989 86.1847 22.8812C86.1118 23.0271 85.8748 23.1 85.4737 23.1C85.1456 23.1 84.9086 23.0453 84.7628 22.9359C84.6534 22.7901 84.4894 22.626 84.2706 22.4437C84.2706 22.3344 84.2706 22.2067 84.2706 22.0609C84.2706 21.9151 84.2889 21.7875 84.3253 21.6781L84.4347 21.2406C84.5441 21.1677 84.6717 21.0948 84.8175 21.0219C85.1092 20.876 85.4008 20.8031 85.6925 20.8031H85.9659C86.0389 20.876 86.0935 20.9489 86.13 21.0219C86.2029 21.0583 86.2758 21.113 86.3487 21.1859C86.531 21.3682 86.6222 21.5323 86.6222 21.6781C86.6222 21.7875 86.5857 21.9151 86.5128 22.0609C86.6222 22.1703 86.6951 22.2614 86.7316 22.3344ZM74.5909 11.2875C74.5909 11.5062 74.5362 11.6521 74.4269 11.725C74.3175 11.7614 74.281 11.9437 74.3175 12.2719C74.0258 12.3448 73.7889 12.3812 73.6066 12.3812C73.0961 12.3812 72.7316 12.2354 72.5128 11.9437C72.2941 11.6156 72.1847 11.2146 72.1847 10.7406C72.2941 10.6677 72.3852 10.613 72.4581 10.5765C72.5675 10.5036 72.6769 10.4307 72.7862 10.3578C72.9321 10.2849 73.1144 10.2484 73.3331 10.2484C73.6977 10.2484 74.0623 10.3396 74.4269 10.5219C74.4269 10.6677 74.4451 10.7953 74.4816 10.9047C74.5545 11.014 74.5909 11.1416 74.5909 11.2875ZM80.8253 21.8422C80.643 22.0245 80.479 22.1885 80.3331 22.3344C80.1873 22.4437 80.005 22.5531 79.7862 22.6625C79.604 22.7354 79.4217 22.7719 79.2394 22.7719C79.0571 22.7719 78.893 22.7719 78.7472 22.7719C78.6378 22.7354 78.492 22.6989 78.3097 22.6625C78.3097 22.4073 78.255 22.2614 78.1456 22.225C78.0727 22.1521 78.018 21.988 77.9816 21.7328C78.1274 21.4776 78.3097 21.2588 78.5284 21.0765C78.7472 20.8578 79.0024 20.7484 79.2941 20.7484C79.6586 20.7484 79.9503 20.8942 80.1691 21.1859L80.8253 21.8422ZM74.4816 16.4281C74.4816 16.6104 74.4086 16.8838 74.2628 17.2484C74.0441 17.2484 73.8618 17.3031 73.7159 17.4125C73.6066 17.4854 73.4607 17.5219 73.2784 17.5219C73.0232 17.5219 72.7862 17.4307 72.5675 17.2484C72.3852 17.0661 72.2029 16.8838 72.0206 16.7015L72.3487 16.2094C72.3123 16.1364 72.2941 16.0453 72.2941 15.9359L72.5675 15.2797L74.0441 15.5531C74.3357 15.7719 74.4816 16.0635 74.4816 16.4281ZM74.5362 20.9125C74.5362 21.1312 74.518 21.35 74.4816 21.5687C74.4451 21.751 74.4269 21.9333 74.4269 22.1156C74.2446 22.2614 74.0805 22.389 73.9347 22.4984C73.7889 22.6078 73.5883 22.6625 73.3331 22.6625L72.1847 21.7875C72.1847 21.4958 72.1847 21.2953 72.1847 21.1859C72.2211 21.0401 72.2576 20.9489 72.2941 20.9125C72.367 20.8396 72.4217 20.7849 72.4581 20.7484C72.531 20.6755 72.6222 20.5297 72.7316 20.3109C72.9139 20.3474 73.0779 20.3656 73.2237 20.3656C73.3696 20.3656 73.5336 20.4021 73.7159 20.475C73.8982 20.6208 74.0258 20.7302 74.0987 20.8031C74.2081 20.876 74.354 20.9125 74.5362 20.9125ZM74.755 27.0375C74.5727 27.2198 74.3722 27.3656 74.1534 27.475C73.9711 27.5844 73.7524 27.639 73.4972 27.639C73.3149 27.639 73.1144 27.6026 72.8956 27.5297C72.7133 27.4567 72.531 27.3838 72.3487 27.3109C72.3487 27.0557 72.3852 26.8187 72.4581 26.6C72.531 26.3448 72.5675 26.1078 72.5675 25.889C72.8227 25.6338 73.1144 25.5062 73.4425 25.5062C73.7706 25.5062 74.1352 25.6338 74.5362 25.889C74.5727 25.9984 74.5909 26.1989 74.5909 26.4906C74.5909 26.5635 74.6092 26.6547 74.6456 26.764C74.6821 26.8734 74.7185 26.9646 74.755 27.0375ZM74.5362 32.725C74.1717 32.7979 73.88 32.8344 73.6612 32.8344C73.4425 32.8344 73.1873 32.7979 72.8956 32.725C72.8227 32.6156 72.7498 32.5062 72.6769 32.3969C72.604 32.251 72.5128 32.1234 72.4034 32.014C72.4034 31.7953 72.4217 31.5765 72.4581 31.3578C72.4946 31.139 72.604 30.9385 72.7862 30.7562C72.8956 30.7562 73.005 30.7562 73.1144 30.7562C73.2602 30.7198 73.406 30.7015 73.5519 30.7015C73.7706 30.7015 74.0258 30.738 74.3175 30.8109L74.5362 32.725ZM74.8644 36.2797C74.7185 36.5349 74.5909 36.7354 74.4816 36.8812C74.4086 36.9906 74.3904 37.1911 74.4269 37.4828C74.1352 37.6651 73.8435 37.7562 73.5519 37.7562C73.4425 37.7562 73.3331 37.7562 73.2237 37.7562C73.1508 37.7198 73.0597 37.6833 72.9503 37.6469C72.8045 37.501 72.7133 37.4099 72.6769 37.3734C72.6404 37.337 72.5128 37.2823 72.2941 37.2094C72.2941 37.0271 72.3123 36.863 72.3487 36.7172C72.3852 36.5349 72.3852 36.3526 72.3487 36.1703C72.531 36.0609 72.7316 35.9333 72.9503 35.7875C73.2055 35.6052 73.4243 35.514 73.6066 35.514C73.7159 35.514 73.8071 35.5323 73.88 35.5687C73.9529 35.6052 74.0258 35.6599 74.0987 35.7328C74.1717 35.9515 74.2628 36.0974 74.3722 36.1703C74.4816 36.2067 74.6456 36.2432 74.8644 36.2797ZM74.5362 41.7484C74.5362 42.0036 74.4816 42.2041 74.3722 42.35C74.1899 42.5323 73.9165 42.6234 73.5519 42.6234C73.4425 42.6234 73.3149 42.6052 73.1691 42.5687C73.0597 42.5687 72.9503 42.5687 72.8409 42.5687C72.7316 42.4594 72.6586 42.35 72.6222 42.2406C72.5857 42.1312 72.4764 42.0583 72.2941 42.0219C72.2211 41.876 72.1847 41.7302 72.1847 41.5844C72.1847 41.3656 72.2576 41.1651 72.4034 40.9828C72.5493 40.8005 72.6769 40.6 72.7862 40.3812C73.005 40.3448 73.2237 40.3265 73.4425 40.3265C73.6612 40.2901 73.8618 40.2354 74.0441 40.1625C74.1899 40.3083 74.2993 40.4724 74.3722 40.6547C74.4816 40.8005 74.4998 40.9646 74.4269 41.1469C74.4998 41.3656 74.5362 41.5661 74.5362 41.7484ZM143.211 2.04529C143.211 2.33695 143.065 2.61039 142.773 2.8656C142.481 3.12081 142.19 3.24841 141.898 3.24841H141.57C141.424 3.06612 141.297 2.90206 141.187 2.75623C141.078 2.57393 140.968 2.39164 140.859 2.20935C140.932 1.9906 140.968 1.863 140.968 1.82654C141.005 1.75362 140.987 1.60779 140.914 1.38904C141.461 1.13383 141.953 0.987996 142.39 0.951538C142.682 1.2432 142.919 1.4255 143.101 1.49841C143.174 1.79008 143.211 1.97237 143.211 2.04529ZM138.453 2.09998V2.4281C138.198 2.53748 138.052 2.71977 138.015 2.97498C137.869 3.01143 137.724 3.04789 137.578 3.08435C137.468 3.12081 137.323 3.13904 137.14 3.13904C137.031 3.13904 136.922 3.12081 136.812 3.08435C136.703 3.04789 136.575 3.02966 136.429 3.02966C136.429 2.84737 136.393 2.70154 136.32 2.59216C136.284 2.44633 136.265 2.3005 136.265 2.15466C136.265 1.89945 136.375 1.6807 136.593 1.49841C136.849 1.27966 137.067 1.1156 137.25 1.00623C137.432 1.04268 137.56 1.09737 137.632 1.17029C137.705 1.2432 137.833 1.2432 138.015 1.17029C138.088 1.31612 138.179 1.46195 138.289 1.60779C138.398 1.75362 138.453 1.91768 138.453 2.09998ZM133.914 2.15466L133.148 3.24841C132.929 3.21195 132.747 3.19373 132.601 3.19373C132.455 3.19373 132.328 3.19373 132.218 3.19373C132.109 3.15727 132 3.10258 131.89 3.02966C131.781 2.92029 131.635 2.738 131.453 2.48279V2.04529C131.453 1.89945 131.471 1.79008 131.507 1.71716C131.544 1.64425 131.599 1.5531 131.672 1.44373C131.817 1.29789 131.963 1.18852 132.109 1.1156C132.291 1.04268 132.474 0.969767 132.656 0.896851C132.838 1.00623 132.984 1.1156 133.093 1.22498C133.203 1.33435 133.349 1.40727 133.531 1.44373L133.914 2.15466ZM128.554 1.66248C128.554 2.06352 128.445 2.40987 128.226 2.70154C128.044 2.9932 127.734 3.13904 127.297 3.13904H126.804C126.549 2.77445 126.422 2.4281 126.422 2.09998V1.66248C126.64 1.48018 126.768 1.33435 126.804 1.22498C126.877 1.07914 127.078 1.00623 127.406 1.00623C127.661 1.00623 127.862 1.07914 128.007 1.22498C128.19 1.33435 128.372 1.48018 128.554 1.66248ZM123.687 2.04529C123.687 2.40987 123.632 2.70154 123.523 2.92029C123.414 3.13904 123.159 3.24841 122.757 3.24841C122.575 3.24841 122.411 3.21195 122.265 3.13904C122.119 3.02966 121.955 2.92029 121.773 2.81091C121.737 2.738 121.7 2.66508 121.664 2.59216C121.627 2.48279 121.609 2.37341 121.609 2.26404C121.609 1.93591 121.737 1.6807 121.992 1.49841C122.284 1.31612 122.575 1.22498 122.867 1.22498C122.94 1.22498 123.013 1.2432 123.086 1.27966C123.195 1.27966 123.304 1.27966 123.414 1.27966C123.45 1.4255 123.505 1.5531 123.578 1.66248C123.651 1.77185 123.687 1.89945 123.687 2.04529ZM138.07 20.9672C138.07 21.0765 138.034 21.2041 137.961 21.35C137.669 21.6416 137.432 21.8239 137.25 21.8969C137.104 21.9333 136.83 21.9698 136.429 22.0062C136.247 21.8604 136.138 21.7146 136.101 21.5687C136.065 21.3864 135.955 21.2224 135.773 21.0765L136.265 20.0922H136.593C136.666 20.0557 136.757 20.0192 136.867 19.9828C136.976 19.9099 137.086 19.8734 137.195 19.8734C137.268 19.8734 137.414 19.9099 137.632 19.9828C137.705 20.1651 137.797 20.3291 137.906 20.475C138.015 20.6208 138.07 20.7849 138.07 20.9672ZM119.203 2.31873C119.13 2.50102 119.057 2.66508 118.984 2.81091C118.911 2.92029 118.875 3.08435 118.875 3.3031H118.547C118.474 3.37602 118.419 3.46716 118.382 3.57654C118.382 3.64945 118.346 3.72237 118.273 3.79529C117.981 3.72237 117.635 3.613 117.234 3.46716C116.869 3.28487 116.687 2.9932 116.687 2.59216C116.687 2.26404 116.797 2.00883 117.015 1.82654C117.234 1.60779 117.489 1.49841 117.781 1.49841C117.927 1.49841 118.109 1.53487 118.328 1.60779C118.401 1.79008 118.528 1.91768 118.711 1.9906C118.893 2.06352 119.057 2.17289 119.203 2.31873ZM133.312 21.0219C133.312 21.2406 133.239 21.4411 133.093 21.6234C132.984 21.7692 132.838 21.8969 132.656 22.0062L132.437 21.8969C132.364 21.8969 132.31 21.9151 132.273 21.9515C132.273 21.9515 132.237 21.9515 132.164 21.9515C131.872 21.9515 131.635 21.8422 131.453 21.6234C131.307 21.4047 131.234 21.1495 131.234 20.8578C131.234 20.4932 131.38 20.2015 131.672 19.9828C131.854 19.9828 132.127 19.9463 132.492 19.8734C132.711 19.9828 132.893 20.1286 133.039 20.3109C133.221 20.4932 133.312 20.7302 133.312 21.0219ZM118.273 6.52966C118.273 6.71195 118.255 6.87602 118.218 7.02185C118.182 7.16768 118.146 7.31352 118.109 7.45935H117.617C117.507 7.45935 117.362 7.5505 117.179 7.73279C116.596 7.47758 116.195 7.05831 115.976 6.47498C116.159 6.32914 116.341 6.18331 116.523 6.03748C116.742 5.89164 116.924 5.72758 117.07 5.54529C117.325 5.58175 117.58 5.67289 117.836 5.81873C118.127 5.96456 118.273 6.20154 118.273 6.52966ZM118.929 11.0687C118.747 11.3239 118.601 11.6338 118.492 11.9984C118.31 11.962 118.127 11.962 117.945 11.9984C117.799 12.0349 117.635 12.0531 117.453 12.0531C117.198 12.0531 116.997 11.9984 116.851 11.889C116.778 11.7067 116.687 11.5427 116.578 11.3969C116.468 11.251 116.414 11.087 116.414 10.9047C116.414 10.8317 116.45 10.6859 116.523 10.4672C116.669 10.3213 116.833 10.212 117.015 10.139C117.198 10.0661 117.362 9.95675 117.507 9.81091C117.763 9.84737 117.963 9.92029 118.109 10.0297C118.255 10.1026 118.419 10.1937 118.601 10.3031C118.674 10.4489 118.729 10.5948 118.765 10.7406C118.802 10.85 118.856 10.9594 118.929 11.0687ZM127.898 20.7484C127.789 21.0765 127.643 21.3864 127.461 21.6781C127.315 21.9698 127.023 22.1156 126.586 22.1156C126.44 22.0427 126.276 21.988 126.093 21.9515C125.948 21.9151 125.82 21.8422 125.711 21.7328C125.601 21.514 125.547 21.2771 125.547 21.0219C125.547 20.9125 125.565 20.8213 125.601 20.7484C125.638 20.6755 125.674 20.5844 125.711 20.475L126.422 19.9281L126.968 19.8734C127.114 20.0192 127.26 20.1651 127.406 20.3109C127.588 20.4203 127.752 20.5661 127.898 20.7484ZM119.148 15.9359C119.075 16.2276 118.966 16.4828 118.82 16.7015C118.674 16.9203 118.619 17.1937 118.656 17.5219C118.474 17.5219 118.31 17.5219 118.164 17.5219C118.018 17.4854 117.872 17.4672 117.726 17.4672C117.69 17.4672 117.635 17.4854 117.562 17.5219C117.489 17.5219 117.453 17.5401 117.453 17.5765C117.271 17.4307 117.143 17.3396 117.07 17.3031C116.997 17.2302 116.851 17.1573 116.632 17.0844C116.632 16.9385 116.632 16.8291 116.632 16.7562C116.669 16.6469 116.705 16.5192 116.742 16.3734C116.742 16.337 116.705 16.2458 116.632 16.1C116.778 15.9177 116.942 15.7536 117.125 15.6078C117.343 15.4255 117.599 15.3344 117.89 15.3344C118.146 15.3344 118.364 15.462 118.547 15.7172L119.148 15.9359ZM122.648 21.2953C122.32 21.8057 121.882 22.0609 121.336 22.0609C121.19 22.0609 120.971 22.0245 120.679 21.9515C120.643 21.8057 120.588 21.6781 120.515 21.5687C120.442 21.4594 120.406 21.3135 120.406 21.1312V20.8578C120.479 20.6755 120.552 20.5297 120.625 20.4203C120.734 20.2745 120.789 20.1104 120.789 19.9281C121.08 19.9281 121.354 19.9828 121.609 20.0922C121.864 20.1651 122.138 20.238 122.429 20.3109C122.502 20.4932 122.539 20.6573 122.539 20.8031C122.539 20.9489 122.575 21.113 122.648 21.2953ZM142.664 41.8578C142.409 42.113 142.153 42.2588 141.898 42.2953C141.643 42.3682 141.369 42.4594 141.078 42.5687C140.567 42.2406 140.312 41.8213 140.312 41.3109C140.312 41.0922 140.44 40.8552 140.695 40.6C140.95 40.3083 141.205 40.1625 141.461 40.1625C141.752 40.1625 141.935 40.2354 142.007 40.3812C142.08 40.4906 142.208 40.5635 142.39 40.6C142.536 40.8187 142.591 40.9828 142.554 41.0922C142.554 41.1651 142.554 41.3109 142.554 41.5297C142.554 41.6755 142.591 41.7849 142.664 41.8578ZM118.875 20.9125C118.765 21.1312 118.638 21.3682 118.492 21.6234C118.382 21.8422 118.218 22.0245 118 22.1703C117.817 22.1703 117.635 22.1885 117.453 22.225C117.271 22.225 117.088 22.225 116.906 22.225C116.906 21.9698 116.833 21.8057 116.687 21.7328C116.541 21.6599 116.468 21.4594 116.468 21.1312C116.468 20.9489 116.523 20.7849 116.632 20.639C116.742 20.4567 116.869 20.2927 117.015 20.1469H117.234C117.307 20.1469 117.362 20.1469 117.398 20.1469C117.471 20.1104 117.544 20.0922 117.617 20.0922H117.945L118.875 20.9125ZM138.07 41.639C138.07 41.7849 138.034 41.9125 137.961 42.0219C137.888 42.1312 137.815 42.2588 137.742 42.4047C137.377 42.587 136.94 42.6781 136.429 42.6781C136.284 42.5323 136.156 42.3864 136.047 42.2406C135.974 42.0948 135.882 41.9489 135.773 41.8031C135.773 41.6208 135.791 41.4567 135.828 41.3109C135.864 41.1286 135.882 40.9463 135.882 40.764C136.101 40.764 136.229 40.7094 136.265 40.6C136.302 40.4906 136.338 40.3448 136.375 40.1625C136.739 40.3083 136.994 40.4177 137.14 40.4906C137.323 40.5271 137.523 40.7094 137.742 41.0375C137.815 41.1469 137.888 41.238 137.961 41.3109C138.034 41.3838 138.07 41.4932 138.07 41.639ZM118.547 25.5609C118.547 25.8526 118.51 26.126 118.437 26.3812C118.364 26.6 118.328 26.837 118.328 27.0922C118.146 27.1651 117.963 27.238 117.781 27.3109C117.599 27.3838 117.416 27.4203 117.234 27.4203H116.687C116.614 27.1286 116.523 26.9463 116.414 26.8734C116.341 26.764 116.304 26.5088 116.304 26.1078C116.304 25.9255 116.323 25.7979 116.359 25.725L117.562 25.014C117.744 25.1599 117.89 25.2692 118 25.3422C118.146 25.4151 118.328 25.488 118.547 25.5609ZM133.422 41.3109C133.312 41.5297 133.239 41.7302 133.203 41.9125C133.203 42.0948 133.13 42.2771 132.984 42.4594C132.692 42.5687 132.437 42.6234 132.218 42.6234C131.927 42.6234 131.672 42.514 131.453 42.2953C131.271 42.0765 131.179 41.8213 131.179 41.5297C131.179 41.4203 131.216 41.2927 131.289 41.1469C131.362 41.0739 131.453 41.001 131.562 40.9281C131.672 40.8187 131.763 40.7094 131.836 40.6L132 40.4359C132.547 40.4359 132.838 40.4906 132.875 40.6C132.948 40.7094 133.13 40.9463 133.422 41.3109ZM118.765 31.0844C118.692 31.3396 118.619 31.5036 118.547 31.5765C118.474 31.6495 118.455 31.8135 118.492 32.0687C118.31 32.1416 118.127 32.2146 117.945 32.2875C117.763 32.3604 117.58 32.3969 117.398 32.3969C117.289 32.3969 117.179 32.3969 117.07 32.3969C116.961 32.3604 116.851 32.3422 116.742 32.3422C116.669 32.1599 116.578 31.9958 116.468 31.85C116.359 31.7041 116.304 31.5219 116.304 31.3031V30.975C116.56 30.4646 116.888 30.2094 117.289 30.2094C117.471 30.2094 117.635 30.2276 117.781 30.264C117.963 30.3005 118.146 30.3187 118.328 30.3187C118.401 30.4646 118.455 30.6104 118.492 30.7562C118.565 30.8656 118.656 30.975 118.765 31.0844ZM128.39 41.5844C128.39 41.876 128.299 42.1495 128.117 42.4047C127.935 42.6599 127.679 42.7875 127.351 42.7875C127.06 42.7875 126.786 42.6781 126.531 42.4594C126.312 42.2771 126.203 42.0219 126.203 41.6937C126.203 41.4021 126.276 41.2015 126.422 41.0922C126.567 40.9463 126.731 40.7823 126.914 40.6C127.205 40.6364 127.461 40.6911 127.679 40.764C127.935 40.837 128.153 40.9828 128.336 41.2015C128.372 41.2745 128.39 41.4021 128.39 41.5844ZM118.656 35.7875C118.619 35.9698 118.565 36.1521 118.492 36.3344C118.455 36.4802 118.364 36.6078 118.218 36.7172C117.854 36.863 117.562 36.9359 117.343 36.9359C116.979 36.9359 116.724 36.8265 116.578 36.6078C116.468 36.3526 116.396 36.0791 116.359 35.7875C116.541 35.4229 116.851 35.0219 117.289 34.5844C117.471 34.7666 117.635 34.8578 117.781 34.8578C117.927 34.8213 118.091 34.8942 118.273 35.0765C118.273 35.1859 118.31 35.3135 118.382 35.4594C118.492 35.4958 118.583 35.6052 118.656 35.7875ZM123.578 42.1859C123.286 42.2588 123.067 42.35 122.922 42.4594C122.812 42.5687 122.612 42.6234 122.32 42.6234C122.065 42.6234 121.864 42.5505 121.718 42.4047C121.646 42.2588 121.554 42.1312 121.445 42.0219C121.372 41.9125 121.336 41.7666 121.336 41.5844C121.336 41.4385 121.354 41.3109 121.39 41.2015C121.463 41.0922 121.518 40.9828 121.554 40.8734C121.737 40.764 121.901 40.6547 122.047 40.5453C122.229 40.3995 122.448 40.3265 122.703 40.3265C122.922 40.3265 123.086 40.3448 123.195 40.3812C123.231 40.6364 123.304 40.8005 123.414 40.8734C123.523 40.9099 123.578 41.0192 123.578 41.2015C123.578 41.3109 123.541 41.4203 123.468 41.5297C123.432 41.6026 123.414 41.6755 123.414 41.7484C123.414 41.8213 123.432 41.8942 123.468 41.9672C123.505 42.0401 123.541 42.113 123.578 42.1859ZM118.218 40.9281C118.182 41.5844 117.89 42.0948 117.343 42.4594C117.125 42.3135 116.869 42.2771 116.578 42.35C116.468 42.2406 116.359 42.113 116.25 41.9672C116.177 41.8213 116.067 41.712 115.922 41.639V41.2562C115.922 41.1104 115.94 40.9828 115.976 40.8734C116.013 40.764 116.031 40.6547 116.031 40.5453C116.213 40.4359 116.396 40.3448 116.578 40.2719C116.797 40.1989 116.997 40.0896 117.179 39.9437C117.507 40.0896 117.69 40.2536 117.726 40.4359C117.799 40.5817 117.963 40.7458 118.218 40.9281ZM180.057 5.21716C179.947 5.39945 179.893 5.54529 179.893 5.65466C179.893 5.76404 179.893 5.9281 179.893 6.14685C179.711 6.25623 179.51 6.38383 179.291 6.52966C179.109 6.6755 178.927 6.78487 178.744 6.85779C178.453 6.85779 178.143 6.73018 177.815 6.47498C177.742 6.18331 177.705 5.96456 177.705 5.81873C177.705 5.45414 177.778 5.16248 177.924 4.94373C178.106 4.68852 178.398 4.56091 178.799 4.56091C179.054 4.56091 179.273 4.65206 179.455 4.83435C179.638 4.98018 179.838 5.10779 180.057 5.21716ZM183.721 9.8656C183.575 10.0114 183.466 10.139 183.393 10.2484C183.429 10.2849 183.447 10.3578 183.447 10.4672C183.447 10.5401 183.429 10.613 183.393 10.6859C183.283 10.7224 183.174 10.7588 183.065 10.7953C182.955 10.8317 182.828 10.85 182.682 10.85C182.135 10.85 181.716 10.5765 181.424 10.0297C181.606 9.70154 181.77 9.37341 181.916 9.04529C182.062 8.71716 182.354 8.5531 182.791 8.5531C183.046 8.69893 183.265 8.88123 183.447 9.09998C183.63 9.31873 183.721 9.57393 183.721 9.8656ZM174.916 3.52185C174.916 3.59477 174.88 3.77706 174.807 4.06873C174.479 4.39685 174.151 4.56091 173.822 4.56091C173.494 4.56091 173.221 4.45154 173.002 4.23279C172.856 3.94112 172.783 3.66768 172.783 3.41248C172.783 3.26664 172.82 3.08435 172.893 2.8656C173.075 2.79268 173.184 2.70154 173.221 2.59216C173.257 2.44633 173.421 2.37341 173.713 2.37341C174.005 2.37341 174.278 2.50102 174.533 2.75623C174.789 2.97498 174.916 3.23018 174.916 3.52185ZM185.143 13.9125L185.033 15.389C184.888 15.4255 184.742 15.462 184.596 15.4984C184.487 15.5349 184.359 15.5531 184.213 15.5531C184.031 15.5531 183.812 15.5166 183.557 15.4437C183.338 15.3344 183.192 15.225 183.119 15.1156C183.046 14.9698 183.01 14.7328 183.01 14.4047C183.01 14.2588 183.028 14.1312 183.065 14.0219C183.101 13.9125 183.138 13.7849 183.174 13.639C183.429 13.4932 183.612 13.3838 183.721 13.3109C183.867 13.238 184.086 13.2015 184.377 13.2015C184.45 13.3838 184.559 13.5297 184.705 13.639C184.851 13.712 184.997 13.8031 185.143 13.9125ZM169.83 2.59216C169.83 2.66508 169.794 2.81091 169.721 3.02966C169.612 3.13904 169.484 3.26664 169.338 3.41248C169.229 3.55831 169.101 3.66768 168.955 3.7406C168.554 3.7406 168.226 3.63123 167.971 3.41248C167.716 3.19373 167.588 2.88383 167.588 2.48279V2.20935C167.697 2.09998 167.807 2.00883 167.916 1.93591C168.062 1.82654 168.171 1.73539 168.244 1.66248C168.463 1.58956 168.627 1.5531 168.737 1.5531C168.919 1.5531 169.065 1.58956 169.174 1.66248C169.32 1.73539 169.484 1.79008 169.666 1.82654C169.666 1.97237 169.684 2.09998 169.721 2.20935C169.794 2.31873 169.83 2.44633 169.83 2.59216ZM186.291 19.4906C186.291 19.6729 186.255 19.837 186.182 19.9828C186.145 20.1286 186.127 20.2927 186.127 20.475C186.018 20.5844 185.872 20.6937 185.69 20.8031C185.544 20.876 185.38 20.9125 185.197 20.9125C184.906 20.9125 184.669 20.8031 184.487 20.5844C184.341 20.3656 184.268 20.1104 184.268 19.8187C184.268 19.4541 184.414 19.126 184.705 18.8344C184.997 18.7614 185.179 18.725 185.252 18.725C185.58 18.725 185.89 18.8161 186.182 18.9984C186.255 19.2172 186.291 19.3812 186.291 19.4906ZM164.58 2.15466C164.398 2.44633 164.252 2.71977 164.143 2.97498C164.07 3.23018 163.815 3.37602 163.377 3.41248C163.086 3.26664 162.83 3.12081 162.612 2.97498C162.429 2.79268 162.338 2.51925 162.338 2.15466C162.338 2.04529 162.375 1.88123 162.447 1.66248C162.63 1.58956 162.812 1.51664 162.994 1.44373C163.213 1.37081 163.432 1.33435 163.651 1.33435C163.942 1.33435 164.143 1.4255 164.252 1.60779C164.362 1.75362 164.471 1.93591 164.58 2.15466ZM186.237 25.2328C186.2 25.5245 186.018 25.8344 185.69 26.1625C185.544 26.1989 185.416 26.2354 185.307 26.2719C185.197 26.2719 185.07 26.2719 184.924 26.2719C184.742 26.2719 184.632 26.2172 184.596 26.1078C184.487 25.9984 184.359 25.9073 184.213 25.8344C184.104 25.725 184.013 25.5974 183.94 25.4515C183.94 24.9411 184.013 24.613 184.158 24.4672L185.362 23.975C185.434 24.1208 185.507 24.2484 185.58 24.3578C185.69 24.4307 185.836 24.5036 186.018 24.5765L186.237 25.2328ZM159.604 2.37341C159.604 2.48279 159.586 2.59216 159.549 2.70154C159.549 2.77445 159.549 2.84737 159.549 2.92029C159.367 3.02966 159.239 3.15727 159.166 3.3031C159.13 3.41248 158.984 3.52185 158.729 3.63123C158.619 3.63123 158.51 3.64945 158.401 3.68591C158.291 3.72237 158.182 3.7406 158.072 3.7406C157.817 3.7406 157.599 3.59477 157.416 3.3031C157.234 2.97498 157.143 2.70154 157.143 2.48279C157.143 2.19112 157.27 1.97237 157.526 1.82654C157.817 1.64425 158.091 1.5531 158.346 1.5531C158.565 1.5531 158.82 1.62602 159.112 1.77185C159.44 1.91768 159.604 2.1182 159.604 2.37341ZM185.416 29.8265C185.416 30.1547 185.307 30.4646 185.088 30.7562C184.869 31.0114 184.578 31.139 184.213 31.139C184.031 31.139 183.83 31.0661 183.612 30.9203C183.575 30.7745 183.484 30.6651 183.338 30.5922C183.229 30.5192 183.119 30.4463 183.01 30.3734C183.083 30.1911 183.119 30.0635 183.119 29.9906C183.156 29.8812 183.156 29.7354 183.119 29.5531C183.375 29.2979 183.63 29.1338 183.885 29.0609C184.177 28.988 184.487 28.8786 184.815 28.7328L184.651 28.9515C184.942 29.0974 185.161 29.1885 185.307 29.225C185.38 29.4437 185.416 29.6442 185.416 29.8265ZM153.752 2.81091C153.752 3.06612 153.661 3.28487 153.479 3.46716C153.333 3.613 153.187 3.75883 153.041 3.90466C152.822 3.8682 152.604 3.83175 152.385 3.79529C152.203 3.72237 152.039 3.59477 151.893 3.41248C151.565 3.26664 151.401 3.06612 151.401 2.81091C151.401 2.51925 151.546 2.28227 151.838 2.09998C152.13 1.88123 152.421 1.77185 152.713 1.77185C153.005 1.77185 153.242 1.88123 153.424 2.09998C153.643 2.28227 153.752 2.51925 153.752 2.81091ZM183.447 35.0219C183.338 35.3135 183.174 35.6234 182.955 35.9515C182.737 36.2432 182.463 36.389 182.135 36.389C181.843 36.389 181.606 36.2797 181.424 36.0609C181.278 35.8422 181.132 35.6234 180.987 35.4047C180.987 35.2224 181.023 35.0219 181.096 34.8031C181.132 34.6937 181.151 34.6026 181.151 34.5297C181.187 34.4567 181.242 34.4021 181.315 34.3656C181.461 34.2927 181.57 34.2562 181.643 34.2562C181.934 34.1104 182.171 34.0375 182.354 34.0375H182.572L183.447 35.0219ZM153.862 8.00623C153.862 8.15206 153.843 8.27966 153.807 8.38904C153.807 8.49841 153.825 8.62602 153.862 8.77185C153.643 8.84477 153.442 8.95414 153.26 9.09998C153.078 9.24581 152.877 9.31873 152.658 9.31873C152.367 9.31873 152.13 9.20935 151.947 8.9906C151.765 8.73539 151.674 8.46195 151.674 8.17029C151.674 7.84216 151.802 7.60518 152.057 7.45935C152.312 7.27706 152.604 7.18591 152.932 7.18591C153.114 7.18591 153.278 7.2406 153.424 7.34998C153.606 7.45935 153.752 7.58695 153.862 7.73279V8.00623ZM178.854 38.6859C178.781 38.9411 178.708 39.1963 178.635 39.4515C178.599 39.6703 178.526 39.9073 178.416 40.1625C178.38 40.126 178.307 40.1078 178.197 40.1078C178.052 40.1442 177.924 40.1807 177.815 40.2172C177.742 40.2536 177.632 40.2719 177.487 40.2719C177.377 40.1989 177.25 40.1442 177.104 40.1078C176.958 40.0349 176.83 39.962 176.721 39.889C176.612 39.6338 176.557 39.3422 176.557 39.014C176.776 38.8317 176.903 38.613 176.94 38.3578C177.013 38.0661 177.25 37.9203 177.651 37.9203C177.76 37.9203 177.924 37.9567 178.143 38.0297C178.289 38.1026 178.416 38.212 178.526 38.3578C178.635 38.4672 178.744 38.5765 178.854 38.6859ZM153.643 13.4203C153.57 13.5661 153.533 13.712 153.533 13.8578C153.57 13.9672 153.552 14.0948 153.479 14.2406C153.296 14.35 153.114 14.4594 152.932 14.5687C152.75 14.6781 152.567 14.7875 152.385 14.8969C152.093 14.8969 151.838 14.7875 151.619 14.5687C151.401 14.35 151.218 14.0948 151.072 13.8031C151.182 13.6573 151.255 13.5114 151.291 13.3656C151.328 13.2198 151.401 13.0739 151.51 12.9281C151.729 12.8916 151.893 12.837 152.002 12.764C152.148 12.6911 152.349 12.6547 152.604 12.6547C152.786 12.8005 152.95 12.9281 153.096 13.0375C153.278 13.1104 153.461 13.238 153.643 13.4203ZM154.026 18.725C154.026 18.9802 153.989 19.1625 153.916 19.2719C153.843 19.3812 153.789 19.5453 153.752 19.764C153.57 19.8005 153.369 19.8552 153.151 19.9281C152.932 20.001 152.768 20.0375 152.658 20.0375C152.403 20.0375 152.203 19.8916 152.057 19.6C151.911 19.3083 151.838 19.0713 151.838 18.889C151.838 18.5974 151.929 18.3239 152.112 18.0687C152.294 17.8135 152.549 17.6859 152.877 17.6859C153.059 17.6859 153.26 17.7771 153.479 17.9594C153.697 18.1052 153.88 18.2146 154.026 18.2875V18.725ZM173.002 40.8187L172.51 41.9672C172.218 42.0765 171.927 42.1312 171.635 42.1312C171.526 42.1312 171.398 42.113 171.252 42.0765C171.143 42.0765 171.033 42.0765 170.924 42.0765L170.541 40.5453C170.869 40.1442 171.27 39.9437 171.744 39.9437C172.072 39.9437 172.364 40.0713 172.619 40.3265C172.656 40.5088 172.674 40.6182 172.674 40.6547C172.674 40.6911 172.783 40.7458 173.002 40.8187ZM153.205 23.5922L153.369 24.0844C153.442 24.3031 153.479 24.4489 153.479 24.5219C153.479 24.7041 153.406 24.8864 153.26 25.0687C153.114 25.251 152.987 25.4151 152.877 25.5609C152.658 25.6338 152.476 25.6703 152.33 25.6703C152.148 25.6703 151.875 25.5974 151.51 25.4515C151.328 25.2328 151.237 24.9411 151.237 24.5765C151.237 24.2484 151.291 23.975 151.401 23.7562C151.765 23.501 152.112 23.3552 152.44 23.3187C152.622 23.3552 152.731 23.3916 152.768 23.4281C152.841 23.4646 152.987 23.5192 153.205 23.5922ZM165.674 41.2015C165.638 41.4567 165.565 41.6026 165.455 41.639C165.382 41.6755 165.382 41.8396 165.455 42.1312C165.273 42.1677 165.054 42.2406 164.799 42.35C164.58 42.4594 164.416 42.514 164.307 42.514C164.088 42.514 163.888 42.35 163.705 42.0219C163.523 41.7302 163.432 41.475 163.432 41.2562C163.432 41.001 163.559 40.764 163.815 40.5453C164.106 40.3265 164.362 40.2172 164.58 40.2172H165.018C165.237 40.363 165.364 40.5271 165.401 40.7094C165.474 40.8552 165.565 41.0192 165.674 41.2015ZM154.026 30.5375C153.953 30.8291 153.807 31.0844 153.588 31.3031C153.369 31.5219 153.114 31.7041 152.822 31.85C152.64 31.6677 152.421 31.5219 152.166 31.4125C151.947 31.2666 151.838 31.0479 151.838 30.7562C151.838 30.6104 151.838 30.4828 151.838 30.3734C151.875 30.264 151.893 30.1364 151.893 29.9906C152.039 29.8812 152.203 29.7719 152.385 29.6625C152.567 29.5166 152.75 29.4437 152.932 29.4437C153.224 29.4437 153.461 29.5713 153.643 29.8265C153.825 30.0453 153.953 30.2823 154.026 30.5375ZM160.26 41.0375C160.26 41.2927 160.205 41.5297 160.096 41.7484C159.987 41.9307 159.914 42.1312 159.877 42.35C159.658 42.35 159.494 42.3864 159.385 42.4594C159.312 42.5323 159.203 42.5687 159.057 42.5687C158.692 42.5687 158.401 42.4411 158.182 42.1859C158 41.9307 157.908 41.639 157.908 41.3109C157.908 41.0192 158 40.8005 158.182 40.6547C158.364 40.5088 158.528 40.3265 158.674 40.1078C159.075 40.1807 159.367 40.2719 159.549 40.3812C159.768 40.4906 160.005 40.7094 160.26 41.0375ZM153.916 35.8422C153.916 36.1338 153.77 36.3161 153.479 36.389C153.369 36.5349 153.224 36.6625 153.041 36.7719C152.895 36.8812 152.731 36.9359 152.549 36.9359C152.403 36.9359 152.221 36.863 152.002 36.7172L151.455 35.6234L152.112 34.8578C152.367 34.7484 152.64 34.6937 152.932 34.6937C153.333 34.6937 153.643 34.876 153.862 35.2406C153.862 35.3135 153.862 35.4047 153.862 35.514C153.898 35.6234 153.916 35.7328 153.916 35.8422ZM153.862 41.2562C153.862 41.4385 153.789 41.6208 153.643 41.8031C153.533 41.9489 153.461 42.113 153.424 42.2953H153.151C153.078 42.3317 152.987 42.3682 152.877 42.4047C152.768 42.4411 152.677 42.4594 152.604 42.4594C152.531 42.4594 152.385 42.4229 152.166 42.35C152.093 42.1677 152.02 42.0583 151.947 42.0219C151.875 41.9854 151.783 41.9125 151.674 41.8031C151.601 41.6208 151.565 41.4932 151.565 41.4203C151.565 41.3109 151.51 41.1651 151.401 40.9828C151.474 40.837 151.565 40.7094 151.674 40.6C151.82 40.4541 151.984 40.3448 152.166 40.2719C152.276 40.1625 152.458 40.1078 152.713 40.1078H152.987C153.169 40.2901 153.351 40.4541 153.533 40.6C153.752 40.7458 153.862 40.9646 153.862 41.2562ZM227.403 1.9906C227.403 2.24581 227.312 2.46456 227.13 2.64685C226.984 2.79268 226.82 2.92029 226.637 3.02966C226.565 3.02966 226.492 3.02966 226.419 3.02966C226.346 2.9932 226.273 2.97498 226.2 2.97498C226.164 2.97498 226.109 2.9932 226.036 3.02966C225.999 3.02966 225.963 3.02966 225.927 3.02966C225.635 3.02966 225.398 2.90206 225.216 2.64685C225.033 2.35518 224.942 2.08175 224.942 1.82654C224.942 1.49841 224.979 1.27966 225.052 1.17029C225.161 1.02445 225.289 0.933309 225.434 0.896851C225.58 0.860392 225.726 0.842163 225.872 0.842163C226.054 0.805705 226.218 0.732788 226.364 0.623413C226.583 0.769246 226.802 0.969767 227.02 1.22498C227.276 1.44373 227.403 1.69893 227.403 1.9906ZM227.403 8.38904C227.403 8.89945 227.221 9.19112 226.856 9.26404C226.492 9.33695 226.127 9.40987 225.762 9.48279L224.997 8.82654C225.033 8.35258 225.07 7.93331 225.106 7.56873C225.179 7.20414 225.526 7.02185 226.145 7.02185C226.473 7.02185 226.765 7.16768 227.02 7.45935C227.276 7.75102 227.403 8.06091 227.403 8.38904ZM227.567 15.9359C227.385 16.0088 227.239 16.0635 227.13 16.1C227.02 16.1364 226.929 16.2458 226.856 16.4281C226.565 16.501 226.346 16.5375 226.2 16.5375C225.945 16.5375 225.653 16.4463 225.325 16.264C225.033 16.0817 224.887 15.8448 224.887 15.5531C224.887 15.3708 224.906 15.2067 224.942 15.0609C225.015 14.9151 225.088 14.751 225.161 14.5687C225.343 14.4958 225.507 14.4411 225.653 14.4047C225.799 14.3682 225.963 14.35 226.145 14.35H226.637L227.294 14.7875C227.294 14.8604 227.276 14.9515 227.239 15.0609C227.239 15.1338 227.239 15.2067 227.239 15.2797C227.239 15.389 227.276 15.5166 227.348 15.6625C227.421 15.7719 227.494 15.863 227.567 15.9359ZM227.403 22.7172C227.403 22.9359 227.348 23.1182 227.239 23.264C227.13 23.3734 227.075 23.5739 227.075 23.8656H226.091H225.544C225.471 23.7562 225.398 23.6286 225.325 23.4828C225.289 23.337 225.216 23.2276 225.106 23.1547C225.033 22.9359 224.997 22.7719 224.997 22.6625C224.997 22.3708 225.088 22.1156 225.27 21.8969C225.453 21.6781 225.69 21.5687 225.981 21.5687C226.164 21.5687 226.328 21.6052 226.473 21.6781C226.619 21.7146 226.783 21.7328 226.966 21.7328C227.039 21.9151 227.13 22.0791 227.239 22.225C227.348 22.3708 227.403 22.5349 227.403 22.7172ZM226.966 28.6781C226.966 28.8969 226.947 29.1156 226.911 29.3344C226.911 29.5531 226.911 29.7719 226.911 29.9906C226.656 29.9906 226.455 30.0453 226.309 30.1547C226.2 30.2276 226.054 30.264 225.872 30.264C225.617 30.264 225.398 30.2094 225.216 30.1C225.033 29.9541 224.833 29.8265 224.614 29.7172C224.614 29.2432 224.632 28.9333 224.669 28.7875C224.705 28.6416 224.851 28.3682 225.106 27.9672C225.216 27.9672 225.325 27.9672 225.434 27.9672C225.58 27.9307 225.708 27.9125 225.817 27.9125C225.963 27.9125 226.182 27.9489 226.473 28.0219C226.546 28.1312 226.619 28.2406 226.692 28.35C226.765 28.4594 226.856 28.5687 226.966 28.6781ZM195.575 2.37341C195.283 2.88383 194.828 3.13904 194.208 3.13904C193.989 3.13904 193.807 3.08435 193.661 2.97498C193.515 2.8656 193.351 2.71977 193.169 2.53748C193.169 2.46456 193.151 2.39164 193.114 2.31873C193.114 2.20935 193.114 2.1182 193.114 2.04529C193.114 1.863 193.169 1.6807 193.278 1.49841C193.387 1.31612 193.479 1.13383 193.552 0.951538C193.697 0.951538 193.825 0.933309 193.934 0.896851C194.08 0.860392 194.226 0.842163 194.372 0.842163C194.554 0.842163 194.718 0.896851 194.864 1.00623C195.046 1.07914 195.229 1.15206 195.411 1.22498C195.484 1.44373 195.52 1.64425 195.52 1.82654C195.52 2.00883 195.539 2.19112 195.575 2.37341ZM225.161 35.35V35.6781C224.979 35.8604 224.869 35.988 224.833 36.0609C224.796 36.0974 224.742 36.2614 224.669 36.5531H224.012C223.648 36.5531 223.429 36.462 223.356 36.2797C223.283 36.0974 223.156 36.0062 222.973 36.0062C222.864 35.8239 222.828 35.6416 222.864 35.4594C222.901 35.2771 222.955 35.0765 223.028 34.8578C223.101 34.7849 223.247 34.6573 223.466 34.475C223.684 34.2562 223.867 34.1469 224.012 34.1469C224.158 34.1469 224.304 34.1833 224.45 34.2562C224.559 34.3656 224.705 34.5297 224.887 34.7484C225.07 34.9672 225.161 35.1677 225.161 35.35ZM195.684 8.17029C195.684 8.49841 195.575 8.79008 195.356 9.04529C195.137 9.26404 194.864 9.37341 194.536 9.37341C194.208 9.37341 193.916 9.28227 193.661 9.09998C193.442 8.91768 193.187 8.77185 192.895 8.66248C193.041 8.48018 193.114 8.37081 193.114 8.33435C193.114 8.29789 193.114 8.18852 193.114 8.00623V7.78748C193.296 7.60518 193.479 7.44112 193.661 7.29529C193.843 7.113 194.08 7.02185 194.372 7.02185C194.481 7.02185 194.591 7.04008 194.7 7.07654C194.809 7.07654 194.919 7.07654 195.028 7.07654C195.137 7.25883 195.247 7.44112 195.356 7.62341C195.502 7.8057 195.611 7.988 195.684 8.17029ZM221.005 39.9437C221.005 40.1625 220.859 40.4177 220.567 40.7094C220.312 40.9646 220.057 41.0922 219.802 41.0922C219.656 41.0922 219.473 41.0375 219.255 40.9281C219.036 40.8187 218.854 40.7276 218.708 40.6547C218.708 40.2901 218.58 39.962 218.325 39.6703C218.617 39.488 218.817 39.2875 218.927 39.0687C219.036 38.8135 219.291 38.6859 219.692 38.6859C220.02 38.6859 220.312 38.8135 220.567 39.0687C220.859 39.3239 221.005 39.6156 221.005 39.9437ZM195.684 14.8969C195.684 15.0427 195.648 15.225 195.575 15.4437C195.429 15.5531 195.283 15.6625 195.137 15.7719C195.028 15.8812 194.882 15.9724 194.7 16.0453C194.518 16.0453 194.335 16.0453 194.153 16.0453C194.007 16.0453 193.843 16.0088 193.661 15.9359L193.059 15.4984C193.096 15.3161 193.096 15.1156 193.059 14.8969C193.059 14.6781 193.078 14.4594 193.114 14.2406L193.88 13.6937C194.171 13.6937 194.372 13.712 194.481 13.7484C194.627 13.7484 194.736 13.7849 194.809 13.8578C194.919 13.8942 195.01 13.9489 195.083 14.0219C195.192 14.0948 195.356 14.1859 195.575 14.2953C195.611 14.4047 195.63 14.514 195.63 14.6234C195.666 14.6963 195.684 14.7875 195.684 14.8969ZM195.684 22.0609C195.393 22.2797 195.174 22.5166 195.028 22.7719C194.846 22.7719 194.682 22.7901 194.536 22.8265C194.427 22.8265 194.299 22.8265 194.153 22.8265H193.716C193.46 22.4984 193.296 22.2797 193.223 22.1703C193.187 22.0245 193.169 21.9333 193.169 21.8969C193.169 21.8239 193.169 21.751 193.169 21.6781C193.169 21.5687 193.114 21.3864 193.005 21.1312C193.187 20.9489 193.351 20.8031 193.497 20.6937C193.679 20.5844 193.843 20.4385 193.989 20.2562C194.171 20.4021 194.372 20.4932 194.591 20.5297C194.846 20.5661 195.083 20.6573 195.302 20.8031C195.411 20.9854 195.484 21.1859 195.52 21.4047C195.557 21.6234 195.611 21.8422 195.684 22.0609ZM214.552 42.35C214.552 42.6416 214.442 42.8604 214.223 43.0062C214.041 43.1885 213.841 43.3344 213.622 43.4437C213.512 43.4437 213.385 43.4073 213.239 43.3344C213.13 43.2979 213.039 43.2432 212.966 43.1703C212.856 43.1703 212.765 43.1885 212.692 43.225C212.619 43.0791 212.51 42.9515 212.364 42.8422C212.255 42.7692 212.164 42.6599 212.091 42.514C212.127 42.2224 212.164 42.0036 212.2 41.8578C212.273 41.712 212.382 41.5114 212.528 41.2562C212.893 41.1469 213.294 41.0922 213.731 41.0922C213.877 41.2015 214.023 41.3109 214.169 41.4203C214.351 41.4932 214.479 41.6208 214.552 41.8031C214.515 41.9489 214.497 42.0583 214.497 42.1312C214.533 42.2041 214.552 42.2771 214.552 42.35ZM196.012 28.0765C196.012 28.3682 195.94 28.5687 195.794 28.6781C195.648 28.7875 195.484 28.9333 195.302 29.1156C195.119 29.1156 194.919 29.1338 194.7 29.1703C194.518 29.1703 194.335 29.1703 194.153 29.1703L193.497 28.35V27.5297C193.789 27.238 194.044 27.0557 194.262 26.9828C194.518 26.8734 194.828 26.8005 195.192 26.764C195.302 26.9099 195.411 27.0375 195.52 27.1469C195.666 27.2562 195.812 27.3838 195.958 27.5297C195.958 27.6026 195.958 27.6937 195.958 27.8031C195.994 27.876 196.012 27.9672 196.012 28.0765ZM207.661 41.9672C207.552 42.2953 207.387 42.6052 207.169 42.8969C206.95 43.1885 206.64 43.3344 206.239 43.3344C206.02 43.3344 205.765 43.2614 205.473 43.1156C205.364 42.9333 205.255 42.7692 205.145 42.6234C205.072 42.4776 205.036 42.3135 205.036 42.1312C205.036 41.876 205.109 41.6573 205.255 41.475C205.401 41.2927 205.565 41.1104 205.747 40.9281L206.895 41.0922C207.005 41.3474 207.114 41.5114 207.223 41.5844C207.333 41.6573 207.479 41.7849 207.661 41.9672ZM197.216 34.475L196.723 35.4594C196.578 35.5323 196.432 35.587 196.286 35.6234C196.177 35.6599 196.031 35.6781 195.848 35.6781C195.338 35.6781 195.046 35.5323 194.973 35.2406C194.901 34.9125 194.828 34.5479 194.755 34.1469C195.156 33.6729 195.648 33.363 196.231 33.2172C196.414 33.4724 196.614 33.6729 196.833 33.8187C197.052 33.9281 197.179 34.1469 197.216 34.475ZM201.262 39.3422C201.153 39.8161 201.044 40.1078 200.934 40.2172C200.861 40.2901 200.679 40.5088 200.387 40.8734C200.205 40.7276 200.041 40.6547 199.895 40.6547C199.749 40.6182 199.567 40.5817 199.348 40.5453C199.239 40.363 199.111 40.2354 198.966 40.1625C198.82 40.0896 198.674 39.9984 198.528 39.889C198.601 39.6703 198.656 39.5062 198.692 39.3969C198.729 39.251 198.747 39.0687 198.747 38.85C199.075 38.5219 199.44 38.3578 199.841 38.3578H200.223C200.552 38.5765 200.752 38.7041 200.825 38.7406C200.898 38.7771 201.044 38.9776 201.262 39.3422ZM238.327 2.04529C238.327 2.33695 238.218 2.59216 237.999 2.81091C237.781 2.9932 237.544 3.08435 237.288 3.08435C237.106 3.08435 236.924 3.04789 236.742 2.97498C236.596 2.8656 236.432 2.75623 236.249 2.64685C236.176 2.50102 236.122 2.37341 236.085 2.26404C236.049 2.15466 236.031 2.02706 236.031 1.88123C236.031 1.48018 236.231 1.18852 236.632 1.00623C237.07 0.823934 237.434 0.69633 237.726 0.623413C237.799 0.732788 237.872 0.878621 237.945 1.06091C238.054 1.20675 238.145 1.29789 238.218 1.33435C238.255 1.48018 238.273 1.60779 238.273 1.71716C238.309 1.82654 238.327 1.93591 238.327 2.04529ZM238.218 7.95154C237.926 8.17029 237.708 8.37081 237.562 8.5531C237.452 8.69893 237.197 8.77185 236.796 8.77185C236.687 8.77185 236.523 8.66248 236.304 8.44373C236.085 8.22498 235.976 8.04268 235.976 7.89685C235.939 7.45935 235.994 7.09477 236.14 6.8031C236.286 6.47498 236.559 6.31091 236.96 6.31091C237.288 6.31091 237.507 6.40206 237.617 6.58435C237.762 6.73018 237.926 6.89425 238.109 7.07654V7.34998C238.109 7.42289 238.127 7.53227 238.163 7.6781C238.2 7.78748 238.218 7.87862 238.218 7.95154ZM238.327 13.0922C238.255 13.4932 238.163 13.8031 238.054 14.0219C237.981 14.2041 237.817 14.3864 237.562 14.5687C237.343 14.5687 237.124 14.5687 236.906 14.5687C236.687 14.5323 236.468 14.4958 236.249 14.4594C236.176 14.1677 236.104 13.9125 236.031 13.6937C235.994 13.4385 235.939 13.1651 235.867 12.8734C235.903 12.8734 235.958 12.8734 236.031 12.8734C236.104 12.8734 236.158 12.8552 236.195 12.8187C236.304 12.6364 236.395 12.5088 236.468 12.4359C236.577 12.3265 236.76 12.2719 237.015 12.2719C237.38 12.2719 237.635 12.3083 237.781 12.3812C237.963 12.4541 238.145 12.6911 238.327 13.0922ZM263.265 41.475C263.192 41.6937 263.028 41.9489 262.773 42.2406C262.554 42.5687 262.317 42.7328 262.062 42.7328C261.916 42.7328 261.77 42.6963 261.624 42.6234C261.515 42.587 261.387 42.5687 261.242 42.5687C261.132 42.3864 261.023 42.1859 260.913 41.9672C260.804 41.7849 260.749 41.6026 260.749 41.4203C260.749 41.238 260.822 41.0557 260.968 40.8734C261.114 40.6911 261.242 40.5453 261.351 40.4359C261.424 40.4359 261.497 40.4359 261.57 40.4359C261.679 40.3995 261.788 40.3812 261.898 40.3812C262.08 40.3812 262.226 40.4177 262.335 40.4906C262.481 40.5635 262.645 40.6 262.827 40.6C262.864 40.8916 263.01 41.1833 263.265 41.475ZM238.109 18.6703C238.109 19.0713 238.072 19.3448 237.999 19.4906C237.963 19.6 237.835 19.837 237.617 20.2015C237.179 20.2015 236.705 20.0739 236.195 19.8187C236.122 19.6729 236.049 19.5453 235.976 19.4359C235.939 19.2901 235.921 19.1442 235.921 18.9984V18.6156C236.104 18.4333 236.286 18.2875 236.468 18.1781C236.687 18.0323 236.924 17.9594 237.179 17.9594C237.325 17.9594 237.507 17.9958 237.726 18.0687C237.762 18.1781 237.799 18.3057 237.835 18.4515C237.872 18.5609 237.963 18.6338 238.109 18.6703ZM258.781 42.1312C258.489 42.2041 258.307 42.2588 258.234 42.2953C258.197 42.3317 258.07 42.4229 257.851 42.5687C257.195 42.4958 256.721 42.2224 256.429 41.7484C256.466 41.4567 256.557 41.1104 256.702 40.7094C257.031 40.3812 257.377 40.2172 257.742 40.2172C257.997 40.2172 258.179 40.3265 258.288 40.5453C258.434 40.7276 258.562 40.9099 258.671 41.0922V41.6937C258.671 41.7666 258.708 41.9125 258.781 42.1312ZM238.382 24.7953C238.382 24.9776 238.327 25.1416 238.218 25.2875C238.145 25.4333 238.109 25.5974 238.109 25.7797C237.89 25.8526 237.671 25.9073 237.452 25.9437C237.234 25.9802 236.997 26.0166 236.742 26.0531C236.559 25.8708 236.395 25.6703 236.249 25.4515C236.104 25.1963 236.031 24.9229 236.031 24.6312C236.031 24.5583 236.031 24.4854 236.031 24.4125C236.067 24.3031 236.085 24.212 236.085 24.139C236.268 23.9932 236.45 23.8838 236.632 23.8109C236.814 23.738 236.942 23.5922 237.015 23.3734L238.054 23.9203C238.273 24.212 238.382 24.5036 238.382 24.7953ZM254.187 41.4203C254.187 41.5661 254.169 41.6937 254.132 41.8031C254.096 41.9125 254.077 42.0401 254.077 42.1859C253.932 42.2588 253.786 42.3317 253.64 42.4047C253.531 42.514 253.385 42.5687 253.202 42.5687C252.911 42.5687 252.637 42.4958 252.382 42.35C252.163 42.2041 252.054 41.9672 252.054 41.639C252.054 41.3838 252.091 41.1651 252.163 40.9828C252.273 40.8005 252.364 40.5635 252.437 40.2719C252.656 40.3448 252.82 40.3812 252.929 40.3812C253.002 40.3812 253.093 40.363 253.202 40.3265C253.348 40.2536 253.458 40.1989 253.531 40.1625C253.64 40.3448 253.768 40.5453 253.913 40.764C254.096 40.9828 254.187 41.2015 254.187 41.4203ZM249.32 41.2562C249.32 41.4021 249.301 41.5297 249.265 41.639C249.229 41.7484 249.192 41.876 249.156 42.0219C249.046 42.1312 248.919 42.2041 248.773 42.2406C248.627 42.3135 248.554 42.4411 248.554 42.6234L247.406 42.35C247.296 42.1677 247.187 42.0036 247.077 41.8578C247.005 41.6755 246.986 41.4932 247.023 41.3109V40.9281C247.205 40.7458 247.406 40.5817 247.624 40.4359C247.88 40.2901 248.153 40.2172 248.445 40.2172C248.591 40.2172 248.809 40.2536 249.101 40.3265C249.174 40.5088 249.229 40.6729 249.265 40.8187C249.301 40.9281 249.32 41.0739 249.32 41.2562ZM238.382 29.8812C238.382 30.1 238.364 30.3187 238.327 30.5375C238.327 30.7562 238.309 30.975 238.273 31.1937C238.127 31.3396 237.963 31.4854 237.781 31.6312C237.635 31.7406 237.452 31.7953 237.234 31.7953C236.833 31.7953 236.559 31.6677 236.413 31.4125C236.304 31.1573 236.14 30.9932 235.921 30.9203V30.5922C235.921 30.4099 235.958 30.2458 236.031 30.1C236.14 29.9541 236.213 29.7901 236.249 29.6078C236.432 29.5713 236.614 29.5531 236.796 29.5531C236.979 29.5166 237.143 29.4255 237.288 29.2797C237.471 29.3526 237.653 29.4802 237.835 29.6625C238.018 29.8083 238.2 29.8812 238.382 29.8812ZM244.07 41.4203C244.07 41.4932 244.051 41.5661 244.015 41.639C244.015 41.712 244.015 41.7849 244.015 41.8578C243.833 42.0036 243.669 42.1495 243.523 42.2953C243.377 42.4411 243.176 42.514 242.921 42.514C242.63 42.514 242.374 42.3682 242.156 42.0765C241.937 41.8213 241.827 41.5479 241.827 41.2562C241.827 40.8916 241.973 40.6 242.265 40.3812C242.374 40.3812 242.484 40.363 242.593 40.3265C242.739 40.2901 242.885 40.2719 243.031 40.2719H243.523C243.632 40.4541 243.742 40.6364 243.851 40.8187C243.997 40.9646 244.07 41.1651 244.07 41.4203ZM238.382 36.7172C238.2 36.8995 238.018 37.1 237.835 37.3187C237.653 37.501 237.416 37.5922 237.124 37.5922C236.906 37.5922 236.687 37.5192 236.468 37.3734C236.249 37.2276 236.104 37.0453 236.031 36.8265C236.031 36.6442 236.031 36.4255 236.031 36.1703C236.067 35.9151 236.195 35.751 236.413 35.6781C236.596 35.5323 236.76 35.4229 236.906 35.35C237.051 35.2406 237.252 35.1859 237.507 35.1859C237.835 35.3682 238.036 35.6052 238.109 35.8969C238.182 36.1521 238.273 36.4255 238.382 36.7172ZM238.109 42.4594C237.926 42.5323 237.744 42.6234 237.562 42.7328C237.38 42.8786 237.179 42.9515 236.96 42.9515C236.669 42.9515 236.413 42.8239 236.195 42.5687C236.012 42.3135 235.921 42.0401 235.921 41.7484C235.921 41.4932 236.012 41.2745 236.195 41.0922C236.377 40.9099 236.541 40.7276 236.687 40.5453C236.979 40.6182 237.216 40.6911 237.398 40.764C237.617 40.8005 237.835 40.9099 238.054 41.0922C238.054 41.3109 238.054 41.5479 238.054 41.8031C238.091 42.0219 238.109 42.2406 238.109 42.4594ZM295.791 2.04529C295.791 2.33695 295.645 2.61039 295.353 2.8656C295.062 3.12081 294.77 3.24841 294.478 3.24841H294.15C294.004 3.06612 293.877 2.90206 293.767 2.75623C293.658 2.57393 293.549 2.39164 293.439 2.20935C293.512 1.9906 293.549 1.863 293.549 1.82654C293.585 1.75362 293.567 1.60779 293.494 1.38904C294.041 1.13383 294.533 0.987996 294.971 0.951538C295.262 1.2432 295.499 1.4255 295.682 1.49841C295.754 1.79008 295.791 1.97237 295.791 2.04529ZM291.033 2.09998V2.4281C290.778 2.53748 290.632 2.71977 290.596 2.97498C290.45 3.01143 290.304 3.04789 290.158 3.08435C290.049 3.12081 289.903 3.13904 289.721 3.13904C289.611 3.13904 289.502 3.12081 289.392 3.08435C289.283 3.04789 289.156 3.02966 289.01 3.02966C289.01 2.84737 288.973 2.70154 288.9 2.59216C288.864 2.44633 288.846 2.3005 288.846 2.15466C288.846 1.89945 288.955 1.6807 289.174 1.49841C289.429 1.27966 289.648 1.1156 289.83 1.00623C290.012 1.04268 290.14 1.09737 290.213 1.17029C290.286 1.2432 290.413 1.2432 290.596 1.17029C290.669 1.31612 290.76 1.46195 290.869 1.60779C290.978 1.75362 291.033 1.91768 291.033 2.09998ZM286.494 2.15466L285.728 3.24841C285.51 3.21195 285.327 3.19373 285.182 3.19373C285.036 3.19373 284.908 3.19373 284.799 3.19373C284.689 3.15727 284.58 3.10258 284.471 3.02966C284.361 2.92029 284.215 2.738 284.033 2.48279V2.04529C284.033 1.89945 284.051 1.79008 284.088 1.71716C284.124 1.64425 284.179 1.5531 284.252 1.44373C284.398 1.29789 284.544 1.18852 284.689 1.1156C284.872 1.04268 285.054 0.969767 285.236 0.896851C285.419 1.00623 285.564 1.1156 285.674 1.22498C285.783 1.33435 285.929 1.40727 286.111 1.44373L286.494 2.15466ZM281.135 1.66248C281.135 2.06352 281.025 2.40987 280.807 2.70154C280.624 2.9932 280.314 3.13904 279.877 3.13904L279.385 3.13904C279.129 2.77445 279.002 2.4281 279.002 2.09998V1.66248C279.221 1.48018 279.348 1.33435 279.385 1.22498C279.458 1.07914 279.658 1.00623 279.986 1.00623C280.241 1.00623 280.442 1.07914 280.588 1.22498C280.77 1.33435 280.952 1.48018 281.135 1.66248ZM276.267 2.04529C276.267 2.40987 276.213 2.70154 276.103 2.92029C275.994 3.13904 275.739 3.24841 275.338 3.24841C275.156 3.24841 274.991 3.21195 274.846 3.13904C274.7 3.02966 274.536 2.92029 274.353 2.81091C274.317 2.738 274.281 2.66508 274.244 2.59216C274.208 2.48279 274.189 2.37341 274.189 2.26404C274.189 1.93591 274.317 1.6807 274.572 1.49841C274.864 1.31612 275.156 1.22498 275.447 1.22498C275.52 1.22498 275.593 1.2432 275.666 1.27966C275.775 1.27966 275.885 1.27966 275.994 1.27966C276.031 1.4255 276.085 1.5531 276.158 1.66248C276.231 1.77185 276.267 1.89945 276.267 2.04529ZM290.65 20.9672C290.65 21.0765 290.614 21.2041 290.541 21.35C290.249 21.6416 290.012 21.8239 289.83 21.8969C289.684 21.9333 289.411 21.9698 289.01 22.0062C288.827 21.8604 288.718 21.7146 288.682 21.5687C288.645 21.3864 288.536 21.2224 288.353 21.0765L288.846 20.0922H289.174C289.247 20.0557 289.338 20.0192 289.447 19.9828C289.557 19.9099 289.666 19.8734 289.775 19.8734C289.848 19.8734 289.994 19.9099 290.213 19.9828C290.286 20.1651 290.377 20.3291 290.486 20.475C290.596 20.6208 290.65 20.7849 290.65 20.9672ZM271.783 2.31873C271.71 2.50102 271.637 2.66508 271.564 2.81091C271.491 2.92029 271.455 3.08435 271.455 3.3031H271.127C271.054 3.37602 270.999 3.46716 270.963 3.57654C270.963 3.64945 270.926 3.72237 270.853 3.79529C270.562 3.72237 270.215 3.613 269.814 3.46716C269.45 3.28487 269.267 2.9932 269.267 2.59216C269.267 2.26404 269.377 2.00883 269.596 1.82654C269.814 1.60779 270.07 1.49841 270.361 1.49841C270.507 1.49841 270.689 1.53487 270.908 1.60779C270.981 1.79008 271.109 1.91768 271.291 1.9906C271.473 2.06352 271.637 2.17289 271.783 2.31873ZM285.892 21.0219C285.892 21.2406 285.82 21.4411 285.674 21.6234C285.564 21.7692 285.419 21.8969 285.236 22.0062L285.017 21.8969C284.945 21.8969 284.89 21.9151 284.853 21.9515C284.853 21.9515 284.817 21.9515 284.744 21.9515C284.452 21.9515 284.215 21.8422 284.033 21.6234C283.887 21.4047 283.814 21.1495 283.814 20.8578C283.814 20.4932 283.96 20.2015 284.252 19.9828C284.434 19.9828 284.708 19.9463 285.072 19.8734C285.291 19.9828 285.473 20.1286 285.619 20.3109C285.801 20.4932 285.892 20.7302 285.892 21.0219ZM270.853 6.52966C270.853 6.71195 270.835 6.87602 270.799 7.02185C270.762 7.16768 270.726 7.31352 270.689 7.45935H270.197C270.088 7.45935 269.942 7.5505 269.76 7.73279C269.176 7.47758 268.775 7.05831 268.557 6.47498C268.739 6.32914 268.921 6.18331 269.103 6.03748C269.322 5.89164 269.504 5.72758 269.65 5.54529C269.906 5.58175 270.161 5.67289 270.416 5.81873C270.708 5.96456 270.853 6.20154 270.853 6.52966ZM271.51 11.0687C271.327 11.3239 271.182 11.6338 271.072 11.9984C270.89 11.962 270.708 11.962 270.525 11.9984C270.379 12.0349 270.215 12.0531 270.033 12.0531C269.778 12.0531 269.577 11.9984 269.432 11.889C269.359 11.7067 269.267 11.5427 269.158 11.3969C269.049 11.251 268.994 11.087 268.994 10.9047C268.994 10.8317 269.031 10.6859 269.103 10.4672C269.249 10.3213 269.413 10.212 269.596 10.139C269.778 10.0661 269.942 9.95675 270.088 9.81091C270.343 9.84737 270.544 9.92029 270.689 10.0297C270.835 10.1026 270.999 10.1937 271.182 10.3031C271.254 10.4489 271.309 10.5948 271.346 10.7406C271.382 10.85 271.437 10.9594 271.51 11.0687ZM280.478 20.7484C280.369 21.0765 280.223 21.3864 280.041 21.6781C279.895 21.9698 279.603 22.1156 279.166 22.1156C279.02 22.0427 278.856 21.988 278.674 21.9515C278.528 21.9151 278.4 21.8422 278.291 21.7328C278.182 21.514 278.127 21.2771 278.127 21.0219C278.127 20.9125 278.145 20.8213 278.182 20.7484C278.218 20.6755 278.254 20.5844 278.291 20.475L279.002 19.9281L279.549 19.8734C279.695 20.0192 279.84 20.1651 279.986 20.3109C280.169 20.4203 280.333 20.5661 280.478 20.7484ZM271.728 15.9359C271.656 16.2276 271.546 16.4828 271.4 16.7015C271.254 16.9203 271.2 17.1937 271.236 17.5219C271.054 17.5219 270.89 17.5219 270.744 17.5219C270.598 17.4854 270.452 17.4672 270.307 17.4672C270.27 17.4672 270.215 17.4854 270.142 17.5219C270.07 17.5219 270.033 17.5401 270.033 17.5765C269.851 17.4307 269.723 17.3396 269.65 17.3031C269.577 17.2302 269.432 17.1573 269.213 17.0844C269.213 16.9385 269.213 16.8291 269.213 16.7562C269.249 16.6469 269.286 16.5192 269.322 16.3734C269.322 16.337 269.286 16.2458 269.213 16.1C269.359 15.9177 269.523 15.7536 269.705 15.6078C269.924 15.4255 270.179 15.3344 270.471 15.3344C270.726 15.3344 270.945 15.462 271.127 15.7172L271.728 15.9359ZM275.228 21.2953C274.9 21.8057 274.463 22.0609 273.916 22.0609C273.77 22.0609 273.551 22.0245 273.26 21.9515C273.223 21.8057 273.169 21.6781 273.096 21.5687C273.023 21.4594 272.986 21.3135 272.986 21.1312V20.8578C273.059 20.6755 273.132 20.5297 273.205 20.4203C273.314 20.2745 273.369 20.1104 273.369 19.9281C273.661 19.9281 273.934 19.9828 274.189 20.0922C274.445 20.1651 274.718 20.238 275.01 20.3109C275.083 20.4932 275.119 20.6573 275.119 20.8031C275.119 20.9489 275.156 21.113 275.228 21.2953ZM295.244 41.8578C294.989 42.113 294.734 42.2588 294.478 42.2953C294.223 42.3682 293.95 42.4594 293.658 42.5687C293.148 42.2406 292.892 41.8213 292.892 41.3109C292.892 41.0922 293.02 40.8552 293.275 40.6C293.531 40.3083 293.786 40.1625 294.041 40.1625C294.333 40.1625 294.515 40.2354 294.588 40.3812C294.661 40.4906 294.788 40.5635 294.971 40.6C295.116 40.8187 295.171 40.9828 295.135 41.0922C295.135 41.1651 295.135 41.3109 295.135 41.5297C295.135 41.6755 295.171 41.7849 295.244 41.8578ZM271.455 20.9125C271.346 21.1312 271.218 21.3682 271.072 21.6234C270.963 21.8422 270.799 22.0245 270.58 22.1703C270.398 22.1703 270.215 22.1885 270.033 22.225C269.851 22.225 269.669 22.225 269.486 22.225C269.486 21.9698 269.413 21.8057 269.267 21.7328C269.122 21.6599 269.049 21.4594 269.049 21.1312C269.049 20.9489 269.103 20.7849 269.213 20.639C269.322 20.4567 269.45 20.2927 269.596 20.1469H269.814C269.887 20.1469 269.942 20.1469 269.978 20.1469C270.051 20.1104 270.124 20.0922 270.197 20.0922H270.525L271.455 20.9125ZM290.65 41.639C290.65 41.7849 290.614 41.9125 290.541 42.0219C290.468 42.1312 290.395 42.2588 290.322 42.4047C289.958 42.587 289.52 42.6781 289.01 42.6781C288.864 42.5323 288.736 42.3864 288.627 42.2406C288.554 42.0948 288.463 41.9489 288.353 41.8031C288.353 41.6208 288.372 41.4567 288.408 41.3109C288.445 41.1286 288.463 40.9463 288.463 40.764C288.682 40.764 288.809 40.7094 288.846 40.6C288.882 40.4906 288.919 40.3448 288.955 40.1625C289.32 40.3083 289.575 40.4177 289.721 40.4906C289.903 40.5271 290.103 40.7094 290.322 41.0375C290.395 41.1469 290.468 41.238 290.541 41.3109C290.614 41.3838 290.65 41.4932 290.65 41.639ZM271.127 25.5609C271.127 25.8526 271.09 26.126 271.017 26.3812C270.945 26.6 270.908 26.837 270.908 27.0922C270.726 27.1651 270.544 27.238 270.361 27.3109C270.179 27.3838 269.997 27.4203 269.814 27.4203H269.267C269.195 27.1286 269.103 26.9463 268.994 26.8734C268.921 26.764 268.885 26.5088 268.885 26.1078C268.885 25.9255 268.903 25.7979 268.939 25.725L270.142 25.014C270.325 25.1599 270.471 25.2692 270.58 25.3422C270.726 25.4151 270.908 25.488 271.127 25.5609ZM286.002 41.3109C285.892 41.5297 285.82 41.7302 285.783 41.9125C285.783 42.0948 285.71 42.2771 285.564 42.4594C285.273 42.5687 285.017 42.6234 284.799 42.6234C284.507 42.6234 284.252 42.514 284.033 42.2953C283.851 42.0765 283.76 41.8213 283.76 41.5297C283.76 41.4203 283.796 41.2927 283.869 41.1469C283.942 41.0739 284.033 41.001 284.142 40.9281C284.252 40.8187 284.343 40.7094 284.416 40.6L284.58 40.4359C285.127 40.4359 285.419 40.4906 285.455 40.6C285.528 40.7094 285.71 40.9463 286.002 41.3109ZM271.346 31.0844C271.273 31.3396 271.2 31.5036 271.127 31.5765C271.054 31.6495 271.036 31.8135 271.072 32.0687C270.89 32.1416 270.708 32.2146 270.525 32.2875C270.343 32.3604 270.161 32.3969 269.978 32.3969C269.869 32.3969 269.76 32.3969 269.65 32.3969C269.541 32.3604 269.432 32.3422 269.322 32.3422C269.249 32.1599 269.158 31.9958 269.049 31.85C268.939 31.7041 268.885 31.5219 268.885 31.3031V30.975C269.14 30.4646 269.468 30.2094 269.869 30.2094C270.051 30.2094 270.215 30.2276 270.361 30.264C270.544 30.3005 270.726 30.3187 270.908 30.3187C270.981 30.4646 271.036 30.6104 271.072 30.7562C271.145 30.8656 271.236 30.975 271.346 31.0844ZM280.971 41.5844C280.971 41.876 280.879 42.1495 280.697 42.4047C280.515 42.6599 280.26 42.7875 279.932 42.7875C279.64 42.7875 279.366 42.6781 279.111 42.4594C278.892 42.2771 278.783 42.0219 278.783 41.6937C278.783 41.4021 278.856 41.2015 279.002 41.0922C279.148 40.9463 279.312 40.7823 279.494 40.6C279.786 40.6364 280.041 40.6911 280.26 40.764C280.515 40.837 280.734 40.9828 280.916 41.2015C280.952 41.2745 280.971 41.4021 280.971 41.5844ZM271.236 35.7875C271.2 35.9698 271.145 36.1521 271.072 36.3344C271.036 36.4802 270.945 36.6078 270.799 36.7172C270.434 36.863 270.142 36.9359 269.924 36.9359C269.559 36.9359 269.304 36.8265 269.158 36.6078C269.049 36.3526 268.976 36.0791 268.939 35.7875C269.122 35.4229 269.432 35.0219 269.869 34.5844C270.051 34.7666 270.215 34.8578 270.361 34.8578C270.507 34.8213 270.671 34.8942 270.853 35.0765C270.853 35.1859 270.89 35.3135 270.963 35.4594C271.072 35.4958 271.163 35.6052 271.236 35.7875ZM276.158 42.1859C275.866 42.2588 275.648 42.35 275.502 42.4594C275.392 42.5687 275.192 42.6234 274.9 42.6234C274.645 42.6234 274.445 42.5505 274.299 42.4047C274.226 42.2588 274.135 42.1312 274.025 42.0219C273.952 41.9125 273.916 41.7666 273.916 41.5844C273.916 41.4385 273.934 41.3109 273.971 41.2015C274.044 41.0922 274.098 40.9828 274.135 40.8734C274.317 40.764 274.481 40.6547 274.627 40.5453C274.809 40.3995 275.028 40.3265 275.283 40.3265C275.502 40.3265 275.666 40.3448 275.775 40.3812C275.812 40.6364 275.885 40.8005 275.994 40.8734C276.103 40.9099 276.158 41.0192 276.158 41.2015C276.158 41.3109 276.122 41.4203 276.049 41.5297C276.012 41.6026 275.994 41.6755 275.994 41.7484C275.994 41.8213 276.012 41.8942 276.049 41.9672C276.085 42.0401 276.122 42.113 276.158 42.1859ZM270.799 40.9281C270.762 41.5844 270.471 42.0948 269.924 42.4594C269.705 42.3135 269.45 42.2771 269.158 42.35C269.049 42.2406 268.939 42.113 268.83 41.9672C268.757 41.8213 268.648 41.712 268.502 41.639V41.2562C268.502 41.1104 268.52 40.9828 268.557 40.8734C268.593 40.764 268.611 40.6547 268.611 40.5453C268.794 40.4359 268.976 40.3448 269.158 40.2719C269.377 40.1989 269.577 40.0896 269.76 39.9437C270.088 40.0896 270.27 40.2536 270.307 40.4359C270.379 40.5817 270.544 40.7458 270.799 40.9281Z" fill="#00FF85"/>
</svg>
