<svg width="28" height="28" viewBox="0 0 28 28" fill="none" xmlns="http://www.w3.org/2000/svg">
<path d="M13.8051 0.538147C6.32489 0.538147 0.260986 6.60205 0.260986 14.0823C0.260986 21.5625 6.32489 27.6264 13.8051 27.6264C21.2853 27.6264 27.3492 21.5625 27.3492 14.0823C27.3492 6.60205 21.2853 0.538147 13.8051 0.538147ZM19.6997 20.1944C19.5275 20.489 19.2175 20.6534 18.8992 20.6534C18.7405 20.6534 18.5797 20.6126 18.4327 20.5267C15.9988 19.1043 13.1871 18.8757 11.2564 18.9344C9.11782 18.9995 7.54948 19.4217 7.53389 19.426C7.0409 19.5606 6.53145 19.2705 6.39621 18.7776C6.26104 18.2848 6.55013 17.7756 7.04287 17.6399C7.11356 17.6204 8.80124 17.162 11.1481 17.0846C12.5305 17.039 13.8613 17.1353 15.1031 17.3709C16.6758 17.6693 18.1105 18.193 19.3673 18.9275C19.809 19.1855 19.9578 19.7528 19.6997 20.1944ZM21.4216 16.6182C21.2176 16.9672 20.8505 17.1618 20.4734 17.1619C20.2854 17.1619 20.0949 17.1136 19.9208 17.0118C17.0379 15.3269 13.7072 15.0563 11.4204 15.1258C8.88706 15.2029 7.02931 15.7029 7.01088 15.708C6.42706 15.8673 5.82347 15.5239 5.66328 14.94C5.50316 14.3562 5.84564 13.7532 6.42928 13.5923C6.51301 13.5693 8.51208 13.0262 11.292 12.9346C12.9296 12.8806 14.5059 12.9947 15.9768 13.2737C17.8398 13.6272 19.5392 14.2475 21.0279 15.1175C21.5511 15.4232 21.7273 16.0951 21.4216 16.6182ZM22.4801 13.3665C22.2495 13.3665 22.0159 13.3072 21.8023 13.1824C14.9483 9.17683 6.05733 11.5582 5.96834 11.5827C5.25175 11.7802 4.51097 11.3593 4.3136 10.6428C4.11616 9.92629 4.537 9.18544 5.25353 8.98807C5.3562 8.95976 7.80829 8.29372 11.2182 8.18129C13.2269 8.11516 15.1604 8.25502 16.9645 8.59725C19.2497 9.03076 21.3343 9.79163 23.1603 10.8588C23.802 11.2338 24.0182 12.0579 23.6432 12.6996C23.393 13.1278 22.9427 13.3665 22.4801 13.3665Z" fill="white"/>
</svg>
