<svg width="30" height="26" viewBox="0 0 30 26" fill="none" xmlns="http://www.w3.org/2000/svg">
<path d="M0.284454 22.0394C3.41052 22.2154 6.14413 21.4846 8.81008 19.5494C6.11706 19.0893 4.24955 17.8578 3.2346 15.3137C4.0195 15.2054 4.70967 15.4084 5.52163 15.0836C2.86922 13.9198 1.15055 12.1741 1.08289 9.15628C1.92192 9.22394 2.55796 9.77879 3.55939 9.69759C1.12349 7.31583 0.379183 4.71754 1.90838 1.56441C4.45254 4.48749 7.42975 6.4768 11.0701 7.41056C11.273 7.46469 11.4625 7.51882 11.6655 7.55942C12.5992 7.77594 13.7089 8.23605 14.2773 8.16839C15.2517 8.0466 14.2773 6.92338 14.5209 5.46184C15.2923 0.914842 20.2994 -1.15567 24.0074 1.51028C25.09 2.29518 25.9425 2.28165 27.0116 1.808C27.5665 1.56441 28.1348 1.32082 28.7979 1.03664C28.6491 2.33578 27.6477 3.05301 26.8492 4.01384C27.7559 4.21683 28.4867 3.95971 29.3257 3.68905C29.0415 4.62281 28.3378 5.15059 27.7018 5.66483C27.0387 6.19261 26.7816 6.74745 26.7545 7.61355C26.3485 20.7268 11.449 30.8628 1.25882 22.7973C0.270931 22.0124 1.23175 22.7973 0.284454 22.0394Z" fill="white"/>
</svg>
