<svg width="81" height="78" viewBox="0 0 81 78" fill="none" xmlns="http://www.w3.org/2000/svg">
<g clip-path="url(#clip0_105_11826)">
<path fill-rule="evenodd" clip-rule="evenodd" d="M73.5135 22.4595V0.640137H77.5752V22.4595H73.5135ZM8.26375 10.8433L1.44004 22.6216V22.624H5.94241L10.4768 14.7424L15.0111 22.624H19.5135L12.7046 10.8457L18.4747 0.802246H14.0486L10.4792 6.98096L6.92215 0.802246H2.47886L8.26375 10.8433ZM79.9201 77.6802V55.8609H66.061V59.6029H75.8608V65.6148H68.2592V69.3569H75.8608V73.9381H66.381V77.6802H79.9201ZM0.675781 77.6803H22.5648H22.5697V70.8734C22.5697 69.5508 22.3507 68.2994 21.9125 67.1216C21.4743 65.9437 20.8269 64.8714 19.9727 63.9071C19.1185 62.9427 17.9763 62.1771 16.5461 61.6103C15.1159 61.0435 13.4764 60.7613 11.6228 60.7613C9.76914 60.7613 8.12967 61.0435 6.69945 61.6103C5.26923 62.1771 4.12702 62.9427 3.27283 63.9071C2.41617 64.8714 1.77122 65.9437 1.33304 67.1216C0.894869 68.2994 0.675781 69.5484 0.675781 70.8734V77.6803ZM18.8108 72.1372V73.6315H4.43473V72.1372C4.43473 71.1802 4.54304 70.3017 4.76213 69.4993C4.98122 68.6969 5.33816 67.9264 5.83787 67.1903C6.33513 66.4541 7.07609 65.8726 8.05829 65.4456C9.04049 65.0186 10.2295 64.8052 11.6228 64.8052C13.0161 64.8052 14.205 65.0186 15.1872 65.4456C16.1694 65.8726 16.9079 66.4541 17.4077 67.1903C17.9049 67.9264 18.2643 68.6969 18.4834 69.4993C18.7025 70.3042 18.8108 71.1826 18.8108 72.1372Z" fill="white"/>
</g>
<defs>
<clipPath id="clip0_105_11826">
<rect width="80.64" height="77.0402" fill="white" transform="translate(0 0.640137)"/>
</clipPath>
</defs>
</svg>
